<svg xmlns="http://www.w3.org/2000/svg" xmlns:xlink="http://www.w3.org/1999/xlink" width="112" height="112" viewBox="0 0 112 112">
  <defs>
    <filter id="Elipse_8620" x="0" y="0" width="112" height="112" filterUnits="userSpaceOnUse">
      <feOffset dx="3" dy="3" input="SourceAlpha"/>
      <feGaussianBlur stdDeviation="3" result="blur"/>
      <feFlood flood-opacity="0.161"/>
      <feComposite operator="in" in2="blur"/>
      <feComposite in="SourceGraphic"/>
    </filter>
  </defs>
  <g id="Grupo_1083655" data-name="Grupo 1083655" transform="translate(-904 -1953)">
    <g transform="matrix(1, 0, 0, 1, 904, 1953)" filter="url(#Elipse_8620)">
      <g id="Elipse_8620-2" data-name="Elipse 8620" transform="translate(6 6)" fill="#ffb206" stroke="#fff" stroke-width="2">
        <circle cx="47" cy="47" r="47" stroke="none"/>
        <circle cx="47" cy="47" r="46" fill="none"/>
      </g>
    </g>
    <path id="_024-coaching" data-name="024-coaching" d="M8.9,61.9h1.949a.7.7,0,0,0,.7-.7V58.116a.7.7,0,0,0-.7-.7H8.9a.7.7,0,0,0-.7.7V61.2A.7.7,0,0,0,8.9,61.9Zm.7-3.084h.541V60.5H9.6ZM12.7,61.9h1.949a.7.7,0,0,0,.7-.7V56.679a.7.7,0,0,0-.7-.7H12.7a.7.7,0,0,0-.7.7V61.2A.7.7,0,0,0,12.7,61.9Zm.7-4.521h.541V60.5h-.541Zm3.1,4.521H18.46a.7.7,0,0,0,.7-.7V55.005a.7.7,0,0,0-.7-.7H16.511a.7.7,0,0,0-.7.7V61.2A.7.7,0,0,0,16.511,61.9Zm.7-6.194h.541V60.5h-.541Zm3.1,6.194h1.949a.7.7,0,0,0,.7-.7V52.372a.7.7,0,0,0-.7-.7H20.319a.7.7,0,0,0-.7.7V61.2A.7.7,0,0,0,20.319,61.9Zm.7-8.828h.541V60.5h-.541ZM54.674,66.461,52.88,56.289A1.852,1.852,0,0,0,51,54.782H48.591a.7.7,0,0,0-.5.206L46.979,56.1l-1.114-1.114a.7.7,0,0,0-.5-.206H34.427a2.213,2.213,0,0,0-2.091,1.439h-.949V49.75a.7.7,0,0,0-.7-.7H20.435v-.967a.7.7,0,0,0-.7-.7H18.152a.7.7,0,0,0-.7.7v.967H7.2a.7.7,0,0,0-.7.7V63.488a.7.7,0,0,0,.7.7h4.366L7.646,70.98a.7.7,0,0,0,.61,1.056h1.929a.7.7,0,0,0,.61-.352l4.325-7.492h7.642l4.325,7.492a.7.7,0,0,0,.61.352h1.929a.7.7,0,0,0,.61-1.056l-3.919-6.787h4.366a.7.7,0,0,0,.7-.7V57.629h.949a2.213,2.213,0,0,0,2.091,1.439h7.917l.767,9.024-.939,11.951a2.175,2.175,0,0,0,4.333.388l.489-4.475.488,4.469A2.18,2.18,0,0,0,49.646,82.4c.063,0,.127,0,.191-.008a2.188,2.188,0,0,0,1.978-2.35l-.941-11.971.045-1.666.171.728a1.858,1.858,0,0,0,2.1,1.44,1.827,1.827,0,0,0,1.479-2.112ZM18.857,48.783h.17v.262h-.17ZM9.779,70.627h-.3l3.715-6.435h.3Zm18.628,0h-.3l-3.715-6.435h.3ZM29.98,56.221H24.748a.7.7,0,1,0,0,1.408H29.98v5.154H7.9V50.454H29.98ZM53.217,67.015a.411.411,0,0,1-.267.171.449.449,0,0,1-.489-.376L51.049,60.8a.7.7,0,0,0-1.389.142l-.194,7.125a.705.705,0,0,0,0,.074l.944,12.008a.775.775,0,0,1-.7.837.767.767,0,0,1-.83-.7v-.014L47.694,69.395a.7.7,0,0,0-1.4,0L45.105,80.278a.786.786,0,0,1-.832.712.775.775,0,0,1-.7-.837l.944-12.008a.706.706,0,0,0,0-.115L43.693,58.3a.7.7,0,0,0-.7-.645H34.427a.738.738,0,1,1,0-1.47H45.076L46.482,57.6a.7.7,0,0,0,1,0l1.405-1.405H51a.468.468,0,0,1,.5.343l1.794,10.173a.413.413,0,0,1-.07.309ZM46.979,54.679c1.473,0,2.627-1.569,2.627-3.571,0-2.152-1.362-3.133-2.627-3.133s-2.627.98-2.627,3.133C44.352,53.11,45.506,54.679,46.979,54.679Zm0-5.3c.752,0,1.218.661,1.218,1.724,0,1.275-.642,2.163-1.218,2.163s-1.218-.888-1.218-2.163C45.761,50.044,46.228,49.383,46.979,49.383ZM6.913,82.893h5.222a.7.7,0,0,0,.7-.7V79.577a3.315,3.315,0,0,0-6.631,0v2.611A.7.7,0,0,0,6.913,82.893Zm.7-3.315a1.907,1.907,0,0,1,3.814,0v1.907H7.617Zm4.362,3.633H7.069A3.073,3.073,0,0,0,4,86.28v2.366a.7.7,0,0,0,.7.7h9.641a.7.7,0,0,0,.7-.7V86.28A3.074,3.074,0,0,0,11.979,83.21Zm1.661,4.731H5.407V86.28a1.663,1.663,0,0,1,1.661-1.661h4.91A1.663,1.663,0,0,1,13.64,86.28Zm10.011-5.049a.7.7,0,0,0,.7-.7V79.577a3.315,3.315,0,0,0-6.631,0v2.611a.7.7,0,0,0,.7.7Zm-4.518-3.315a1.907,1.907,0,0,1,3.814,0v1.907H19.133Zm4.362,3.633h-4.91a3.073,3.073,0,0,0-3.07,3.07v2.366a.7.7,0,0,0,.7.7H25.86a.7.7,0,0,0,.7-.7V86.28A3.073,3.073,0,0,0,23.495,83.21Zm1.662,4.731H16.923V86.28a1.663,1.663,0,0,1,1.662-1.661h4.91a1.663,1.663,0,0,1,1.661,1.661Zm10.011-5.049a.7.7,0,0,0,.7-.7V79.577a3.315,3.315,0,0,0-6.631,0v2.611a.7.7,0,0,0,.7.7Zm-4.518-3.315a1.907,1.907,0,0,1,3.814,0v1.907H30.649Zm4.362,3.633H30.1a3.073,3.073,0,0,0-3.07,3.07v2.366a.7.7,0,0,0,.7.7h9.641a.7.7,0,0,0,.7-.7V86.28A3.073,3.073,0,0,0,35.011,83.21Zm1.661,4.731H28.439V86.28A1.663,1.663,0,0,1,30.1,84.619h4.91a1.663,1.663,0,0,1,1.661,1.661Z" transform="translate(928.001 1937.625)"/>
  </g>
</svg>
