<svg id="_x31_8_x2C__Check_x2C__computer_x2C__secure_x2C__security" xmlns="http://www.w3.org/2000/svg" width="92.294" height="89.671" viewBox="0 0 92.294 89.671">
  <g id="XMLID_4991_" transform="translate(0 0)">
    <path id="XMLID_5154_" d="M150.012,96.084H84.557a3.124,3.124,0,0,0-3.124,3.124v3.9h71.7v-3.9A3.124,3.124,0,0,0,150.012,96.084Z" transform="translate(-68.852 -81.997)" fill="#a4b0bf"/>
    <path id="XMLID_5143_" d="M153.136,336.259v6.278h-71.7v-6.278Z" transform="translate(-68.852 -275.991)" fill="#a4b0bf"/>
    <g id="Grupo_1083613" data-name="Grupo 1083613" transform="translate(2.747 1.053)">
      <path id="XMLID_5140_" d="M32.956,455.969a2.666,2.666,0,1,1-2.667,2.668A2.666,2.666,0,0,1,32.956,455.969Z" transform="translate(-30.289 -373.737)" fill="#5e5e5e"/>
      <path id="XMLID_5139_" d="M459.983,28.3a2.666,2.666,0,1,1-2.667,2.667A2.666,2.666,0,0,1,459.983,28.3Z" transform="translate(-375.208 -28.296)" fill="#5e5e5e"/>
      <path id="XMLID_5138_" d="M231.906,368.91v2.463a3.635,3.635,0,0,1-3.634,3.634H213.055a3.635,3.635,0,0,1-3.634-3.634V368.91Z" transform="translate(-174.978 -303.417)" fill="#5e5e5e"/>
      <path id="XMLID_5137_" d="M135.42,368.91v5.5a6.628,6.628,0,0,1-6.628,6.628H59.275a6.628,6.628,0,0,1-6.628-6.628v-5.5H82.791v2.463a3.635,3.635,0,0,0,3.634,3.634h15.217a3.635,3.635,0,0,0,3.634-3.634V368.91H135.42Z" transform="translate(-48.348 -303.417)" fill="#5e5e5e"/>
    </g>
    <path id="XMLID_5136_" d="M191.059,265.471h7.569v7.571h-7.569Z" transform="translate(-157.399 -218.815)" fill="#f5bb57"/>
    <path id="XMLID_5133_" d="M153.136,132.591V171.75h-71.7V132.591h22.588l.027,0A18.456,18.456,0,0,0,115.081,148.5l1.728.754a.635.635,0,0,0,.507,0l1.947-.84a18.414,18.414,0,0,0,11.247-15.828l.038,0ZM110.08,165.71v-7.571h-7.569v7.571Z" transform="translate(-68.852 -111.483)" fill="#f2f2f2"/>
    <path id="XMLID_5130_" d="M225.437,64.184v5.87q0,.578-.038,1.149a18.414,18.414,0,0,1-11.247,15.828l-1.947.84a.635.635,0,0,1-.507,0l-1.728-.754A18.456,18.456,0,0,1,198.937,71.2c-.019-.322-.027-.646-.027-.973V61.318a.637.637,0,0,1,.331-.56l12.449-4.091a.638.638,0,0,1,.606,0l12.8,4.089a.643.643,0,0,1,.337.564Zm-6.078,4.24a.935.935,0,0,0-1.434-1.2l-8.392,7.167-3.181-3.051a.934.934,0,1,0-1.295,1.347l3.905,3.743a.931.931,0,0,0,.646.261l.051,0a.937.937,0,0,0,.665-.333Z" transform="translate(-163.74 -50.097)" fill="#94cd3e"/>
    <path id="XMLID_5129_" d="M243.863,110.373a.934.934,0,0,1,.118,1.316l-9.034,7.933a.937.937,0,0,1-.665.333l-.051,0a.93.93,0,0,1-.646-.261l-3.905-3.743a.934.934,0,1,1,1.295-1.347l3.181,3.051,8.392-7.167A.933.933,0,0,1,243.863,110.373Z" transform="translate(-188.362 -93.362)"/>
    <path id="XMLID_5128_" d="M355.038,145.172a1.053,1.053,0,0,1-1.053-1.053V94.785a2.074,2.074,0,0,0-2.072-2.072H332.45a1.053,1.053,0,0,1,0-2.105h19.464a4.182,4.182,0,0,1,4.177,4.177V144.12A1.053,1.053,0,0,1,355.038,145.172Z" transform="translate(-270.753 -77.574)"/>
    <path id="XMLID_5125_" d="M77.011,145.173a1.053,1.053,0,0,1-1.053-1.053V94.786a4.182,4.182,0,0,1,4.177-4.177H99.6a1.053,1.053,0,1,1,0,2.105H80.135a2.074,2.074,0,0,0-2.072,2.072V144.12A1.053,1.053,0,0,1,77.011,145.173Z" transform="translate(-64.429 -77.575)"/>
    <path id="XMLID_5124_" d="M124.371,377.667H54.853a7.689,7.689,0,0,1-7.68-7.68v-5.5a1.053,1.053,0,0,1,1.053-1.053H78.37a1.053,1.053,0,1,1,0,2.105H49.278v4.446a5.581,5.581,0,0,0,5.575,5.575h69.518a5.581,5.581,0,0,0,5.575-5.575V365.54H100.855a1.053,1.053,0,1,1,0-2.105H131a1.053,1.053,0,0,1,1.053,1.053v5.5a7.689,7.689,0,0,1-7.68,7.68Z" transform="translate(-41.179 -297.942)"/>
    <path id="XMLID_5121_" d="M223.851,371.638H208.633a4.692,4.692,0,0,1-4.686-4.686v-2.463A1.053,1.053,0,0,1,205,363.435h22.485a1.053,1.053,0,0,1,1.053,1.053v2.463A4.692,4.692,0,0,1,223.851,371.638Zm-17.8-6.1v1.411a2.584,2.584,0,0,0,2.581,2.581h15.217a2.584,2.584,0,0,0,2.581-2.581V365.54Z" transform="translate(-167.809 -297.942)"/>
    <path id="XMLID_5120_" d="M148.714,332.889h-71.7a1.053,1.053,0,0,1,0-2.105h71.7a1.053,1.053,0,0,1,0,2.105Z" transform="translate(-64.429 -271.569)"/>
    <path id="XMLID_5119_" d="M99.6,129.23H77.011a1.053,1.053,0,0,1,0-2.105H99.6a1.053,1.053,0,1,1,0,2.105Z" transform="translate(-64.429 -107.07)"/>
    <path id="XMLID_5118_" d="M355.038,129.23H332.45a1.053,1.053,0,0,1,0-2.105h22.588a1.053,1.053,0,1,1,0,2.105Z" transform="translate(-270.753 -107.07)"/>
    <path id="XMLID_5115_" d="M207.533,84.552a1.709,1.709,0,0,1-.673-.138l-1.734-.756a19.4,19.4,0,0,1-11.662-16.822c-.019-.324-.029-.672-.029-1.029V56.894a1.689,1.689,0,0,1,.878-1.484,1.053,1.053,0,0,1,.176-.077l12.379-4.068a1.685,1.685,0,0,1,1.394-.005L221,55.327a1.058,1.058,0,0,1,.181.077,1.693,1.693,0,0,1,.888,1.49v8.735c0,.408-.014.818-.04,1.219a19.467,19.467,0,0,1-11.889,16.729l-1.938.836a1.651,1.651,0,0,1-.666.139ZM195.54,57.2v8.6c0,.316.009.622.026.911a17.31,17.31,0,0,0,10.4,15.011l1.561.681,1.783-.769a17.256,17.256,0,0,0,10.613-14.927c.024-.36.036-.723.036-1.084V57.206l-12.388-3.956Z" transform="translate(-159.318 -45.673)"/>
    <path id="XMLID_5114_" d="M262.031,301.475H243.4a1.053,1.053,0,0,1,0-2.105h18.632a1.053,1.053,0,0,1,0,2.105Z" transform="translate(-198.825 -246.195)"/>
    <path id="XMLID_5113_" d="M262.031,262.1H243.4a1.053,1.053,0,1,1,0-2.105h18.632a1.053,1.053,0,1,1,0,2.105Z" transform="translate(-198.825 -214.391)"/>
    <path id="XMLID_5112_" d="M255.083,281.788H243.4a1.053,1.053,0,0,1,0-2.105h11.685a1.053,1.053,0,0,1,0,2.105Z" transform="translate(-198.825 -230.294)"/>
    <path id="XMLID_5111_" d="M330.873,281.788h-2.244a1.053,1.053,0,0,1,0-2.105h2.244a1.053,1.053,0,0,1,0,2.105Z" transform="translate(-267.667 -230.294)"/>
    <path id="XMLID_5083_" d="M194.205,269.671h-7.569a1.053,1.053,0,0,1-1.053-1.053v-7.571a1.053,1.053,0,0,1,1.053-1.053h7.569a1.053,1.053,0,0,1,1.053,1.053v7.571A1.053,1.053,0,0,1,194.205,269.671Zm-6.516-2.105h5.463V262.1h-5.463Z" transform="translate(-152.977 -214.391)"/>
    <path id="XMLID_5079_" d="M455.561,30.259a3.719,3.719,0,1,1,3.718-3.718A3.723,3.723,0,0,1,455.561,30.259Zm0-5.333a1.614,1.614,0,1,0,1.613,1.615A1.617,1.617,0,0,0,455.561,24.926Z" transform="translate(-368.038 -22.821)"/>
    <path id="XMLID_5046_" d="M28.534,457.932a3.719,3.719,0,1,1,3.718-3.718A3.723,3.723,0,0,1,28.534,457.932Zm0-5.333a1.614,1.614,0,1,0,1.613,1.615A1.616,1.616,0,0,0,28.534,452.6Z" transform="translate(-23.119 -368.262)"/>
    <path id="XMLID_5045_" d="M22.244,324.041H17.053a1.053,1.053,0,1,1,0-2.105h5.192a1.053,1.053,0,1,1,0,2.105Z" transform="translate(-16 -264.423)"/>
    <path id="XMLID_5044_" d="M30.553,315.735a1.053,1.053,0,0,1-1.053-1.053v-5.194a1.053,1.053,0,0,1,2.105,0v5.194A1.053,1.053,0,0,1,30.553,315.735Z" transform="translate(-26.904 -253.518)"/>
    <path id="XMLID_5043_" d="M34.506,56.336a1.053,1.053,0,0,1-.744-1.8l3.671-3.673a1.053,1.053,0,1,1,1.49,1.488L35.25,56.027A1.049,1.049,0,0,1,34.506,56.336Z" transform="translate(-30.098 -45.224)"/>
    <path id="XMLID_5042_" d="M38.178,56.335a1.05,1.05,0,0,1-.744-.308l-3.672-3.674a1.053,1.053,0,1,1,1.49-1.488l3.671,3.673a1.053,1.053,0,0,1-.745,1.8Z" transform="translate(-30.098 -45.223)"/>
    <path id="XMLID_5041_" d="M464.293,466.471H459.1a1.053,1.053,0,0,1,0-2.105h5.192a1.053,1.053,0,1,1,0,2.105Z" transform="translate(-373.053 -379.466)"/>
    <path id="XMLID_5039_" d="M472.6,458.154a1.053,1.053,0,0,1-1.053-1.053v-5.194a1.053,1.053,0,1,1,2.105,0V457.1A1.053,1.053,0,0,1,472.6,458.154Z" transform="translate(-383.958 -368.553)"/>
  </g>
</svg>
