<svg xmlns="http://www.w3.org/2000/svg" width="92.294" height="92.187" viewBox="0 0 92.294 92.187">
  <g id="Grupo_1083657" data-name="Grupo 1083657" transform="translate(-783 -930.676)">
    <path id="XMLID_9429_" d="M55.506,153.175v45.873a5.1,5.1,0,0,0,5.087,5.085h69.914a5.1,5.1,0,0,0,5.081-5.085V153.175Z" transform="translate(735.09 803.824)" fill="#f2f2f2"/>
    <path id="XMLID_9428_" d="M465.456,21.752a2.666,2.666,0,1,1-2.667,2.665A2.666,2.666,0,0,1,465.456,21.752Z" transform="translate(406.119 909.978)" fill="#a4b0bf"/>
    <path id="XMLID_9427_" d="M122.295,462.521a2.666,2.666,0,1,1-2.665,2.665A2.666,2.666,0,0,1,122.295,462.521Z" transform="translate(683.296 553.959)" fill="#a4b0bf"/>
    <path id="XMLID_9422_" d="M135.588,89.387v8.156H55.506V89.387A5.1,5.1,0,0,1,60.593,84.3h69.914a5.1,5.1,0,0,1,5.081,5.087ZM79.334,93.073V89.762H76.027v3.311Zm-6.7,0V89.762H69.326v3.311Zm-6.7,0V89.762H62.624v3.311Z" transform="translate(735.09 859.456)" fill="#5e5e5e"/>
    <path id="XMLID_9421_" d="M180.888,191.6l-19.728,34.24h39.458Z" transform="translate(649.751 772.79)" fill="#f5bb57"/>
    <path id="XMLID_9420_" d="M258.567,243.756v4.723l-.8,11.292h-1.7l-.745-11.292v-4.723Z" transform="translate(573.694 730.66)"/>
    <path id="XMLID_9419_" d="M255.946,339.133h3.008v2.976h-3.008Z" transform="translate(573.19 653.622)"/>
    <path id="XMLID_9418_" d="M162.233,112.706h3.307v3.311h-3.307Z" transform="translate(648.884 836.512)"/>
    <path id="XMLID_9417_" d="M127.38,112.706h3.307v3.311H127.38Z" transform="translate(677.036 836.512)"/>
    <path id="XMLID_9399_" d="M92.526,112.706h3.307v3.311H92.526Z" transform="translate(705.188 836.512)"/>
    <path id="XMLID_9396_" d="M126.086,145.133H56.172A6.145,6.145,0,0,1,50.032,139V84.966a6.147,6.147,0,0,1,6.14-6.14h69.914a6.143,6.143,0,0,1,6.133,6.14V139A6.142,6.142,0,0,1,126.086,145.133Zm-69.914-64.2a4.039,4.039,0,0,0-4.035,4.035V139a4.038,4.038,0,0,0,4.035,4.033h69.914A4.035,4.035,0,0,0,130.114,139V84.966a4.036,4.036,0,0,0-4.028-4.035Z" transform="translate(739.512 863.877)"/>
    <path id="XMLID_9395_" d="M131.167,149.807H51.085a1.052,1.052,0,0,1,0-2.1h80.082a1.052,1.052,0,0,1,0,2.1Z" transform="translate(739.511 808.244)"/>
    <path id="XMLID_9392_" d="M196.2,222.469H156.739a1.052,1.052,0,0,1-.912-1.578l19.728-34.24a1.052,1.052,0,0,1,1.824,0l19.73,34.24a1.052,1.052,0,0,1-.912,1.578Zm-37.637-2.1h35.816l-17.909-31.08Z" transform="translate(654.172 777.21)"/>
    <path id="XMLID_9389_" d="M461.035,23.715A3.718,3.718,0,1,1,464.754,20,3.723,3.723,0,0,1,461.035,23.715Zm0-5.332A1.613,1.613,0,1,0,462.649,20,1.615,1.615,0,0,0,461.035,18.384Z" transform="translate(410.54 914.397)"/>
    <path id="XMLID_9386_" d="M117.873,464.483a3.718,3.718,0,1,1,3.719-3.719A3.722,3.722,0,0,1,117.873,464.483Zm0-5.331a1.613,1.613,0,1,0,1.614,1.612A1.614,1.614,0,0,0,117.873,459.152Z" transform="translate(687.717 558.38)"/>
    <path id="XMLID_9385_" d="M22.245,433.166H17.052a1.052,1.052,0,1,1,0-2.1h5.192a1.052,1.052,0,1,1,0,2.1Z" transform="translate(767 579.369)"/>
    <path id="XMLID_9384_" d="M30.549,424.861a1.052,1.052,0,0,1-1.052-1.052v-5.193a1.052,1.052,0,1,1,2.1,0v5.193A1.052,1.052,0,0,1,30.549,424.861Z" transform="translate(756.098 590.271)"/>
    <path id="XMLID_9383_" d="M68.337,30.692a1.052,1.052,0,0,1-.744-1.8l3.671-3.671a1.052,1.052,0,0,1,1.488,1.488l-3.671,3.671A1.05,1.05,0,0,1,68.337,30.692Z" transform="translate(725.577 907.421)"/>
    <path id="XMLID_9382_" d="M72.008,30.692a1.049,1.049,0,0,1-.744-.308l-3.671-3.671a1.052,1.052,0,0,1,1.488-1.488L72.752,28.9a1.052,1.052,0,0,1-.744,1.8Z" transform="translate(725.576 907.421)"/>
    <path id="XMLID_9381_" d="M460.1,473.011h-5.193a1.052,1.052,0,0,1,0-2.1H460.1a1.052,1.052,0,1,1,0,2.1Z" transform="translate(413.333 547.186)"/>
    <path id="XMLID_9380_" d="M468.406,464.706a1.052,1.052,0,0,1-1.052-1.052v-5.193a1.052,1.052,0,1,1,2.1,0v5.193A1.052,1.052,0,0,1,468.406,464.706Z" transform="translate(402.432 558.088)"/>
  </g>
</svg>
