<svg id="Grupo_1083647" data-name="Grupo 1083647" xmlns="http://www.w3.org/2000/svg" width="124.988" height="67.571" viewBox="0 0 124.988 67.571">
  <g id="Grupo_1083645" data-name="Grupo 1083645">
    <path id="Trazado_797368" data-name="Trazado 797368" d="M64.057,21.548a.506.506,0,0,0-.207-.1h0a1.127,1.127,0,0,0-.307.089c-1.413.485-2.832.952-4.246,1.437-.071.03-.148.041-.189.059-.3.089-.307.118-.426.4-.03.059-.041.118-.089.207-.089.207-.177.426-.266.633l-.148.355a.4.4,0,0,0-.1.059,1.148,1.148,0,0,0-.266.148c-.13.089-.266.177-.4.266-.071.041-.13.089-.207.13a.172.172,0,0,0-.059.03v-.3c0-.266,0-.514-.012-.781,0-.544-.012-1.088-.041-1.644-.012-.467-.041-.94-.071-1.407,0-.237-.03-.467-.041-.692V20.23h.071l.485.03c.248.012.5.03.751.041h.325a.274.274,0,0,0,.248-.118c.03-.041.071-.089.118-.148q1.455-1.738,2.909-3.495l.059-.089s.03-.13-.012-.177a.154.154,0,0,0-.13-.071h0a.863.863,0,0,0-.266.059c-1.295.467-2.584.94-3.879,1.407l-.485.177-.1.041c-.266.089-.307.13-.355.544a4,4,0,0,1-.059.455,1.125,1.125,0,0,1-.03.237l-.118.071-.219.13-1.514.952c-1.733,1.1-3.483,2.188-5.215,3.288-.5.307-.982.633-1.466.952-.266.177-.544.355-.81.526-.012,0-.03.03-.041.03-.041.03-.071.059-.118.059a2.674,2.674,0,0,0-.012-.307c0-.219-.03-.426-.03-.645a1.711,1.711,0,0,0-.03-.384c0-.207-.03-.4-.03-.615h.089a4.66,4.66,0,0,0,.982-.041,2.669,2.669,0,0,0,2.087-1.325,4.949,4.949,0,0,0,.3-.585A7.114,7.114,0,0,0,51,18.793a.758.758,0,0,0-.059-.325,3.5,3.5,0,0,0-.869-1.265,6.392,6.392,0,0,0-.792-.633,1.449,1.449,0,0,1,.248.041c.384.1.751.207,1.088.307a10.534,10.534,0,0,0,2.1.426,3.687,3.687,0,0,0,2.188-.455,5.013,5.013,0,0,0,1.1-.84c.248-.248.5-.526.751-.792a.23.23,0,0,0,.059-.189.179.179,0,0,0-.189-.16h-1.88a1.074,1.074,0,0,1-.012-.307v-.189a1.508,1.508,0,0,1,.012-.237H54.8c.059,0,.118.03.177.03a1.128,1.128,0,0,0,.307-.03,1.348,1.348,0,0,0,.177-.1.106.106,0,0,0,.041-.03c.03.012.041.03.071.041a.77.77,0,0,1,.089.059l.16.118c.177.118.355.248.526.355a1.648,1.648,0,0,0,.384.177.366.366,0,0,0,.278-.03.357.357,0,0,0,.148-.266v-.13h0c.041.012.071.041.118.059a3.113,3.113,0,0,1,.307.207c.148.089.278.189.426.278l.059.041a2.425,2.425,0,0,0,.325.177.358.358,0,0,0,.526-.307v-.148c.041.041.089.071.118.1.059.041.1.089.16.13.13.118.266.237.414.355a1.706,1.706,0,0,0,.4.219.558.558,0,0,0,.615-.118A.314.314,0,0,1,60.7,15.3l.03-.012a.441.441,0,0,1,.118.059,3.121,3.121,0,0,0,.355.16c.118.041.237.071.337.1a.8.8,0,0,1,.148.041.106.106,0,0,0,.03.041l.13.177a2.937,2.937,0,0,0,1.058.645,1.527,1.527,0,0,0,.384.071h0a.324.324,0,0,0,.266-.1.374.374,0,0,0,.071-.3.534.534,0,0,0-.089-.278l-.059-.1a3.43,3.43,0,0,0-.3-.485,8.4,8.4,0,0,0-.751-.881,26.091,26.091,0,0,0-2.146-2.04c-.414-.355-.822-.692-1.236-1.029-.384-.325-.763-.633-1.129-.952-1.762-1.5-3.453-2.821-5.168-4.039-1.088-.781-2.206-1.555-3.276-2.306-.7-.5-1.413-.982-2.117-1.484A13.236,13.236,0,0,0,44.082.924a18.964,18.964,0,0,0-3.365-.81,12.517,12.517,0,0,0-2.265-.13,4.77,4.77,0,0,0-1.1.148,3.533,3.533,0,0,0-1.437.662,2.272,2.272,0,0,0-.9,1.792A4.735,4.735,0,0,0,35.3,4.276c.03.1.071.189.1.3.059.148.1.3.16.443.071.237.13.485.189.733a1.633,1.633,0,0,1-.041.733.466.466,0,0,1-.307.367A.99.99,0,0,1,34.367,6.7a2.172,2.172,0,0,0-1.644-.526c-.148,0-.3.03-.443.03-.118-.1-.237-.207-.355-.3l-.207-.177c0-1-.041-1.129-.633-1.75V3.863a.361.361,0,0,0-.16-.325,1.249,1.249,0,0,0-.97-.237,1.388,1.388,0,0,0-.278.089.534.534,0,0,1-.556-.03.518.518,0,0,0-.633.041s-.03.012-.03.03a.314.314,0,0,1-.071.059c0-.041.03-.071.03-.118,0-.03.03-.059.03-.089a3.253,3.253,0,0,0,.16-1.206A1.672,1.672,0,0,0,27.68.622,3.505,3.505,0,0,0,26.84.3a9.152,9.152,0,0,0-2.07-.237h-.13a13.141,13.141,0,0,0-3.2.4,26.367,26.367,0,0,0-2.951.952,6.718,6.718,0,0,0-2.277,1.336,9.168,9.168,0,0,1-1.325.97c-.4.248-.84.5-1.366.81a29.77,29.77,0,0,0-5.54,4.068c-.248.219-.485.455-.733.692-.177.16-.355.325-.514.485l-.219.207c-.384.355-.763.7-1.159,1.058-.674.585-1.4,1.147-2.1,1.673l-.4.3c-.485.367-.84.662-1.177.94a6.308,6.308,0,0,0-1.6,2.117,1.048,1.048,0,0,0-.071.219.208.208,0,0,0,.03.16.2.2,0,0,0,.148.089c.071,0,.13.012.207.012a1.442,1.442,0,0,0,.881-.307,5.717,5.717,0,0,1,1.307-.81.472.472,0,0,0,.13-.071c.03-.012.059-.03.089-.041a.06.06,0,0,0,.03-.012h.03v.03a1.3,1.3,0,0,0,.03.177.306.306,0,0,0,.384.248.43.43,0,0,0,.219-.089,1.277,1.277,0,0,0,.237-.16l.384-.307.443-.355h.012a.261.261,0,0,1-.012.1.377.377,0,0,0,.118.367.391.391,0,0,0,.367.089,2.3,2.3,0,0,0,.426-.13A5.446,5.446,0,0,0,6.476,14.7c.041-.03.089-.041.13-.071V14.7a.324.324,0,0,0,.071.237.309.309,0,0,0,.219.03,1.986,1.986,0,0,0,1.058-.514l.03-.041.089-.089a.06.06,0,0,1,.03.012.455.455,0,0,0,.585.177.8.8,0,0,0,.237-.118l.266-.177c.041-.03.1-.071.148-.1.012,0,.041-.03.059-.041A.265.265,0,0,1,9.515,14c.041.148.071.3.1.443l.03.13s.03.13.041.189a1.679,1.679,0,0,1,.059.384H8.2a.235.235,0,0,0-.189.118.208.208,0,0,0,0,.219c.03.059.071.13.1.177a5.357,5.357,0,0,0,1.4,1.307,2.916,2.916,0,0,0,1.218.467,3.483,3.483,0,0,0,1.088-.03c.514-.1,1.029-.207,1.437-.307l.355-.089a13.214,13.214,0,0,1,1.295-.266,1.542,1.542,0,0,1,.367-.012c-.03.041-.041.071-.071.089-.189.189-.4.367-.6.544-.089.071-.177.16-.266.237s-.189.16-.3.248a1.982,1.982,0,0,0-.662,1.543,4.519,4.519,0,0,0,.485,2.087,3.031,3.031,0,0,0,1.354,1.354,5.463,5.463,0,0,0,1.218.426c.189.041.384.071.574.118h.041c-.03.355-.059.692-.089,1.041l-.041.6-.041-.03a1.722,1.722,0,0,1-.207-.118c-1.892-1.041-3.8-2.206-5.653-3.435-.674-.443-1.354-.911-2-1.354-.443-.3-.869-.6-1.307-.9a.514.514,0,0,1-.237-.325l-.089-.266c-.03-.089-.071-.189-.1-.3a.455.455,0,0,0-.337-.337c-.03,0-.059,0-.071-.03l-.751-.266c-1.029-.355-2.07-.721-3.116-1.088H2.946s-.089-.041-.13-.059a.884.884,0,0,0-.177,0,.192.192,0,0,0-.177.13.239.239,0,0,0,.012.219.566.566,0,0,0,.118.148l.03.03c.278.355.556.692.851,1.041.6.733,1.189,1.466,1.78,2.206a.518.518,0,0,0,.514.219c.355-.03.7-.041,1.041-.071h.307c0,.414-.03.822-.059,1.189-.03.414-.041.81-.059,1.206v.384c0,.278-.012.574-.03.851a4.446,4.446,0,0,1-.03.485c0,.219-.012.443-.03.662a.87.87,0,0,1-.1-.041c-.1-.059-.189-.118-.278-.177a3.2,3.2,0,0,0-.414-.248.415.415,0,0,1-.207-.3c-.041-.207-.1-.414-.148-.615L5.7,23.63a.364.364,0,0,0-.248-.266c-.207-.071-.414-.148-.615-.219l-.585-.219C3.017,22.459,1.787,21.974.533,21.5H.492a.883.883,0,0,0-.237-.089.186.186,0,0,0-.177.071.22.22,0,0,0-.03.207A1.958,1.958,0,0,0,.2,21.9c.307.367.633.751.94,1.118.733.881,1.5,1.78,2.247,2.673a.644.644,0,0,0,.514.237H5.222a1.256,1.256,0,0,1,.177.012h.041v.148c-.03.367-.059.721-.089,1.088-.041.526-.089,1.07-.13,1.6-.1,1.325-.148,2.673-.16,4.027,0,1.425.041,2.891.16,4.393.089,1.206.237,2.395.414,3.542a41.178,41.178,0,0,0,1.484,6.2,23.573,23.573,0,0,0,1.762,4.175,15.518,15.518,0,0,0,4.553,5.2A12.545,12.545,0,0,0,19.9,58.729a10.686,10.686,0,0,0,3.483-.307,14,14,0,0,0,3.264-1.307c.325-.177,1.366-.881,1.526-.97.041-.03.089-.041.13-.071h0a.571.571,0,0,1-.041.16c-.041.13-.473,1.384-.615,1.78A20.341,20.341,0,0,1,25.6,62.1c-.03.041-.059.089-.089.13l-.041.071s-.041.089-.059.13a.208.208,0,0,0,.03.16.182.182,0,0,0,.13.071h.13a11.56,11.56,0,0,1,1.555.041.293.293,0,0,1,.1.012,1.182,1.182,0,0,1,.325.071,1.488,1.488,0,0,1-.03.367v.118c-.012.177-.041.355-.059.526q-.044.355-.089.692a.67.67,0,0,0,.455.781,1.956,1.956,0,0,0,.473.13,3.588,3.588,0,0,0,.869.03h.248v.443c0,.207-.012.414,0,.615a.9.9,0,0,0,.692.851h.041s.13.041.207.059a10.6,10.6,0,0,0,1.573.148h.207a5.411,5.411,0,0,0,1.336-.16,3.613,3.613,0,0,0,.514-.189.925.925,0,0,0,.473-.585,3.108,3.108,0,0,0,.059-.384,2.867,2.867,0,0,0-.1-.81.466.466,0,0,0-.012-.118v-.03h.03c.041,0,.071-.03.1-.03a3.108,3.108,0,0,1,.526.03,1.407,1.407,0,0,1,.325.059c.1.012.219.041.337.059a.579.579,0,0,0,.721-.485,1.584,1.584,0,0,0,.059-.384,3.706,3.706,0,0,0-.237-1.4l-.089-.266a.79.79,0,0,1,.307-.041h.03l1.721-.089a.932.932,0,0,0,.266-.03.2.2,0,0,0,.177-.148.169.169,0,0,0-.071-.189.955.955,0,0,1-.177-.219c-.071-.118-.13-.237-.207-.355-.177-.3-.337-.585-.514-.881a21,21,0,0,1-1.922-4.772.316.316,0,0,0-.03-.118h.03c.041.03.089.041.13.071.781.426,1.5.792,2.217,1.1a15.222,15.222,0,0,0,4.689,1.307,12.764,12.764,0,0,0,2.779-.041,10.627,10.627,0,0,0,3.642-1.265,13.786,13.786,0,0,0,3.938-3.305A19.055,19.055,0,0,0,56,49.576a30.958,30.958,0,0,0,2.146-6.759c.278-1.384.5-2.832.645-4.317.13-1.248.207-2.483.237-3.672.059-2.1,0-4.316-.16-7.214-.03-.526-.059-1.088-.089-1.632v-.118h.692c.3.03.6.041.911.059a.381.381,0,0,0,.4-.189.7.7,0,0,1,.13-.16l.059-.059c1.011-1.147,2.028-2.294,3.027-3.435v-.03a.781.781,0,0,0,.189-.219.208.208,0,0,0,0-.219l-.1-.089Zm-7.048-2.188c.041-.355.071-.692.13-1.029.3-.118.585-.219.869-.325.148-.059.3-.1.443-.16l.414-.148c.307-.118.615-.237.94-.337.13-.041.266-.1.414-.148.266-.1.544-.207.822-.3-.574.692-1.129,1.384-1.7,2.07l-.781.94c-.526-.03-1.041-.059-1.585-.1a4,4,0,0,1,.059-.455l-.012-.012ZM51.616,28.5c.16-1.75.266-3.69.3-5.907.473-.337,4.027-2.554,4.583-2.862v.03c.16,1.91.248,3.849.248,5.759v.03c-1.851,1.236-3.524,2.294-5.115,3.246h-.012V28.78a2.185,2.185,0,0,1,.012-.278h-.012Zm-4.523,2.821v-.03c0-.13,0-.266.012-.4,0-.219.03-.443.03-.662.041-1.573.03-3.01,0-4.393v-.16h0a8.445,8.445,0,0,1,1.118-.721v.03a48.421,48.421,0,0,1-.556,6.084c-.189.1-.4.219-.585.325-.012-.012,0-.03,0-.059l-.012-.012Zm-.059.9a1.479,1.479,0,0,1,.03-.278v-.059l.207-.1c.544-.3,1.088-.6,1.632-.9v.059a25.2,25.2,0,0,1-.041,3.908A28.553,28.553,0,0,1,47.406,41.5a37.886,37.886,0,0,1-2.643,6.126,29.329,29.329,0,0,1-3.571,5.067l-.089.089-.012.012a7.446,7.446,0,0,1-1.248-1.484h0a1.507,1.507,0,0,1,.118-.148c.633-.7,1.218-1.455,1.78-2.217a24.08,24.08,0,0,0,1.91-3.246c.3-.585.556-1.177.81-1.78s.414-1.325.7-1.91a36.046,36.046,0,0,0,1.413-5.771c.219-1.407.367-2.72.443-4l.03-.03ZM36.059,52.722l-.177-.089a1.264,1.264,0,0,1-.13-.059c-.13-.059-.13-.089-.071-.219a1.407,1.407,0,0,1,.071-.16c.012-.041.03-.071.041-.118a.7.7,0,0,0-.089-.869v-.059a.52.52,0,0,0,.089-.414,1.088,1.088,0,0,0-.307-.5.816.816,0,0,0-.982,0,1.305,1.305,0,0,0-.177.148.274.274,0,0,0-.059.059c-.03-.03-.071-.041-.089-.071a.9.9,0,0,0-.574-.248,3.461,3.461,0,0,0-.556-.012c-.207,0-.426,0-.633.012h-.248a3.987,3.987,0,0,0-.443.1.8.8,0,0,1-.485-.03c-.03,0-.071-.03-.1-.03a.216.216,0,0,0-.266.13l-.03.041a1.511,1.511,0,0,1-.16.266.241.241,0,0,1-.307.089.325.325,0,0,0-.1-.03h-.059a.863.863,0,0,0-.881.177c-.071.059-.13.118-.207.189a.537.537,0,0,0-.177.384v.148c-.012.189-.13.3-.337.355h-.071a1.473,1.473,0,0,0-.952.443,1.77,1.77,0,0,0-.574.84l-.03.071a1.074,1.074,0,0,0-.041.118.386.386,0,0,0-.089-.059A29.383,29.383,0,0,1,22.8,48.926a22.471,22.471,0,0,1-2.265-3.861.11.11,0,0,0-.03-.059.219.219,0,0,1-.041-.118c.384-.03,2.1-.03,2.483,0a.38.38,0,0,0,.03.118,1.732,1.732,0,0,0,.81,1.295c.03.03.071.041.1.071.089.059.177.118.278.177a.376.376,0,0,1,.207.266,1.075,1.075,0,0,0,.071.207c0,.03.03.059.041.089a2.828,2.828,0,0,0,1.07,1.307,4.358,4.358,0,0,0,1.218.544c.355.089.7.177,1.041.237.751.148,1.455.4,2.206.556a11.652,11.652,0,0,0,2.217.266A7.751,7.751,0,0,0,34.4,49.83c.1-.03.189-.041.3-.071a1.39,1.39,0,0,0,.248-.089.729.729,0,0,1,.94.443.847.847,0,0,0,.059.148l.03.059a.7.7,0,0,0,.426.414.636.636,0,0,1,.384.325.556.556,0,0,0,.118.16.361.361,0,0,0,.485.071.709.709,0,0,0,.337-.662.413.413,0,0,0-.177-.337c-.059-.059-.118-.1-.189-.16h-.03a.172.172,0,0,1,.03-.059l.059-.059c.059-.059.118-.1.177-.16a3.345,3.345,0,0,0,.355-.355,1.055,1.055,0,0,1,.97-.384.779.779,0,0,1,.189.03.365.365,0,0,1,.118.012.226.226,0,0,0,.278-.118.22.22,0,0,0-.059-.3s0-.012-.03-.03a.36.36,0,0,1,.384-.041,3.282,3.282,0,0,1,.355.177,2.144,2.144,0,0,0,.928.384,26.743,26.743,0,0,1-4.63,4.831c0-.041.03-.089.03-.13a2.148,2.148,0,0,0,.059-.266.756.756,0,0,0-.426-.9l-.041-.03ZM24.735,23.21c0,.278.059.325.325.355.13,0,.248.03.384.041a4.551,4.551,0,0,1,.514.059.094.094,0,0,1,.071.03h0c-.16.012-.307.03-.473.041a9.31,9.31,0,0,1-3.8-.633,9.892,9.892,0,0,1-1.159-.5,16.912,16.912,0,0,1,2.5-.6A6.755,6.755,0,0,1,25,21.945a.148.148,0,0,1-.03.1.172.172,0,0,1-.03.059,3.059,3.059,0,0,0-.177,1.118l-.03-.012Zm-2.277.556a9.618,9.618,0,0,0,3.187.367,11.833,11.833,0,0,0,3.938-.928c.278-.118.544-.237.84-.355.118-.041.237-.1.355-.148a3.213,3.213,0,0,0,1.1.84h.059a.179.179,0,0,0,.071-.237c-.071-.266-.13-.514-.207-.781-.012-.059-.041-.118-.059-.177v-.041a.636.636,0,0,1,.189-.1.615.615,0,0,0,.03.16.375.375,0,0,0,.03.177c.012.059.03.13.041.189s.03.13.041.189a3.417,3.417,0,0,0,.148.384c0,.03.03.059.041.1a.439.439,0,0,0,.177.266l.041.03.041-.041c.177-.189.207-.3.443-1.4h0a.3.3,0,0,1,.1.041c.012,0,.041.03.059.041a19.387,19.387,0,0,0,2.572,1.1,10.671,10.671,0,0,0,3.453.585h.012a9.3,9.3,0,0,0,3.187-.585,12.381,12.381,0,0,0,1.88-.822.394.394,0,0,1,.355-.03,11.348,11.348,0,0,0,1.573.467,1.262,1.262,0,0,1,.248.059.346.346,0,0,1,.13.03c.118.674.248,4.346.207,6.108a39.054,39.054,0,0,1-.307,4.76h-.059q-14.342-.062-28.7-.16h-.03a8.351,8.351,0,0,1-.1-.851V32.8a50.939,50.939,0,0,1,0-9.591h.03a.943.943,0,0,1,.189-.041c.207-.041.414-.089.633-.118.443-.089.9-.177,1.336-.266a.525.525,0,0,1,.4.041,13.255,13.255,0,0,0,2.336.928h-.012Zm3.879-.721c.13.089.148.16.059.414-.012,0-.03-.03-.041-.059v-.03a.073.073,0,0,0-.012-.041.326.326,0,0,1,0-.278Zm.485.526.089-.177c0-.012.03-.041.041-.059a.181.181,0,0,1,.059-.071c.018-.012.03-.059.059-.089h0s.03.059.041.089a1.221,1.221,0,0,0,.148.237c-.03,0-.071.03-.1.03a.218.218,0,0,0-.1.03.927.927,0,0,0-.219.03h0l-.012-.012Zm.6-.751s.059,0,.071.012l.041.041a.353.353,0,0,1,.03.3.425.425,0,0,1-.089-.13.262.262,0,0,1-.03-.089.23.23,0,0,0-.012-.089V22.82h-.012Zm.81-.307V22.9a.25.25,0,0,0,.03.118.311.311,0,0,0,.071.089c.03.012.059.03.089.041h.118c-.1.03-.189.059-.3.089-.089.03-.177.041-.248.059h0V23.1a.7.7,0,0,1,.03-.189,1.478,1.478,0,0,1,.071-.266.651.651,0,0,1,.1-.148h0l.03.012Zm.426-.03v-.041h.071a.073.073,0,0,1,.041.012h0v.118a.172.172,0,0,1-.03.059c-.012.03-.041.041-.089.059v-.207Zm.278.526a1.282,1.282,0,0,0,.16-.16.567.567,0,0,0,.089-.219v-.041a.073.073,0,0,1,.012-.041h.071s.03.03.03.041a.266.266,0,0,0,.03.1.23.23,0,0,0,.012.089h0v.03s-.071.041-.13.071a1.406,1.406,0,0,1-.16.071l-.13.041h0l.012.012Zm-2.158-5.742a.543.543,0,0,1-.059.3c-.118.237-.237.467-.337.721l-.1.207h-.059a.7.7,0,0,1-.189-.03,8.619,8.619,0,0,0-2.921-.13,26.387,26.387,0,0,0-2.661.5c-.177.041-.337.071-.514.118s-.337.071-.514.118c-.485.1-.982.219-1.466.307-.3.059-.6.089-.911.13H16.9a1.1,1.1,0,0,1-.367.03.047.047,0,0,1,.03-.041h0a5.262,5.262,0,0,0,.615-1.029,2.555,2.555,0,0,0,.248-.911,3.217,3.217,0,0,0-1.236-2.832,2.8,2.8,0,0,0-1.662-.615,7.31,7.31,0,0,0-1.733.148,4.5,4.5,0,0,1-.911.1h-.071a1.962,1.962,0,0,1-.928-.278.081.081,0,0,1-.041-.041.561.561,0,0,1,.177-.148,10.24,10.24,0,0,0,1.632-1.029c.03.041.059.071.089.118a.44.44,0,0,0,.526.148,1.227,1.227,0,0,0,.337-.177c.278-.16.556-.337.851-.514l.278-.177a1.116,1.116,0,0,0,.13-.071l.041-.03a.45.45,0,0,0,.355.237.913.913,0,0,0,.514-.16c.248-.189.5-.367.81-.574a.483.483,0,0,1,.148-.059h.03a.782.782,0,0,0,.118-.03h.059a2.856,2.856,0,0,0,1.543-.674.216.216,0,0,1,.059-.041.744.744,0,0,0,.473.237V11.4a.9.9,0,0,0,.337.733.806.806,0,0,0,.633.177.54.54,0,0,0,.248-.1h.03s.012-.03.03-.03.041.03.071.041a.771.771,0,0,1,.089.059.106.106,0,0,1,.041.03h.03a.69.69,0,0,0,.81-.248c.207-.219.325-.544.692-.455a2.964,2.964,0,0,0,1.147.03s.16-.03.177-.03h.012a.4.4,0,0,0,.1-.03h.03l.041.089v.012a3.35,3.35,0,0,0,.367.556c.189.325.248.7.733.6a.962.962,0,0,0,.177-.041.15.15,0,0,0,.071-.012s.248.443.278.485a1,1,0,0,0,.5.307.218.218,0,0,1,.1.03l.03.071c.118.278.337.9.751.615a.731.731,0,0,0,.219-.207.511.511,0,0,0,.041-.059,1.423,1.423,0,0,0-.148.5,4.192,4.192,0,0,0-.089.556,2.493,2.493,0,0,0,.089,1.236c.059.13.207.307.177.443,0,.071-.059.148-.071.219a1.092,1.092,0,0,0,0,.278l.012.03Zm0-4.157a2.117,2.117,0,0,1-.355.781.234.234,0,0,1-.041.03.684.684,0,0,1-.118-.237c-.012-.041-.03-.089-.041-.118a.639.639,0,0,1-.03-.414,1.079,1.079,0,0,0,0-.514,2.083,2.083,0,0,1,.089-.94,2.758,2.758,0,0,1,.455-.81h0a.172.172,0,0,0,.03.059,6.013,6.013,0,0,1,0,2.158h.012Zm-.473-2.6a.106.106,0,0,1-.03.041c-.03.041-.041.071-.071.089a2.789,2.789,0,0,1,.662-2.85v.13c.012.118.03.237.03.355a3.661,3.661,0,0,1-.585,2.217V10.5Zm.426-3.175h0a1.928,1.928,0,0,1-.443.4.96.96,0,0,1-.189.1c0-.13-.012-.248,0-.367a1.708,1.708,0,0,1,.059-.5,2.347,2.347,0,0,1,.071-.3,2.05,2.05,0,0,1,.13-.337.3.3,0,0,1,.071-.118,1.7,1.7,0,0,1,.7-.5.453.453,0,0,1,.1-.03h.041a.288.288,0,0,1,.089.148.409.409,0,0,1,0,.266,3.416,3.416,0,0,1-.645,1.206v.03ZM30.891,9.2s.03.059.041.089A2.626,2.626,0,0,1,29.814,8.5,3.662,3.662,0,0,1,29.2,7.233c.059.041.1.1.16.148.089.071.177.16.266.237A4.3,4.3,0,0,1,30.891,9.2ZM29.879,6.6a.392.392,0,0,0,.1-.012.873.873,0,0,0,.207-.03,1.379,1.379,0,0,1,.473.414,1.671,1.671,0,0,1-.645.089c-.03-.089-.059-.189-.089-.278-.012-.059-.03-.118-.041-.177h0ZM32.6,20.029a4.013,4.013,0,0,0-.662,1.7,1.265,1.265,0,0,0-.13.059.961.961,0,0,1-.219-.177l-.03-.03h0a.458.458,0,0,1,.059-.071,1.755,1.755,0,0,0,.5-.781h0a.338.338,0,0,1,.13-.219.3.3,0,0,0,.13-.219c.089-.248.177-.514.248-.781v.219a.4.4,0,0,1-.071.278l.041.012Zm.089.4a6.074,6.074,0,0,1-.189,2.72v.012a2.658,2.658,0,0,1,.207-2.732h-.012Zm-2.832.1.1.1c.1.1.189.219.307.337a2.8,2.8,0,0,0,.13,1.058c.041.1.089.207.13.3h0a.468.468,0,0,0-.059.03.172.172,0,0,0-.059.03.073.073,0,0,0-.012-.041v-.03a9.6,9.6,0,0,0-.248-.952,6.084,6.084,0,0,0-.3-.822h0Zm-2.631-7.214a.817.817,0,0,0-.207.3v-.089c.041-.426.089-.869.118-1.295v-.237a.372.372,0,0,1,.041.307,2.653,2.653,0,0,0,.012,1.011h.03Zm0-3.424a2.9,2.9,0,0,1,.7,2.72A2.762,2.762,0,0,1,27.224,9.888Zm-.059-2.206h0a.962.962,0,0,1,.071-.278v-.03s.071-.118.118-.177c.071-.089.13-.177.219-.278h0a1.658,1.658,0,0,1,.071.3A9.666,9.666,0,0,1,27.893,8.3a2.894,2.894,0,0,1-.1,1.366c-.03-.012-.041-.03-.041-.041a4.215,4.215,0,0,1-.5-1.011,2.628,2.628,0,0,1-.071-.928h-.012Zm.674-.869a3.565,3.565,0,0,1,.97.928,2.122,2.122,0,0,1,.307,1.6,5.047,5.047,0,0,1-1.265-2.525h-.012Zm1.425,6.522a.733.733,0,0,0,.307-.237.546.546,0,0,1,.1.13c.03.041.059.1.089.148,0,0,.012.03,0,.041,0,.03-.041.03-.059.012-.071-.012-.1-.071-.148-.13-.307.307-.473.325-.692.041a.752.752,0,0,0,.4-.012h0Zm1.325-3.376h0a3.774,3.774,0,0,1-.059.574,2.906,2.906,0,0,1-.822-.851,1.43,1.43,0,0,1-.219-.851c0-.059.03-.1.059-.1h0a.365.365,0,0,1,.16.089h.03V8.83h0a2.928,2.928,0,0,0,.674.5.745.745,0,0,1,.1.237,1.012,1.012,0,0,1,.041.325h0v.059l.03.012Zm.7,5.641a1.464,1.464,0,0,1,.089-.237v-.012h.059l.03.03a1.578,1.578,0,0,1,0,.237.559.559,0,0,1-.485.455.668.668,0,0,1-.248-.03.7.7,0,0,1-.207-.148c-.041-.059-.118-.148-.118-.219v-.012s.059,0,.071.03c.03.03.059.041.089.071.16.118.4.248.574.089a.54.54,0,0,0,.13-.219l.012-.03Zm-.1-3.79a1.339,1.339,0,0,1,.177.1.792.792,0,0,1,.266.325A3.66,3.66,0,0,1,32,14.128a.475.475,0,0,1-.03.118.868.868,0,0,1-.473-.337,1.862,1.862,0,0,1-.266-.645,5.257,5.257,0,0,1-.041-1.437v-.012Zm-1.029.869c-.219,0-.266-.041-.355-.337a.86.86,0,0,1,.118.089.343.343,0,0,0,.443.071c.059-.03.13-.041.16.041.03.059-.03.118-.13.13h-.237Zm.041,1.159a.4.4,0,0,1-.118.03.335.335,0,0,1-.3-.189,3.033,3.033,0,0,1,.414.059s.03.03.03.041a.117.117,0,0,1-.012.059h-.012Zm-1.265.384.012-.012a.047.047,0,0,1,.041.03V14.3a.074.074,0,0,0,.03.059c.03.041.059.089.1.089h.118s.059-.041.071-.071c0,0,.012-.03.03-.03a.183.183,0,0,1,.041-.012c.041,0,.059.071.071.1s.03.059.041.1c.012.059.041.16.13.177a.117.117,0,0,0,.059-.012c.012,0,.03-.03.041-.041a1.2,1.2,0,0,1,.13-.189c.03-.03.059-.071.1-.071s.041.041.041.059a1.353,1.353,0,0,1-.3.443.157.157,0,0,1-.219,0,1.45,1.45,0,0,1-.148-.248v-.012h-.03c-.059.03-.13,0-.177,0a.073.073,0,0,1-.059-.03c-.012,0-.03-.03-.041-.041a.28.28,0,0,1-.059-.266l-.059-.059Zm.384,1.218s.03-.089.059-.089h0c.059.03.059.071.071.13a.962.962,0,0,0,.041.177c.03.071.059.16.16.177.089,0,.148-.041.189-.177.012-.041.012-.089.041-.118,0-.012.059-.03.089-.03s.059.041.059.059A.555.555,0,0,1,29.7,16a.23.23,0,0,1-.237-.059.5.5,0,0,1-.16-.367.649.649,0,0,1,.012-.148v.012Zm.674.781s.041-.059.059-.059c.148.012.118.237.148.337a.451.451,0,0,0,.118.266c.089.071.177,0,.237-.059.041-.059.071-.13.13-.16h.071a.06.06,0,0,0,.012.03,3.465,3.465,0,0,0,.177.367c.089.13.189.148.325.03.03-.012.041-.041.071-.071a.189.189,0,0,1,.089-.012c.071,0,.071.071.059.13a.386.386,0,0,1-.645.16c-.071-.059-.118-.148-.189-.219-.089.012-.16.041-.248.059A.3.3,0,0,1,30.1,16.9a.822.822,0,0,1-.13-.692l.03.012Zm1.354,3a.48.48,0,0,1-.751.337c-.16-.118-.207-.219-.207-.514.118.13.189.219.266.3a.252.252,0,0,0,.414-.03c.041-.041.059-.118.1-.16a.12.12,0,0,1,.118-.03c.03,0,.059.059.059.089v.012Zm-.822,1.969h0v-.012a3.323,3.323,0,0,1,1.147,1.939,2.921,2.921,0,0,1-.792-.751,1.851,1.851,0,0,1-.355-1.177Zm2.07-5.227c-.03.16-.059.325-.1.467a3.555,3.555,0,0,1-.266-2.407,2.668,2.668,0,0,1,.414,1.543c0,.118-.03.248-.03.4h-.012Zm-.13-3.524a1.751,1.751,0,0,0-.177-.118c-.148-.1-.307-.207-.455-.325a2.4,2.4,0,0,1-.751-1.041h0a4.234,4.234,0,0,1-.207-.781c.03.03.059.041.071.059l.13.118c.207.189.426.4.633.6a4.672,4.672,0,0,1,.485.633,1.606,1.606,0,0,1,.307.881.073.073,0,0,1-.041-.012v-.012ZM29.678,7.014a1.212,1.212,0,0,1-.16-.03,4.785,4.785,0,0,1-.645-.13A1.754,1.754,0,0,1,27.686,5.8c0-.03-.012-.041-.03-.071a3.136,3.136,0,0,1,1.839.851.709.709,0,0,1,.207.443H29.69ZM27.739,5.282h-.118a1.431,1.431,0,0,0-1.236.4h-.012a.755.755,0,0,1,.071-.325,1.424,1.424,0,0,1,.13-.219,1.155,1.155,0,0,1,.443-.367.586.586,0,0,1,.307-.071,1.381,1.381,0,0,1,.278.03.23.23,0,0,1,.177.219.652.652,0,0,1-.059.325l.012.012Zm-.81,9.768a2.947,2.947,0,0,1,.355-1.236l.071.177c.059.148.1.3.16.443a.5.5,0,0,1,.041.207,2.972,2.972,0,0,1-.13.881,7.025,7.025,0,0,1-.455.822,3.467,3.467,0,0,1-.041-1.307v.012Zm.514-2.554.071.089a4.174,4.174,0,0,1,.556.781,3.145,3.145,0,0,1,.237.526,3.564,3.564,0,0,1,.148.556c.03.219.041.455.059.692v.207a3.68,3.68,0,0,1-1.088-2.85h.012Zm.278,4.364s.03.03.03.041a4.923,4.923,0,0,0,.443.751,1.741,1.741,0,0,1,.207.674,4.188,4.188,0,0,1,0,1.218h0a3.1,3.1,0,0,1-.674-2.69Zm.645.514h0a2.073,2.073,0,0,0-.219-.384,1.224,1.224,0,0,1-.219-.6,2.938,2.938,0,0,1,0-.721,3.1,3.1,0,0,1,1.307,2.306h0a1.484,1.484,0,0,1-.544-.278.941.941,0,0,1-.278-.325h-.041Zm.355,1.555c.041.1.1.189.148.3a.188.188,0,0,1,0,.177h0a.228.228,0,0,1-.071-.012c-.03,0-.041-.012-.071-.03a3.434,3.434,0,0,1,.03-.426h-.03Zm.071-.574a3.822,3.822,0,0,1,.97.763,2.293,2.293,0,0,1,.585,1.5,4.877,4.877,0,0,1-1.555-2.265Zm.325,1.295s.089.148.13.219h0a11.834,11.834,0,0,1,.781,2.188v.089a1.618,1.618,0,0,1-.266-.266l-.041-.059a2.357,2.357,0,0,1-.6-1.1A2.421,2.421,0,0,1,29.117,19.65Zm4.115,1a3.99,3.99,0,0,1-.266-.556.522.522,0,0,1,0-.355,1.259,1.259,0,0,1,.1-.266,2.394,2.394,0,0,1,.514,1.147,1.157,1.157,0,0,1-.118.426,4.22,4.22,0,0,1-.219-.414l-.012.012Zm.03.633-.1.1a.766.766,0,0,1-.1.089c0-.03-.03-.041-.03-.071v-.544c.059.1.118.207.189.307l.059.1-.012.012Zm.148-3.305v.089a.248.248,0,0,1-.03.148,4.158,4.158,0,0,1-.485-2.466s0,.012.03.03a2.491,2.491,0,0,1,.5,2.217l-.012-.012ZM38.7,22.016a.877.877,0,0,0-.03-.148v-.03c.041,0,.071-.012.118-.012a11.13,11.13,0,0,1,2.176,0,13.191,13.191,0,0,1,2.69.514.976.976,0,0,1,.189.059h0a.247.247,0,0,1-.089.041,12.56,12.56,0,0,1-2.862,1.011,8.848,8.848,0,0,1-2.791.118,11.175,11.175,0,0,1-3.087-.81,1.265,1.265,0,0,1-.13-.059h0a23,23,0,0,1,2.809-.733.511.511,0,0,1,.041.059.485.485,0,0,0,.1.118.766.766,0,0,0,.4.266h0a.428.428,0,0,0,.355-.071A.374.374,0,0,0,38.7,22v.012ZM17.657,34.356a.6.6,0,0,1,.207-.012H21.9l24.09.118h.118a1.833,1.833,0,0,1,.266.012.3.3,0,0,1,0,.189v.059c-.059.5-.118.94-.189,1.407a36.216,36.216,0,0,1-1.295,5.434c-.325.97-.645,1.821-.982,2.6-.03.071-.071.148-.1.219H43.8l-23.3.041h-.219s-.03-.059-.041-.089c-.03-.059-.059-.13-.089-.207a34.2,34.2,0,0,1-1.573-4.772,44.129,44.129,0,0,1-.869-4.671,1.8,1.8,0,0,0-.03-.307h0l-.012-.03ZM36.916,50.309a1.127,1.127,0,0,1,.13.1.181.181,0,0,1,.071.059c.16.13.16.16.059.337l-.03.041h-.03s-.03,0-.059-.059c0,0,0-.03-.012-.03a.858.858,0,0,0-.5-.414.394.394,0,0,1-.266-.278.741.741,0,0,0-.071-.177,1.21,1.21,0,0,0-1.514-.633,3.894,3.894,0,0,0-.574.266,3.5,3.5,0,0,1-1.662.148c-.585-.03-1.177-.071-1.762-.16-.763-.118-1.466-.384-2.217-.574-.278-.071-.574-.13-.869-.189-.148-.03-.278-.059-.426-.089A5.22,5.22,0,0,1,26.1,48.3a5.783,5.783,0,0,1-.514-.278,1.936,1.936,0,0,1-.9-1.307.316.316,0,0,0-.03-.118.392.392,0,0,0-.237-.337,5.61,5.61,0,0,1-.615-.414,1.227,1.227,0,0,1-.473-.952h.03l20.128-.03h.059s0,.059-.012.071a24.956,24.956,0,0,1-2.176,3.8l-.041.041a1.068,1.068,0,0,1-.763-.13l-.13-.071c-.148-.089-.3-.177-.443-.248a.85.85,0,0,0-.84,0,.572.572,0,0,0-.325.337,1.358,1.358,0,0,0-.266.03h-.13a1.228,1.228,0,0,0-.733.367,1.355,1.355,0,0,1-.16.16,4.991,4.991,0,0,1-.574.544.364.364,0,0,0-.118.13.345.345,0,0,0,.041.455l.03-.059Zm13.5-30.363v.041a5.541,5.541,0,0,1-.384,1.236,4.06,4.06,0,0,1-.3.526,2.191,2.191,0,0,1-1.466,1,4.863,4.863,0,0,1-1.484.041,8.673,8.673,0,0,1-2.07-.544l-.071-.03a15.769,15.769,0,0,0-3.057-.751,14.213,14.213,0,0,0-1.733-.118,13.169,13.169,0,0,0-2.513.248,24,24,0,0,0-2.85.781.554.554,0,0,1-.485-.03,6.67,6.67,0,0,1-.751-.414.066.066,0,0,1-.041-.089.061.061,0,0,1,.03-.041A13.338,13.338,0,0,1,34.758,20.5a7.173,7.173,0,0,1,3-1.277,14.859,14.859,0,0,1,3.524-.207,34.259,34.259,0,0,1,3.7.443l.473.071c.822.13,1.673.266,2.5.426a3.783,3.783,0,0,0,1.265,0,2.281,2.281,0,0,0,1.118-.544l.148-.13a5.862,5.862,0,0,1-.089.645l.03.012ZM35.444,13.731a.806.806,0,0,0-.041-.248.871.871,0,0,1,.1-.041c.118-.059.219-.118.337-.189.03-.012.16-.148.207-.118v.012c.041.16.012.3.13.426a.424.424,0,0,0,.177.16.263.263,0,0,0,.189.012,1.094,1.094,0,0,0,.544-.248,2.143,2.143,0,0,0,.414-.384c.03-.041.059-.071.089-.118a.106.106,0,0,1,.03-.041,1.234,1.234,0,0,0,.089.367.247.247,0,0,0,.16.148.424.424,0,0,0,.189-.03,1.361,1.361,0,0,1,.189-.089c.071-.012.13,0,.189-.059a.421.421,0,0,0,.13-.16,1.772,1.772,0,0,0,.237-.514c0-.03.118.16.118.177a.278.278,0,0,0,.16.177.288.288,0,0,0,.219-.03.965.965,0,0,0,.16-.148c.16-.189.337-.384.5-.574a1.273,1.273,0,0,0,.207-.307c.047-.118,0-.237.059-.337a.668.668,0,0,0,.337-.089c.278.059.645.237.84.148a.061.061,0,0,0,.041-.03h.266a.735.735,0,0,1,.485.089.362.362,0,0,0,.041.1,1.422,1.422,0,0,0,.1.237.644.644,0,0,0,.7.307.6.6,0,0,0,.337-.219c.071.03.13.071.207.1a.511.511,0,0,0,.721-.237,1.543,1.543,0,0,0,.177-.674v-.3c.071-.03.148-.059.237-.1.059-.03.1-.041.16-.071a.106.106,0,0,1,.041.03c.03.012.059.041.1.059a2.607,2.607,0,0,0,1.555.526.38.38,0,0,1,.3.118,3.523,3.523,0,0,0,.751.544,4.542,4.542,0,0,0,.556.219.438.438,0,0,0,.585-.248c.059.041.118.071.177.118a7.392,7.392,0,0,0,1.573.851l.059.03c.118.041.207.071.278.03s.089-.1.118-.189a.106.106,0,0,1,.041.03,1.083,1.083,0,0,0,.148.089,8.288,8.288,0,0,0,1.248.733,4.927,4.927,0,0,0,.473.189,1.214,1.214,0,0,0,.325.059h.03a.315.315,0,0,0,.337-.307v-.1a2.981,2.981,0,0,1,.307.148.472.472,0,0,0,.13.071.059.059,0,0,1-.041.059.045.045,0,0,0-.012.03,3.228,3.228,0,0,1-.585.526,1.29,1.29,0,0,1-1.058.189c-.237-.059-.485-.13-.733-.189a6.867,6.867,0,0,0-1.5-.207h0a2.659,2.659,0,0,0-1.839.7,4.372,4.372,0,0,0-1.325,2.306,1.907,1.907,0,0,0,.13,1.189,3.867,3.867,0,0,0,.556.881c.03.041.071.089.1.13a.873.873,0,0,1-.16-.012l-.367-.059c-.278-.041-.556-.1-.84-.148-1.336-.219-2.661-.426-4.009-.574-.615-.059-1.248-.1-1.91-.1-.266,0-.544,0-.822.012h-.3v-.148a.616.616,0,0,1,.03-.1c.012-.041.03-.089.041-.148a.31.31,0,0,0-.071-.266.276.276,0,0,0-.266-.071.743.743,0,0,0-.544.367,2.363,2.363,0,0,0-.118.248c-.012.041-.03.089-.041.118s-.012.041-.03.071h0a.18.18,0,0,1-.278-.071,2.639,2.639,0,0,0-.266-.355.327.327,0,0,0-.248-.118.283.283,0,0,0-.237.16.893.893,0,0,0-.13.574v.041a.617.617,0,0,0-.1.03v-.03s-.059-.1-.089-.148l-.03-.059a1.478,1.478,0,0,0-.148-.207.3.3,0,0,0-.237-.1h0a.332.332,0,0,0-.237.13,1.419,1.419,0,0,0-.13.219.48.48,0,0,0-.6-.207,1.015,1.015,0,0,1-.071-.556,3.271,3.271,0,0,1,.059-.514,2.705,2.705,0,0,0-.071-1.218,1.517,1.517,0,0,0-.337-.6c-.071-.071-.13-.148-.189-.219-.03-.03-.059-.071-.089-.1a1.349,1.349,0,0,0,.237-.733c0-.03.03-.059.041-.089l.03-.03a.863.863,0,0,1,.071-.089.613.613,0,0,0,.1-.16.835.835,0,0,0,.1-.514l-.03.041Zm2.294-1.5c-.148-.012-.266,0-.325.148-.03.059-.059.13-.089.189s-.059.13-.089.189a.928.928,0,0,1-.674.5H36.52l-.041-.13c-.03-.1-.059-.207-.089-.325-.012-.059-.03-.1-.041-.16s-.03-.118-.041-.16-.012-.041-.03-.071a1.615,1.615,0,0,0,.248-.189c.041.118.237.148.355.059a.693.693,0,0,0,.219-.325.413.413,0,0,0,.692-.16.444.444,0,0,0,.544,0,.366.366,0,0,1,.16-.118c.089-.012.16.059.237.1a.423.423,0,0,0,.615-.307.358.358,0,0,0,.3.071v.13a1.116,1.116,0,0,1-.278.367c-.071.071-.148.16-.219.237a.274.274,0,0,1-.059.059.2.2,0,0,0-.03-.071.109.109,0,0,0-.03-.089v-.03a1.3,1.3,0,0,0-.1-.148.406.406,0,0,0-.219-.059.179.179,0,0,0-.16.189v.278h0a.49.49,0,0,1-.148.355h0l-.089.089a.623.623,0,0,1-.177.089h-.059v-.012h0c-.012-.16-.041-.325-.059-.467v-.041c-.03-.118-.089-.177-.189-.189h-.041l-.03.012ZM38.9,18.462a.73.73,0,0,1-.03.207h-.089a.678.678,0,0,1,.041-.13c.012-.03.03-.041.071-.071h0Zm-2.265.645a.442.442,0,0,1-.071.041H36.5a.493.493,0,0,1,.059-.207.314.314,0,0,1,.071.148V19.1Zm-1.514-1.6c0,.1-.071.13-.16.148a.161.161,0,0,1,0-.207c.012-.03.071-.041.1-.03S35.118,17.474,35.118,17.5Zm-.248.851a.661.661,0,0,1,.148.118c0,.012.03.041.041.059.071.13.13.278.189.414l.089.189.03.089h0a.182.182,0,0,0,.148.1.225.225,0,0,0,.13-.041.115.115,0,0,0,.059-.059c.012-.041.03-.089.041-.13a.23.23,0,0,1,.012-.089c0-.012.03-.041.03-.041v.266a.6.6,0,0,1-.059.219c-.041.012-.071.041-.118.059-.012,0-.03.012-.041.012h-.1a.179.179,0,0,1-.059-.012,2.552,2.552,0,0,1-.674-.5.52.52,0,0,1-.148-.307v-.248a.11.11,0,0,1,.03-.071c0-.012.03-.03.041-.041.03,0,.041-.012.071-.012a.23.23,0,0,1,.089.012l.041.03Zm-.3-1.585a.315.315,0,0,1-.3.1.234.234,0,0,1-.189-.177c.367-.1.414-.148.443-.526v-.089a.111.111,0,0,1,.118-.118.139.139,0,0,1,.13.118.75.75,0,0,1-.207.692Zm-.148,2.543.662.514-.13.089c-.177.118-.337.237-.514.355-.16.118-.325.248-.473.367-.059.041-.1.089-.16.13v-.514a2.681,2.681,0,0,0-.148-.982.176.176,0,0,0-.03-.089h0a1.615,1.615,0,0,0,.751.13ZM50.5,18.651a2,2,0,0,1-.928.792,2.523,2.523,0,0,1-1.041.177c-.071,0-.118,0-.16-.041a3.7,3.7,0,0,1-.9-1.147c-.219-.467-.219-.574.071-.982a5.527,5.527,0,0,1,.414-.485,1.126,1.126,0,0,1,.5-.307,4.227,4.227,0,0,1,2.04,2h0ZM55.169,15.4h.911s-.012.03-.03.03a5.582,5.582,0,0,1-1.437,1.189,3.059,3.059,0,0,1-1.526.4h-.03a7.161,7.161,0,0,1-1.88-.3c-.237-.059-.455-.13-.692-.189-.189-.059-.384-.118-.574-.16a4.92,4.92,0,0,0-.94-.177h-.148a1.706,1.706,0,0,0-1.236.526,1.737,1.737,0,0,1-.148.148,3.637,3.637,0,0,1,1.325-1.78,2.155,2.155,0,0,1,1.088-.367,5.79,5.79,0,0,1,1.5.16c.248.059.5.118.763.189a1.678,1.678,0,0,0,1.614-.337c.089-.071.16-.148.237-.207a.7.7,0,0,1,.118-.1l.13-.13v.03h0v.822c0,.207.071.278.278.278h.645l.03-.03Zm-.514-1.6c-.041-.177-.189-.207-.3-.237a.25.25,0,0,1-.118-.03,4.559,4.559,0,0,1-.645-.355c-.089-.059-.189-.13-.278-.189-.041-.03-.089-.071-.13-.1s-.1-.059-.118-.118v-.1a.349.349,0,0,0-.041-.118.63.63,0,0,1-.071-.16.045.045,0,0,1,.012.03v.012a2.831,2.831,0,0,0,1.325.721.457.457,0,0,0,.307,0c.041.059.1.1.148.16a.963.963,0,0,1,.3.544.6.6,0,0,1-.384-.059ZM35.692,8.688h0a1.2,1.2,0,0,0-.041-.16.79.79,0,0,1,0-.237,1.012,1.012,0,0,1,.089-.467l.071-.16-.16.089s-.1.041-.16.071c-.118-.13-.237-.266-.355-.384,0,0-.1-.118-.089-.118A1.626,1.626,0,0,0,35.3,7.31a.888.888,0,0,0,.751-.585,2.583,2.583,0,0,0,.1-.426,2.7,2.7,0,0,0-.1-1.07c-.1-.278-.189-.544-.325-.869a4.91,4.91,0,0,1-.367-1.354,2.571,2.571,0,0,1,.089-1.011,1.533,1.533,0,0,1,.615-.851,3.674,3.674,0,0,1,.7-.367A5.591,5.591,0,0,1,39.169.439a17.861,17.861,0,0,1,4.89.97,13.607,13.607,0,0,1,2.98,1.526c.81.556,1.673,1.159,2.572,1.733a62.344,62.344,0,0,1,5.83,4.287c1.295,1.07,2.673,2.217,4.228,3.524.1.059.189.118.278.177a1.2,1.2,0,0,1,.337.355h0c.6.544,1.159,1.088,1.673,1.614.219.237.455.485.662.733a5.045,5.045,0,0,1,.4.6l.071.118a1.411,1.411,0,0,1,.059.148.239.239,0,0,1-.13-.03.142.142,0,0,1-.059-.012,1.9,1.9,0,0,1-.692-.4c-.012-.237-.03-.248-.248-.485-.266-.3-.544-.574-.822-.869l-.307-.307a.745.745,0,0,1-.118-.118c-.041-.041-.089-.089-.148-.071-.059,0-.089.089-.089.148a.341.341,0,0,0,.118.207,3.913,3.913,0,0,1,.426.455,2.99,2.99,0,0,1,.148.266c.03.089.118.148.16.237a1.952,1.952,0,0,1-.851-.514c-.148-.148-.307-.278-.473-.414a2.193,2.193,0,0,1-.248-.207,1.161,1.161,0,0,0-.189-.148c-.03,0-.071-.03-.089,0a.089.089,0,0,0,0,.118,1.16,1.16,0,0,0,.367.514,1.963,1.963,0,0,1,.384.5.115.115,0,0,1,0,.089.11.11,0,0,1-.071.03.743.743,0,0,1-.207-.041,2.609,2.609,0,0,1-.426-.3c-.177-.148-.337-.325-.526-.455a5.045,5.045,0,0,0-.6-.4.659.659,0,0,0-.189-.071c-.03,0-.059,0-.071.03v.041a1.278,1.278,0,0,0,.089.266,1.194,1.194,0,0,1,.148.467v.059a.142.142,0,0,1-.059-.012c-.089-.041-.16-.1-.248-.148a1.648,1.648,0,0,1-.148-.1c-.4-.237-.721-.443-1.011-.615a1.559,1.559,0,0,0-.3-.13.214.214,0,0,0-.248.059.2.2,0,0,0,0,.248c.03.03.041.071.071.1s.059.089.089.13a.383.383,0,0,1,.071.148.871.871,0,0,1-.1-.041,6.583,6.583,0,0,1-1.1-.792.476.476,0,0,1-.13-.177,1.628,1.628,0,0,0-.266-.367c-.059-.071-.13-.148-.189-.207s-.059-.118-.071-.219a.871.871,0,0,0-.13-.337.061.061,0,0,1-.041-.03v-.012a.461.461,0,0,1,.03.237c-.012.077-.1.1-.177.118a2,2,0,0,1-1.662-.4.029.029,0,0,0,.03.03s0-.012-.03-.03a.106.106,0,0,0,.03.041.118.118,0,0,0,.059.071.5.5,0,0,1,.041.3c-.03.1-.248.03-.307,0a6.542,6.542,0,0,1-1.526-.851,3.18,3.18,0,0,0,1,1.206,1.242,1.242,0,0,0,.485.219.667.667,0,0,0,.237-.03l.03.03a1.508,1.508,0,0,1,.3.455h-.041l-.148-.059c-.148-.059-.307-.118-.455-.189a9.567,9.567,0,0,1-1.662-1.088.257.257,0,0,0-.13-.059c-.118.03-.148.278-.16.384h-.041c-.059-.03-.118-.041-.177-.071a6.852,6.852,0,0,1-1.484-.94L48.8,11.65a1.76,1.76,0,0,0-.148-.118.359.359,0,0,0-.189-.041.226.226,0,0,0-.177.089.214.214,0,0,0-.03.207.15.15,0,0,0,.059.1.254.254,0,0,1,.059.148H48.3a1.455,1.455,0,0,1-.514-.219c-.189-.13-.367-.278-.544-.414l-.1-.071a.922.922,0,0,0-.118-.1l-.041-.03a.235.235,0,0,0-.307-.059.376.376,0,0,1-.278.03h-.012a2.176,2.176,0,0,1-1.129-.485l-.13-.13c-.03-.03-.041-.059-.071-.089H45.04l-.03-.012a.34.34,0,0,0-.266.148.3.3,0,0,1-.207.118.765.765,0,0,1-.089-.1c-.071-.089-.177-.118-.237-.059-.012,0-.03.03-.03.03a.257.257,0,0,0-.089.16.618.618,0,0,0,0,.148v.03a1.919,1.919,0,0,1,.059.278v.307a.649.649,0,0,1-.012.148.561.561,0,0,1-.089.237c-.03.041-.059.089-.089.089a.26.26,0,0,1-.13-.03.061.061,0,0,1-.041-.03h-.03s-.071-.059-.1-.089L43.6,11.8a.433.433,0,0,0-.266-.071.331.331,0,0,0-.189.189v.03s-.03.059-.059.071a.146.146,0,0,1-.13.03.188.188,0,0,1-.148-.089.623.623,0,0,1-.1-.219.434.434,0,0,0-.3-.355.073.073,0,0,1-.041-.012,1.65,1.65,0,0,0-.3-.089,1.777,1.777,0,0,0-.355,0,.665.665,0,0,0-.16-.455c0-.012.03-.03.03-.03a1.135,1.135,0,0,0,.426-.012.29.29,0,0,0,.207-.325c-.012-.071-.059-.16,0-.189a.224.224,0,0,1,.089,0,.622.622,0,0,0,.6-.585,1.583,1.583,0,0,0-.237-.881,2.4,2.4,0,0,0-.692-.928,3.486,3.486,0,0,1,.473,1.614.584.584,0,0,1-.089.4.384.384,0,0,1-.6-.041.6.6,0,0,1-.248.455.483.483,0,0,1-.148.059,8.482,8.482,0,0,0-.6-1.614A.626.626,0,0,0,40.7,8.3c-.041-.071-.089-.16-.13-.237a.384.384,0,0,0,.219.089.389.389,0,0,0,.337-.337A.635.635,0,0,0,41,7.334a.691.691,0,0,0,.7.248.48.48,0,0,0,.248-.733.612.612,0,0,0,.662-.278.585.585,0,0,0-.118-.692c.266,0,.544,0,.81.012.13,0,.325-.03.325-.16a1.685,1.685,0,0,0,.721.3h.13a8.023,8.023,0,0,0,.5.763,1.264,1.264,0,0,1,.248,1.058.744.744,0,0,1-.414-.307,7.137,7.137,0,0,0-1.058-1.177,3.042,3.042,0,0,1,.733,2.087c-.089.041-.189-.03-.266-.118-.455-.556-.662-1.336-1.277-1.7.248.367.5.763.7,1.147a1.352,1.352,0,0,1,.16,1.384,9.441,9.441,0,0,0-1.129-1.78c.16.278.337.556.5.851a1.9,1.9,0,0,1,.337.792c.03.3-.16.426-.207.674-.1.721.9-.266.615-.337a.448.448,0,0,0,.5-.237,1.06,1.06,0,0,0,.071-.574.418.418,0,0,0,.485-.03.422.422,0,0,0,.148-.455.292.292,0,0,0,.414.118.441.441,0,0,0,.207-.414,1.036,1.036,0,0,0-.13-.455,4.016,4.016,0,0,0-1.041-1.325.458.458,0,0,0,.307-.384,1.478,1.478,0,0,0,.574.237.477.477,0,0,0,.5-.278c.059-.207-.089-.307-.148-.485.189-.03.337.219.526.237.03,0,.071,0,.089-.041V5.217a.88.88,0,0,0-.485-.7,5,5,0,0,0-.822-.355,2.627,2.627,0,0,1-.455-.207c-.177-.089-.355-.189-.526-.266,0,.089.16.189.219.237a2.848,2.848,0,0,0,.337.237,3.847,3.847,0,0,1,.733.526c.13.13.307.266.266.455a.4.4,0,0,1-.367.307,1.135,1.135,0,0,1-.7-.237.253.253,0,0,1-.177.337.741.741,0,0,1-.426-.041c-.207-.071-.4-.13-.6-.207a.232.232,0,0,1,0,.3.524.524,0,0,1-.443.041,5.919,5.919,0,0,1-1.248-.443c.148.219.4.384.526.615s.118.6-.148.692-.5-.177-.763-.237a1.264,1.264,0,0,1,.3.4.4.4,0,0,1-.089.455.518.518,0,0,1-.485.03c-.16-.059-.278-.189-.455-.219A.5.5,0,0,1,40.8,7.5c-.089.189-.355.177-.544.1a.475.475,0,1,1-.591.71h0a1.366,1.366,0,0,0,.367.556h0s.059.041.089.059a.507.507,0,0,0,.585-.059c.03.1.059.189.089.3a8.063,8.063,0,0,1,.071,1.555h0a.451.451,0,0,1-.118.266.342.342,0,0,1-.148.089.636.636,0,0,1-.13-.278c-.148-.645-.307-1.277-.455-1.922h0c.03.544.041,1.088.041,1.632a.9.9,0,0,1-.059.4.3.3,0,0,1-.16.16.481.481,0,0,1-.13-.248c-.089-.278-.16-.544-.248-.822a2.74,2.74,0,0,1,.03,1.029H39.4a.5.5,0,0,0-.059.071.632.632,0,0,0-.071.219.465.465,0,0,1-.355-.118.881.881,0,0,1-.177-.526c-.041-.355-.1-.7-.148-1.058.03.325.041.645.071.97a2.659,2.659,0,0,1-.012.574.58.58,0,0,1-.355.426.261.261,0,0,1-.177,0c-.118-.041-.148-.207-.16-.337-.012-.278-.03-.544-.041-.822a2.473,2.473,0,0,1-.207,1.265.378.378,0,0,1-.325.219h0l-.059-.041a.11.11,0,0,0-.03-.059v-.012c-.012-.041-.03-.071-.041-.118-.089-.278-.16-.544-.248-.822a2.79,2.79,0,0,1,.059.662.807.807,0,0,1-.13.544.631.631,0,0,1-.148.13.324.324,0,0,1-.337-.1.881.881,0,0,1-.177-.526c0-.1-.041-.207-.041-.307A.391.391,0,0,0,36.189,11v.177a1.566,1.566,0,0,0,.03.3,2.659,2.659,0,0,1-.012.574.58.58,0,0,1-.355.426.261.261,0,0,1-.177,0,.337.337,0,0,1-.16-.219,3.686,3.686,0,0,1-.059-.84v-.03h.03c.337-.071.367-.367.355-.645v0s0,.012.03.03a.487.487,0,0,0,.355.03,1.343,1.343,0,0,0,.325-.148.546.546,0,0,0,.13-.1.5.5,0,0,0,.03-.384.715.715,0,0,0,.721,0h0a.526.526,0,0,0,.118-.751h0l-.041-.041c-.012,0-.03-.03-.041-.041.012,0,.03.03.041.041s.03.03.041.041a.367.367,0,0,0,.5-.1.372.372,0,0,0-.071-.414.118.118,0,0,0,.071-.059c.118-.177-.189-.325-.266-.514.059.16.325.1.384-.059a.594.594,0,0,0-.118-.467.275.275,0,0,0,.414.03.442.442,0,0,0,.059-.443,1.157,1.157,0,0,0-.278-.367c.071.071.219,0,.248-.1a.476.476,0,0,0-.071-.307l-.307-.6c.071.012.148.041.237.059a.776.776,0,0,0-.13-.822c.089.012.16.03.248.041a1.688,1.688,0,0,0-.414-.97.727.727,0,0,1,.189.526.326.326,0,0,1-.426.266.644.644,0,0,1,.118.781.353.353,0,0,0-.059.16.288.288,0,0,0,.071.148.722.722,0,0,1,.041.733.254.254,0,0,0-.059.148c-.03.13.071.266.1.414.03.13-.13.325-.237.207a.492.492,0,0,1,0,.544.481.481,0,0,1-.237.089.485.485,0,0,1,0,.467.424.424,0,0,1-.325.16h-.118a1.53,1.53,0,0,1,.03.674c0,.041-.012.089-.059.1a.251.251,0,0,1-.1.03,1.019,1.019,0,0,1-.556-.118c-.03.1-.03.219-.059.337a.466.466,0,0,1-.207.3.655.655,0,0,1-.4.059c-.207-.012-.574-.089-.645-.307.414-.248.869-.633.692-1.189l-.089-.1Zm5.026.355c-.03-.089-.059-.189-.089-.278a.169.169,0,0,0,.041-.059c.012.1.03.219.041.325v.012Zm-5.889,4.849a.8.8,0,0,1,.059-.148H34.9a.06.06,0,0,1,.03.012.491.491,0,0,1-.071.443.421.421,0,0,1-.5.1,1.233,1.233,0,0,1-.089.177,1.28,1.28,0,0,1-.16.237.277.277,0,0,1-.325.071c-.1-.041-.16-.148-.237-.219a.283.283,0,0,1-.059-.1.056.056,0,0,1,.012-.041h.03c.041,0,.059.03.089.041.071.071.148.177.266.177.1,0,.16-.118.189-.207a2.6,2.6,0,0,0,.071-.337.469.469,0,0,1,.03-.148c0-.041.1-.059.13-.03s.059.089.089.13a.2.2,0,0,0,.325.03.429.429,0,0,0,.089-.148l.012-.041Zm-.248-.645v.1l-.041.059a.35.35,0,0,1-.071.1.968.968,0,0,1-.189.16.247.247,0,0,1-.248.012.412.412,0,0,1-.189-.16.446.446,0,0,1-.059-.1.127.127,0,0,1-.03-.118v-.041s.041-.012.059,0,.03.03.041.041a.241.241,0,0,1,.071.1.155.155,0,0,0,.071.089.241.241,0,0,0,.266.012c.1-.041.118-.16.189-.237l.03-.03a.139.139,0,0,1,.071,0h.03Zm-1.088-.414a.882.882,0,0,0,.237-.627v-.071s.03-.041.059-.041.041.03.059.041a1.392,1.392,0,0,1,.059.248c.03.089.089.177.189.177a.221.221,0,0,0,.219-.148c.03-.071.041-.189.13-.219a.134.134,0,0,1,.03.1.5.5,0,0,1-.071.189.318.318,0,0,1-.13.148c-.148.1-.307.03-.455-.03a1.6,1.6,0,0,1-.177.266c-.041.041-.189.177-.266.089-.041-.059.059-.118.089-.148l.03.03ZM28.6,4.4a.317.317,0,0,1,.248-.13h.118a1.738,1.738,0,0,1,.4.03.932.932,0,0,0,.721-.059H30.1a3.279,3.279,0,0,0,.307.118.413.413,0,0,0,.3-.041c.03,0,.041-.012.071-.03a.944.944,0,0,1,.544.952v.071a.668.668,0,0,1-.03.248.505.505,0,0,0,.207.514.265.265,0,0,0,.118.071.061.061,0,0,1,.041.03,3.372,3.372,0,0,1,.94.982,4.849,4.849,0,0,1,.443.97.279.279,0,0,0,.012.089v.03a1.36,1.36,0,0,1-.526.337.441.441,0,0,1-.325,0,.666.666,0,0,0-.248-.059.341.341,0,0,0-.16.03.786.786,0,0,1-.237,0h-.089c0-.148-.03-.278-.03-.414V7.948a.3.3,0,0,1-.03-.089V7.83a1.981,1.981,0,0,0-.94-1.585.558.558,0,0,0-.473-.1.541.541,0,0,0-.148.03h-.059a.286.286,0,0,1-.237-.071,3.018,3.018,0,0,0-1.4-.721h-.012a1.2,1.2,0,0,0-.03-.7.41.41,0,0,0,.1-.059,1.14,1.14,0,0,0,.355-.248l.03.03ZM9.533,13.247s-.089.148-.13.219a.9.9,0,0,1-.16.177c-.118.118-.248.237-.367.337a.763.763,0,0,1-.325.177H8.492l-.041-.041a1.461,1.461,0,0,1-.16-.443c0-.041-.012-.089-.041-.1-.189-.13-.4.384-.455.5a1.176,1.176,0,0,1-.485.414.321.321,0,0,1-.207.041v-.071a.469.469,0,0,1,.03-.148c0-.059.03-.13.03-.189a.311.311,0,0,0-.071-.189.2.2,0,0,0-.248,0,1.545,1.545,0,0,0-.118.1.169.169,0,0,1-.059.041,4.841,4.841,0,0,1-1.011.7c-.148.071-.307.13-.455.189a.65.65,0,0,1-.16.012H5.027a.21.21,0,0,1,0-.089c.071-.177.16-.355.237-.526v-.03s.059-.089.089-.13a.443.443,0,0,0,.059-.118.2.2,0,0,0-.041-.248.2.2,0,0,0-.248,0,1.168,1.168,0,0,0-.237.219c-.1.1-.189.207-.3.307-.118.13-.237.266-.367.4a1.539,1.539,0,0,1-.325.278,1.3,1.3,0,0,1-.556.278.512.512,0,0,1,.012-.189V15.08s.03-.059.041-.089a.89.89,0,0,0,.041-.189.255.255,0,0,0-.1-.177.188.188,0,0,0-.177,0,.77.77,0,0,0-.089.059l-.041.041c-.071.041-.148.1-.219.148a5.421,5.421,0,0,1-.473.307,10.813,10.813,0,0,0-1.129.692,1.535,1.535,0,0,1-.6.278H.533v-.03s.059-.13.089-.189a4.354,4.354,0,0,1,1.236-1.614l.041-.041c.207-.16.414-.325.615-.467a31.678,31.678,0,0,0,3.175-2.572l.455-.414c.928-.84,1.892-1.7,2.85-2.543,2.235-1.951,4.86-3.317,7.243-5.067a10.7,10.7,0,0,1,2.779-1.526c.177-.059.367-.118.544-.189C19.975,1.35,21.223.971,21.4.924a13.173,13.173,0,0,1,4-.4,5.746,5.746,0,0,1,1.5.237,3.944,3.944,0,0,1,.674.278,1.228,1.228,0,0,1,.615.9,1.743,1.743,0,0,1,.012.6c-.041.307-.1.6-.16.881a.4.4,0,0,1-.059.148s0,.03-.012.03l-.3-.041h-.325l-.03.03a.518.518,0,0,0-.071.041c-.041.03-.089.041-.13.071a.473.473,0,0,0-.219.574v.03s.03.089.041.13c0,.012-.03.03-.041.041s-.03.03-.041.03a.118.118,0,0,0-.071.059.964.964,0,0,1-.13.1,1.4,1.4,0,0,0-.248.207,1.288,1.288,0,0,0-.325,1.336.109.109,0,0,0,.03.089l-.03.089s-.041.118-.071.177a2.925,2.925,0,0,0-.089.325.249.249,0,0,1-.177-.059.53.53,0,0,1-.071-.443,1.1,1.1,0,0,1,.266-.514.243.243,0,0,1-.355-.177A.513.513,0,0,1,25.7,5.27c.059-.089.13-.177.189-.278a.248.248,0,0,1-.16-.012.329.329,0,0,1-.041-.307,1.315,1.315,0,0,1,.118-.307,6.454,6.454,0,0,1-.414.556,1.248,1.248,0,0,0-.337.751V5.7h.1a.351.351,0,0,0,.071-.03c.059-.03.13-.089.089.012-.03.071-.041.13-.071.207a1.956,1.956,0,0,0-.071.414,1.086,1.086,0,0,0,.03.307.266.266,0,0,0,.237.177,1.985,1.985,0,0,0-.278,1.129.163.163,0,0,0,.03.118v.03a.236.236,0,0,0,.089.089.188.188,0,0,0,.177,0,.738.738,0,0,0,.384-.248.485.485,0,0,0,.012.13c0,.03.03.059.041.089h-.03l.089.041H26.1c.059-.03.1-.059.16-.089h.03a2.121,2.121,0,0,1-.207.3l-.16.355V8.77a.4.4,0,0,1-.03.1c-.041.177-.071.384-.1.6-.012.118-.012.237-.012.367v.041a.593.593,0,0,0-.13.355,8.027,8.027,0,0,0,.059,2.129v.071a1.369,1.369,0,0,0,.13.307.873.873,0,0,1-.03.207v.03a.283.283,0,0,1-.118.237.5.5,0,0,1-.355-.325c-.012-.041-.041-.089-.059-.148s-.041-.118-.071-.177c-.118-.219-.207-.248-.426-.16h-.041a1.176,1.176,0,0,1-.177.089c-.207.041-.189-.177-.237-.307-.071-.219-.207-.414-.278-.633a4.231,4.231,0,0,1-.13-1.218c-.012-.355-.012-.721,0-1.07a6.409,6.409,0,0,0-.4,1.366.389.389,0,0,1-.237.325.326.326,0,0,1-.237,0c-.1-.059-.118-.207-.118-.325A3.279,3.279,0,0,1,23.05,9.7a3.036,3.036,0,0,1,.207-.645c-.177.325-.367.645-.544.97-.071.13-.03.266-.219.148a.6.6,0,0,1-.248-.455.377.377,0,0,1-.6.041.633.633,0,0,1-.089-.4,3.668,3.668,0,0,1,.473-1.614,2.442,2.442,0,0,0-.692.928,1.744,1.744,0,0,0-.237.881.622.622,0,0,0,.6.585h.089c.059.041.012.13,0,.189a.3.3,0,0,0,.207.325,1.025,1.025,0,0,0,.426.012l.03.03a.687.687,0,0,0-.118.674.487.487,0,0,1-.248-.089.6.6,0,0,0-.4-.13.475.475,0,0,0-.237.148,5.38,5.38,0,0,0-.526.662.291.291,0,0,1-.278.13c-.278-.059-.266-.556-.219-.763a1.7,1.7,0,0,0,.071-.384,1.026,1.026,0,0,0-.13.089.342.342,0,0,0-.089.148c-.071.148-.148.3-.219.443-.059.089-.13.278-.219.325-.041.03-.1.012-.148,0a.3.3,0,0,1-.118-.089,1.033,1.033,0,0,1-.207-1.041c.012-.071.041-.148,0-.207a.262.262,0,0,0-.089-.03c-.089,0-.248.148-.325.089a.315.315,0,0,1-.089-.13.12.12,0,0,0-.041-.071.236.236,0,0,0-.148-.118.217.217,0,0,0-.177.059.7.7,0,0,0-.148.148.566.566,0,0,1-.384-.6,6.155,6.155,0,0,1-1.733.574c-.177.03-.426,0-.455-.16a.418.418,0,0,1,.071-.219,2.3,2.3,0,0,1,.81-.733A6.088,6.088,0,0,1,15,9.941c-.237.03-.556-.012-.574-.248a.491.491,0,0,1,.118-.266,2.944,2.944,0,0,1,.792-.692,6.406,6.406,0,0,1-1.555.721.789.789,0,0,1-.674-.012A.343.343,0,0,1,13.051,9a1.209,1.209,0,0,1-.5.219,1.705,1.705,0,0,1-.6.059c-.071,0-.148,0-.189-.059-.177-.16.03-.467.177-.633a3.554,3.554,0,0,0-.6.721.444.444,0,0,0-.059.384c.1.189.426.118.585.071.118-.03.219-.059.337-.089.089-.03.16-.041.248-.071.041-.012.219-.059.237-.1-.13.325.219.662.574.662a1.679,1.679,0,0,0,.94-.384.35.35,0,0,0,.177.485.831.831,0,0,0,.574.012,5.416,5.416,0,0,0,.982-.307c-.118.307-.574.544-.426.84A.422.422,0,0,0,15.86,11a2.067,2.067,0,0,0,1.555-.325.6.6,0,0,1,.325-.148.7.7,0,0,1,.266.1.833.833,0,0,0,.266.041,1.855,1.855,0,0,1-.384.4,1.11,1.11,0,0,1-.7.219.346.346,0,0,1-.3-.089c-.077-.089-.189-.071-.3,0-.071.059-.13.13-.189.189-.041.059-.1.1-.148.16A1.838,1.838,0,0,1,15.5,12h-.03a.333.333,0,0,1-.059.012.068.068,0,0,1-.059-.041V11.78c0-.1-.041-.189-.13-.207a.363.363,0,0,0-.207.03l-.367.248c-.3.207-.585.414-.9.615a1.987,1.987,0,0,1-.355.189.822.822,0,0,1-.189.071c-.1.012-.13,0-.16-.089a.089.089,0,0,0-.03-.071.553.553,0,0,0-.041-.13.213.213,0,0,0-.13-.118.375.375,0,0,0-.177.03c-.059.041-.118.1-.177.148l-.041.041a5.911,5.911,0,0,1-.97.751c-.325.189-.674.3-1.011.455h-.041s-.059-.012-.071-.041c-.148-.13-.3-.266-.443-.4-.089-.089-.248-.219-.367-.089l.041.03Zm4.583,3.187c-.237.059-.473.1-.7.16-.355.089-.7.177-1.07.248a7.5,7.5,0,0,1-.9.148,2.388,2.388,0,0,1-1.425-.266,4.585,4.585,0,0,1-1.437-1.218H9.828c.16,0,.266-.012.337-.089a.411.411,0,0,0,.03-.337c-.041-.207-.089-.414-.13-.615-.03-.13-.059-.278-.089-.414v-.03a.963.963,0,0,1,.13.1,4.73,4.73,0,0,0,.94.544,2.323,2.323,0,0,0,1.177.13c.248-.03.5-.071.733-.118.13-.03.278-.041.414-.071a4.858,4.858,0,0,1,1.295-.041,2.3,2.3,0,0,1,1.354.585A2.817,2.817,0,0,1,17,17.031a1.646,1.646,0,0,0-1.384-.751,6.28,6.28,0,0,0-1.514.189l.012-.041Zm-.207,2.483v-.13h0a1.3,1.3,0,0,1,.337-.556c.148-.148.307-.3.455-.426h0c.089-.089.177-.16.278-.248.118-.1.248-.207.367-.307a1.459,1.459,0,0,0,.426-.544,1.027,1.027,0,0,1,.881.574,1.645,1.645,0,0,1,.16.84.375.375,0,0,1-.041.16,3.987,3.987,0,0,1-.851,1.277,5.569,5.569,0,0,1-2.04-.6v-.012l.03-.012ZM17.036,22.9h0a5.45,5.45,0,0,1-1.484-.414A2.6,2.6,0,0,1,14.2,21.1a4.487,4.487,0,0,1-.355-1.632v-.1a1.266,1.266,0,0,1,.13.059l.1.041a6.123,6.123,0,0,0,1.366.426,5.85,5.85,0,0,0,1.236.071,13.953,13.953,0,0,0,2.365-.367l.7-.16c.792-.177,1.614-.355,2.424-.526a9.493,9.493,0,0,1,2.04-.219h.059a9.926,9.926,0,0,1,2.365.337c.248.059.5.148.733.219.13.041.266.089.4.118a.44.44,0,0,1,.278.207,2.823,2.823,0,0,0,.266.384c.03.041.071.089.1.13l.03.041.059-.03a.256.256,0,0,0,.13-.248c0-.041,0-.089.03-.1.03.012.041.03.071.041l.059.041v.585a2.475,2.475,0,0,0,.337,1.07,4.367,4.367,0,0,0,.556.721l.059.059a.365.365,0,0,1-.118-.012,26.847,26.847,0,0,0-2.891-.574,13.767,13.767,0,0,0-3.642-.071,13.139,13.139,0,0,0-2.117.455,28.311,28.311,0,0,1-2.891.674c-.278.041-.556.089-.84.13a1.338,1.338,0,0,1-.219,0v.012ZM15.83,24.836c.207.1.4.219.6.325.16.089.325.177.485.266v.059a56.345,56.345,0,0,0,.059,6.126.089.089,0,0,1-.059-.012c-.089-.059-.189-.118-.278-.177-.071-.041-.13-.089-.207-.13a30.1,30.1,0,0,1-.6-6.451Zm-.674,6.185V30.98h.012a.217.217,0,0,1,.1.059c.177.1.337.219.514.325.355.237.721.455,1.07.674a.319.319,0,0,1,.177.3,46.252,46.252,0,0,0,.633,4.937,34.653,34.653,0,0,0,.982,4.039,22.85,22.85,0,0,0,1.336,3.631,26.535,26.535,0,0,0,4.186,6.315c.041.059.089.1.148.177A9.043,9.043,0,0,1,23.1,52.71c-.041,0-.071-.041-.1-.089a.169.169,0,0,1-.041-.059,21.21,21.21,0,0,1-4.571-6.422,34.182,34.182,0,0,1-2.525-7.77,34.678,34.678,0,0,1-.574-4.246c-.071-1.011-.118-2-.118-2.939V30.98l-.012.041ZM7.605,19.65v-.071h0a.739.739,0,0,1,.1.071c1.277.911,2.643,1.839,4.068,2.75h.03s.089.071.13.1a.5.5,0,0,1,.189.384c.041,1.011.118,2.206.207,3.424.03.485.089.97.13,1.425.03.248.059.5.071.763v.1a.7.7,0,0,1,0,.248c-.3-.177-.574-.367-.869-.544l-1.526-.97c-.952-.6-1.91-1.218-2.862-1.821.071-2.235.16-4.1.266-5.848L7.6,19.65Zm-1.951.414c-.81-.982-1.614-2-2.436-3,.6.207,1.206.414,1.809.615.615.219,1.248.426,1.88.645.071.207.13.4.207.6l.1.278v.355a1.635,1.635,0,0,1-.03.384,10.175,10.175,0,0,1-1.514.089l-.012.03Zm-.763,5.452H4.022a.375.375,0,0,1-.337-.16c-.307-.384-.633-.751-.94-1.129-.189-.219-.384-.455-.574-.674-.219-.266-.443-.526-.674-.792l-.514-.6a.862.862,0,0,0-.071-.089.117.117,0,0,1,.059.012.056.056,0,0,1,.041.012c.781.307,1.573.6,2.365.911.177.059.337.13.514.189.414.16.822.325,1.236.467a.313.313,0,0,1,.237.278,2.6,2.6,0,0,0,.089.384c0,.041.03.089.03.13a1.947,1.947,0,0,1-.012,1.041H5.429c-.189.012-.384,0-.556,0l.03.012Zm6.067,27.85h0s-.118-.118-.177-.189l-.03-.041a16.352,16.352,0,0,1-1.981-3.2,28.159,28.159,0,0,1-1.555-4.186A38.184,38.184,0,0,1,6.038,40.47c-.177-1.206-.325-2.454-.414-3.749-.1-1.5-.148-3.116-.118-4.949.012-1.147.071-2.277.177-3.365.071-.911.16-1.821.248-2.72l.03-.307A.6.6,0,0,1,6,25.114h.03c1.543.982,3.087,1.951,4.612,2.939l.443.278.03.03a.06.06,0,0,0,.012.03h0v.177c-.059,1.514-.041,3.1.03,4.7a35.133,35.133,0,0,0,.721,5.83,35.546,35.546,0,0,0,2.058,6.522,39.648,39.648,0,0,0,2.247,4.571,18.011,18.011,0,0,0,2.347,3.288c.266.3.544.556.81.84l.4.4.177.177a.948.948,0,0,1-.207.089H19.65a8.8,8.8,0,0,1-2.525.544,7.463,7.463,0,0,1-2.436-.237,8.424,8.424,0,0,1-1.7-.674,14.874,14.874,0,0,1-2.028-1.277v.03ZM30.364,65.855a.661.661,0,0,1-.455.426v-.16h0a2,2,0,0,1,.012-.266,1.062,1.062,0,0,1,.059-.426h.1a.389.389,0,0,1,.266.148.377.377,0,0,1,.012.3v-.012Zm.177-3.057-.03.467c-.041.585-.089,1.189-.16,1.78h-.089a1.876,1.876,0,0,0-.7,0,4.016,4.016,0,0,1-1.159-.012.78.78,0,0,1-.248-.071.293.293,0,0,1-.189-.384.564.564,0,0,1,.248-.384,3,3,0,0,1,.414-.207l.266-.089a.976.976,0,0,0,.189-.059,1.173,1.173,0,0,0,.307-.13.341.341,0,0,0,.177-.207.356.356,0,0,0-.071-.278.609.609,0,0,0-.219-.207,2.93,2.93,0,0,0-.473-.266,5.219,5.219,0,0,0-1.78-.443c-.248-.012-.5-.03-.781-.03h-.207s0-.059.03-.071c.089-.16.189-.325.278-.485.118-.189.237-.384.337-.585A21.136,21.136,0,0,0,28.8,55.992a1.923,1.923,0,0,0,.071-.307.277.277,0,0,0-.03-.148c-.041-.03-.089-.071-.13-.1a.727.727,0,0,0-.16.012,1.105,1.105,0,0,0-.189.118l-.059.041a27.379,27.379,0,0,1-2.436,1.466,12.616,12.616,0,0,1-3.234,1.1,10.639,10.639,0,0,1-2.98.118,12,12,0,0,1-6.593-2.821c-.248-.207-.485-.414-.7-.633l-.189-.177h.012a10.2,10.2,0,0,0,1.762.851,7.96,7.96,0,0,0,3.642.426,9.9,9.9,0,0,0,1.969-.414,8.3,8.3,0,0,0,2.6-1.384,17.591,17.591,0,0,0,2.324-2.146c.059-.071.13-.13.189-.207h.012a35.919,35.919,0,0,0,4.039,3.642c.03,0,.041.012.071.03s.041.041.059.071c.645.5,1.325.982,2.01,1.455-.041,1.792-.13,3.7-.3,5.818l-.012-.03Zm-2.407.13a.609.609,0,0,1,.3.1c.03,0,.059.03.071.03l.071.03a1.408,1.408,0,0,1,.473.278.97.97,0,0,1-.3.1,1,1,0,0,0-.219.059c-.1.041-.219.089-.325.13l-.16.071a3.8,3.8,0,0,1,.089-.822v.012ZM32.2,57.275a.441.441,0,0,1-.071.041.774.774,0,0,1-.237-.13l-.041-.03a37.555,37.555,0,0,1-4.115-3.027c-.1-.089-.207-.177-.307-.278l-.1-.089a1.547,1.547,0,0,1,.94-1.336c.041-.012.1-.03.16-.041h.1a.78.78,0,0,1,.177-.041.735.735,0,0,0,.645-.721.568.568,0,0,1,.219-.414.489.489,0,0,1,.544-.118.746.746,0,0,0,1.029-.355c0-.012.03-.041.041-.059h.03c.089-.03.3.059.414.041a3.7,3.7,0,0,0,.384-.071c.3-.03.556-.16.851-.177H33.1a2.858,2.858,0,0,1,.7.177c.13.059.177.16.307.237a.42.42,0,0,0,.443-.089c.03-.012.041-.041.071-.071l.059-.059a.542.542,0,0,1,.148-.1.4.4,0,0,1,.367,0,.349.349,0,0,1,.189.325.23.23,0,0,1-.012.089c0,.03-.03.041-.041.071s-.03.059-.041.089c-.118.237-.1.266.118.414a.172.172,0,0,1,.071.207c-.03.071-.041.148-.071.219l-.03.089-.041.1a.659.659,0,0,0-.071.189.435.435,0,0,0,.207.544,1.983,1.983,0,0,0,.219.118l.059.03c.325.16.443.219.307.692-.041.13-.089.278-.13.414-.03.1-.071.189-.1.3a.487.487,0,0,1-.189.266c-.118.089-.237.189-.355.278-.189.148-.384.307-.574.455-.751.556-1.484,1.1-2.324,1.7-.059.041-.1.071-.16.118l-.012.012Zm1.951,8.988a.707.707,0,0,1-.455-.585h.03s.071-.089.118-.1c.041-.03.1-.059.148-.089h.03a.179.179,0,0,1,.03.059,2.081,2.081,0,0,1,.089.733l.012-.012Zm12.707-8.45a10.239,10.239,0,0,1-3.642.367,15,15,0,0,1-4.979-1.336A23.016,23.016,0,0,1,35.8,55.6h-.03a1.892,1.892,0,0,0-.219-.13.205.205,0,0,0-.177.012.2.2,0,0,0-.089.16,2.74,2.74,0,0,0,.041.307,21.632,21.632,0,0,0,1.354,3.832c.384.81.81,1.614,1.265,2.377,0,.03.03.041.041.071a.472.472,0,0,1,.071.13,1.536,1.536,0,0,1-.367.03h-.059c-.355.012-.692.03-1.041.059l-.585.03a2.226,2.226,0,0,0-.928.237,1,1,0,0,0-.426.307.425.425,0,0,0,.059.662,2.106,2.106,0,0,0,.367.248,3.311,3.311,0,0,1,.9.733.683.683,0,0,1,.089.118v.03c-.059.219-.089.219-.278.207a1.309,1.309,0,0,1-.355-.059,2.152,2.152,0,0,0-1.7.219c-.012,0-.03.012-.041.012h-.012a.133.133,0,0,0-.012-.041h0a3.1,3.1,0,0,0-.03-.414c-.03-.763-.059-1.526-.089-2.294-.012-.5-.041-1.011-.059-1.514-.041-1.218-.1-2.454-.16-3.69V57c.089-.059.177-.13.266-.189,1.295-.94,2.395-1.809,3.376-2.643a33.25,33.25,0,0,0,2.454-2.324.765.765,0,0,1,.16-.148.45.45,0,0,1,.118.118.106.106,0,0,0,.03.041,15.206,15.206,0,0,0,1.295,1.484,8.5,8.5,0,0,0,4.553,2.407,8.962,8.962,0,0,0,5.008-.4,6.9,6.9,0,0,0,1.673-.94A12.1,12.1,0,0,1,46.9,57.783h-.03ZM36.076,64.187a4.283,4.283,0,0,0-.851-.645,3.008,3.008,0,0,1-.248-.177.045.045,0,0,1-.012-.03v-.03a1.667,1.667,0,0,1,.219-.189.781.781,0,0,1,.207-.089,1.443,1.443,0,0,1,.3-.071h.03A3.113,3.113,0,0,1,36.07,64.2l.012-.012ZM58.51,33.635c-.012,1.555-.089,3.1-.237,4.571a42.384,42.384,0,0,1-.84,5.363,28.237,28.237,0,0,1-2.01,6.025c-.219.485-.485.97-.751,1.455a10.026,10.026,0,0,1-3.057,3.288,6.917,6.917,0,0,1-2.779,1.088,9.119,9.119,0,0,1-4.216-.3c-.1-.03-.189-.059-.307-.1a.346.346,0,0,1,.089-.118.169.169,0,0,0,.041-.059c.7-.763,1.366-1.555,1.969-2.347A25.24,25.24,0,0,0,49.5,47.158a42.392,42.392,0,0,0,2.643-8.45,39.61,39.61,0,0,0,.6-3.95,49.86,49.86,0,0,0,.219-5.937v-.307c1.869-1.159,3.642-2.336,5.144-3.347a.855.855,0,0,1,.03.278v.041c.071,1.325.148,2.661.219,3.979.089,1.543.118,2.909.1,4.175H58.5Zm1.78-8.095c-.307,0-.6,0-.9-.03-.248,0-.5-.03-.751-.03a1.3,1.3,0,0,1,0-.822c.041-.118.089-.219.13-.337.089-.207.16-.414.248-.615a.339.339,0,0,1,.237-.219c.751-.248,1.514-.514,2.265-.763l.97-.325.633-.219.148-.059c-1,1.147-2,2.277-3,3.406l.012.012Z" transform="translate(-0.002 0.026)" fill="#fff"/>
    <g id="Grupo_1083643" data-name="Grupo 1083643" transform="translate(20.841 24.756)">
      <path id="Trazado_797369" data-name="Trazado 797369" d="M56.967,50.4a.767.767,0,0,0,.13.248.405.405,0,0,1,.071.3.782.782,0,0,0,.473.792,1.2,1.2,0,0,0,1.118.012c.071-.03.16-.071.219-.1.16.041.3.1.426.13a1.016,1.016,0,0,0,.84-.1.487.487,0,0,1,.426-.071c.071.012.16.012.237.03a1.165,1.165,0,0,0,1-.4.745.745,0,0,1,.118-.118h.266a7.419,7.419,0,0,0,.81-.03,1.492,1.492,0,0,0,1.218-.763c.041-.071.089-.148.13-.207.041,0,.071-.012.1-.012a1.373,1.373,0,0,0,1.265-.982,2.638,2.638,0,0,0,.118-.645v-.237c.1-.089.189-.16.278-.237A1.048,1.048,0,0,0,66.535,47a2.013,2.013,0,0,0-.148-.426,2.754,2.754,0,0,0-.13-.266c.041-.1.089-.207.13-.325a1.053,1.053,0,0,0,.041-.674.951.951,0,0,0-.733-.733.907.907,0,0,0-.982.307.789.789,0,0,0-.148.207.439.439,0,0,1-.3.219.986.986,0,0,0-.733.7.223.223,0,0,1-.1.16c-.13.118-.266.248-.4.355-.266.03-.526.059-.781.1a.447.447,0,0,1-.384-.059,1.806,1.806,0,0,0-.633-.266,2.08,2.08,0,0,0-1.7.443,3.514,3.514,0,0,0-1.029,1.325,1.951,1.951,0,0,0-.16,1.118.4.4,0,0,1,0,.248,1.265,1.265,0,0,1-.13-.059.92.92,0,0,0-.556-.1.813.813,0,0,0-.692,1.088V50.4Zm8.048-5.434a.576.576,0,0,1,.367-.148.74.74,0,0,1,.7.384.686.686,0,0,1,.1.414.623.623,0,0,1-.13.4,5.87,5.87,0,0,0-.6-.426,4.449,4.449,0,0,0-.662-.278c.012-.148.13-.219.219-.307v-.03ZM59.7,46.975a1.929,1.929,0,0,1,1.4-.414,1.436,1.436,0,0,1,.911.455,3.54,3.54,0,0,1,.7,1.029,1.519,1.519,0,0,0,.118.207H62.9l.03-.03a.277.277,0,0,0-.03-.148,3.509,3.509,0,0,0-.473-.94,1.541,1.541,0,0,1-.118-.177c.012-.071.071-.071.118-.089a1.872,1.872,0,0,1,.81,0,1.114,1.114,0,0,1,.674.514,2.97,2.97,0,0,1,.219.485c.041.118.1.16.148.13.071-.041.041-.118.03-.177a1.681,1.681,0,0,0-.763-1.1,1.647,1.647,0,0,1-.148-.1v-.03c0-.118.089-.148.189-.177a1.491,1.491,0,0,1,1.325.307c.071.059.148.13.219.189h.089a.616.616,0,0,1,.03-.1h0a1.674,1.674,0,0,0-1.088-.662,1.042,1.042,0,0,1-.355-.041.54.54,0,0,1,.248-.443.84.84,0,0,1,.645-.189,1.528,1.528,0,0,1,1.295.869c.041.071.089.13.118.189a2.33,2.33,0,0,1,.13.325.858.858,0,0,1-.307,1c-.1.071-.248.118-.278.237a1.284,1.284,0,0,0,0,.337,1.708,1.708,0,0,1-.059.5,1.08,1.08,0,0,1-.674.763,1.439,1.439,0,0,1-.526.118.233.233,0,0,0-.207.118,2.112,2.112,0,0,1-.16.266,1.219,1.219,0,0,1-.928.556,5.1,5.1,0,0,1-1.041,0c-.03,0-.041-.03-.089-.041a.96.96,0,0,1,.1-.189,2.56,2.56,0,0,0-.307-2.909,2.19,2.19,0,0,0-.721-.556,1.511,1.511,0,0,0-1.4,0,.4.4,0,0,0-.1.03.471.471,0,0,1,.16-.177l-.012.071Zm.81,3.276a3.965,3.965,0,0,1,.3.455.624.624,0,0,0,.089.177.13.13,0,0,0,.118.03c.041,0,.059-.059.071-.1a.466.466,0,0,0-.012-.118,1.9,1.9,0,0,0-.485-.733,2.793,2.793,0,0,0-.307-.207.275.275,0,0,1-.177-.207,1.544,1.544,0,0,1-.071-.733.28.28,0,0,1,.041-.16.905.905,0,0,1,1.177-.6,1.449,1.449,0,0,1,.556.278.459.459,0,0,1,.13.148,2.22,2.22,0,0,1-.278,2.188,1.329,1.329,0,0,1-.7.467.452.452,0,0,0-.307.189.387.387,0,0,1-.148-.03.259.259,0,0,0-.266.059l-.071.041a.726.726,0,0,1-.7.118c-.089-.03-.177-.059-.278-.089a1.185,1.185,0,0,0,.1-.544,1.141,1.141,0,0,0-.207-.485.917.917,0,0,1,1.455-.16l-.012.012Zm-1.88.13a.06.06,0,0,1,.03.012.992.992,0,0,1,.337.443.527.527,0,0,1-.13.5.972.972,0,0,1-1.218.089.51.51,0,0,1-.177-.633.692.692,0,0,1,.13-.219.677.677,0,0,1,.443-.248.789.789,0,0,1,.6.071l-.012-.012Zm-.7-.822a.527.527,0,0,1,.443.426c-.219.041-.414.089-.585.13a1.181,1.181,0,0,0-.455.355.552.552,0,0,1-.03-.674.606.606,0,0,1,.633-.237Z" transform="translate(-44.106 -42.943)" fill="#fff"/>
      <path id="Trazado_797370" data-name="Trazado 797370" d="M35.728,48.316a1.891,1.891,0,0,0,.03.219,1.959,1.959,0,0,0,.337.9,1.558,1.558,0,0,0,.781.615.606.606,0,0,1,.325.219,2.594,2.594,0,0,0,.556.526,1.715,1.715,0,0,0,1.384.266c.041-.012.089-.012.148-.03a1.025,1.025,0,0,1,.118.089.764.764,0,0,1,.1.089,1.839,1.839,0,0,0,1.336.414h.118a1.13,1.13,0,0,1,.485.041,1.256,1.256,0,0,0,.881-.012c.089-.03.16-.071.248-.03a.368.368,0,0,0,.455-.148,1.082,1.082,0,0,0,.089-.148,1,1,0,0,1,.207.059,1.442,1.442,0,0,0,.851-.012.457.457,0,0,0,.355-.467.452.452,0,0,0-.307-.443c-.071-.03-.16-.059-.266-.1-.012-.118-.041-.248-.059-.384a.833.833,0,0,0-.526-.692c-.059-.03-.13-.071-.189-.1V48.63a2.576,2.576,0,0,0-1.614-2.247,1.566,1.566,0,0,0-1.011-.1,3.4,3.4,0,0,0-.7.237.441.441,0,0,1-.384.03,1.886,1.886,0,0,0-.851-.089H38.4a1.16,1.16,0,0,0-.4-.467c0-.041-.012-.059-.012-.089a.688.688,0,0,0-.473-.662.281.281,0,0,1-.148-.16,1.7,1.7,0,0,0-.337-.426.77.77,0,0,0-.585-.207,1.056,1.056,0,0,0-.84.455,1.235,1.235,0,0,0-.237.81,3.036,3.036,0,0,1-.071.952,1.37,1.37,0,0,0,.337,1.354.41.41,0,0,1,.118.278l-.012.03Zm3.909-1.336a.724.724,0,0,1,.148-.13,2.335,2.335,0,0,1,1.07-.325,1.25,1.25,0,0,1,.514.071,2.419,2.419,0,0,1,1.466,1.514,2.45,2.45,0,0,1,.089.928v.041c-.1-.012-.089-.089-.089-.13a2.6,2.6,0,0,0-.177-.84,1.493,1.493,0,0,0-.414-.615,1.575,1.575,0,0,0-2.395.248,2,2,0,0,0-.355,1.407,3.109,3.109,0,0,0,.662,1.526c.071.1.16.118.219.071s.059-.118,0-.207c-.03-.059-.071-.1-.1-.16a3.611,3.611,0,0,1-.307-.556.41.41,0,0,1,.384-.278c0,.1-.03.177-.03.266a.125.125,0,0,0,.1.118c.041,0,.118-.012.13-.071s.03-.13.041-.189a.359.359,0,0,1,.4-.307h.059a.277.277,0,0,0,.355-.16.7.7,0,0,1,.633-.337.658.658,0,0,1,.514.219.683.683,0,0,1,.089.118.277.277,0,0,0,.237.059,1.187,1.187,0,0,0,.1.16,1.561,1.561,0,0,0,.16.059c.071.03.148.059.207.089a.547.547,0,0,1,.3.4c.03.118.041.248.059.367a.65.65,0,0,0,.012.16.171.171,0,0,0,.16.148,2.4,2.4,0,0,1,.278.071.168.168,0,0,1,.118.177c0,.1-.03.189-.13.219a1.108,1.108,0,0,1-.574.059c-.13-.03-.266-.089-.384-.118-.089-.012-.177-.03-.248-.041-.089,0-.13.059-.118.16,0,.03.012.059.012.089a.1.1,0,0,1-.1.118,2.071,2.071,0,0,1-.266-.041.386.386,0,0,0-.3.071.418.418,0,0,1-.414.071,1.6,1.6,0,0,1-.355-.1.61.61,0,0,0-.307-.03,3,3,0,0,1-.514.03,1.394,1.394,0,0,1-.911-.384.311.311,0,0,1-.071-.089,1.687,1.687,0,0,0-.237-.426,3.464,3.464,0,0,1-.177-.325,2.617,2.617,0,0,1-.118-2.176,3.47,3.47,0,0,1,.6-1h-.041Zm1.484,2.1a.3.3,0,0,1-.089.03,1.117,1.117,0,0,0-.485.13,4.5,4.5,0,0,1-.473.1,2.125,2.125,0,0,0-.219.13,1.533,1.533,0,0,1-.071-.869,1.587,1.587,0,0,1,.455-.881,1.249,1.249,0,0,1,.81,1.011,3.2,3.2,0,0,0,.089.337h-.012Zm-5.57-2.466a2.191,2.191,0,0,0,.071-.763v-.4a.859.859,0,0,1,.615-.692.548.548,0,0,1,.585.13.765.765,0,0,1,.148.16c-.03.089-.089.059-.118.071a4.005,4.005,0,0,0-.414.118.805.805,0,0,0-.473.5.209.209,0,0,0,.177-.089,1,1,0,0,1,.556-.278.558.558,0,0,1,.367.041,1.37,1.37,0,0,0,.248.071.422.422,0,0,1,.355.467,1.979,1.979,0,0,0-.219.041,1.5,1.5,0,0,0-1.1.792c-.012.03-.041.059-.041.1v.1a.174.174,0,0,0,.1-.03.847.847,0,0,0,.089-.13c.071-.1.16-.189.248-.3a1.2,1.2,0,0,1,.928-.325c.207,0,.307.1.4.367a1.531,1.531,0,0,0-.574.721.341.341,0,0,0-.012.3c.041-.03.071-.041.089-.071.041-.059.071-.13.118-.207.089-.118.177-.237.266-.337a.8.8,0,0,1,.526-.248,1.9,1.9,0,0,1,.751.041.4.4,0,0,1,.148.059c-.059.089-.118.189-.177.266a3.512,3.512,0,0,0-.585,1.354,2.788,2.788,0,0,0,.266,1.792c.089.16.177.307.278.5a1.108,1.108,0,0,1-.9.012,1.579,1.579,0,0,1-.6-.367c-.118-.118-.219-.237-.337-.355A.693.693,0,0,0,37,49.806a1.354,1.354,0,0,1-.952-1.011,2.828,2.828,0,0,1-.071-.585.388.388,0,0,0-.16-.337.858.858,0,0,1-.355-.751,1.561,1.561,0,0,1,.089-.526h0Z" transform="translate(-35.248 -42.907)" fill="#fff"/>
      <path id="Trazado_797371" data-name="Trazado 797371" d="M51.947,47.239a2.927,2.927,0,0,0-.81-.6l-.81-.4a.562.562,0,0,0-.16-.059.137.137,0,0,0-.177.13.6.6,0,0,0,.059.219,6.911,6.911,0,0,0,.556,1.029,2.359,2.359,0,0,0,1.366,1l.266.089a2.389,2.389,0,0,1-.012.94,1.424,1.424,0,0,0-.041.219.184.184,0,0,0,.059.148c.207.148.414.278.633.414a.136.136,0,0,0,.189-.071.322.322,0,0,0,.041-.16c.012-.16.041-.325.041-.485a4.872,4.872,0,0,0,0-.881c-.03-.177-.041-.355-.071-.526.089-.059.177-.089.266-.148a2.816,2.816,0,0,0,.781-.585,3.857,3.857,0,0,0,.851-1.691v-.03c.03-.13-.041-.219-.177-.189a2.614,2.614,0,0,0-.384.1c-.089.03-.177.1-.266.071v-.041l.041-.071a1.9,1.9,0,0,0,.367-.928,2.048,2.048,0,0,0-.585-1.939c-.03-.03-.059-.071-.089-.1.1-.13.207-.248.3-.384.071-.089,0-.189-.118-.189-.148,0-.3.03-.426.03a1.09,1.09,0,0,1-.367,0c-.012-.03-.041-.059-.041-.071-.148-.278-.16-.278-.443-.148a.476.476,0,0,1-.514-.012.405.405,0,0,0-.3-.071c-.1,0-.13.1-.189.16a.171.171,0,0,1-.207.059c-.089-.03-.16-.071-.237-.1a1.173,1.173,0,0,0-.219-.071.136.136,0,0,0-.16.177c0,.059.041.1.059.16a.6.6,0,0,1,.03.325c-.059.041-.118.089-.177.13A1.715,1.715,0,0,0,50.12,43.7a2.39,2.39,0,0,0-.089.526,2.062,2.062,0,0,0,1.129,2.087c.177.089.367.16.556.237a.354.354,0,0,1,.177.148,2.526,2.526,0,0,1,.248.692c-.041,0-.059,0-.059-.012a.805.805,0,0,1-.1-.1l-.041-.012Zm.97-5.085c.041.071.089.13.13.207a.188.188,0,0,0,.219.1c.13-.012.266-.03.4-.041.041.1-.059.148-.089.207a.166.166,0,0,0,.012.207c.041.041.089.071.13.118a1.731,1.731,0,0,1,.585,1.325,2.59,2.59,0,0,1-.1.751,1.752,1.752,0,0,1-1.437,1.206.092.092,0,0,1-.059-.03c.041-.071.089-.148.13-.207a4.466,4.466,0,0,0,.485-.851,2.83,2.83,0,0,0,.219-1.1,1.8,1.8,0,0,0-.307-1.029c-.13-.189-.278-.367-.426-.544-.041-.059-.1-.118-.177-.207.13-.041.207-.089.307-.118l-.03.012Zm.325,4.257a1.04,1.04,0,0,0-.337.556c-.071-.148-.16-.278-.248-.443.177-.041.325-.089.485-.118h.1Zm-1.248-4.039a1.594,1.594,0,0,0-.851,1.1,2.957,2.957,0,0,0,.03,1.384,4.54,4.54,0,0,0,.485,1.159.962.962,0,0,1,.1.207v.03l-.03.012a1.837,1.837,0,0,1-1.455-1.809,2.336,2.336,0,0,1,.13-.84,1.442,1.442,0,0,1,.574-.733.351.351,0,0,1,.118-.071.355.355,0,0,0,.207-.455v-.089h.089a.42.42,0,0,0,.574-.089l.089-.071c.089.03.177.041.207.148a1.745,1.745,0,0,0-.266.118Zm.248,4.482c-.041-.089-.071-.177-.1-.248.041-.059.071-.03.1-.012a.743.743,0,0,1,.426.721.819.819,0,0,0,.03.266c0,.059.041.1.118.118.041,0,.118,0,.148-.041a.285.285,0,0,0,.089-.148c.059-.177.118-.355.177-.544a.46.46,0,0,1,.089-.207,2.806,2.806,0,0,1,1.236-.81h.089v.118a3.565,3.565,0,0,1-.455,1.07,2,2,0,0,1-1.029.84c-.1.041-.219.089-.307.118a.667.667,0,0,0,0,.467,5.2,5.2,0,0,1,.041,1.248.28.28,0,0,1-.071.237,1.543,1.543,0,0,1-.355-.207,1.187,1.187,0,0,1,.03-.248,2.427,2.427,0,0,0,.03-.851c0-.207-.089-.278-.3-.325a2.282,2.282,0,0,0-.337-.071,1.5,1.5,0,0,1-.952-.692c-.177-.3-.337-.574-.5-.869-.03-.03-.03-.089-.041-.118.041-.059.089-.012.118,0,.16.071.325.16.5.237a2.852,2.852,0,0,1,1.218,1.177l.03.041a.34.34,0,0,0,.1.041.119.119,0,0,0,.1-.089.679.679,0,0,0,0-.219,3.006,3.006,0,0,0-.219-.97v-.03Z" transform="translate(-41.273 -41.841)" fill="#fff"/>
      <path id="Trazado_797372" data-name="Trazado 797372" d="M48.606,63.376a.56.56,0,0,0,.219.03.353.353,0,0,1,.16.059c-.012.118-.041.219-.059.325a12,12,0,0,0-.237,1.892.367.367,0,0,0,.219.367,3.666,3.666,0,0,0,1.159.384c.089.012.189.041.3.059a1.626,1.626,0,0,1-.012.248c-.041.266-.089.544-.13.81a.388.388,0,0,0,.059.278c.266.337.526.674.81,1a.257.257,0,0,0,.455-.012c.189-.278.4-.556.6-.822.219-.307.219-.237.16-.585v-.03a1.389,1.389,0,0,1-.03-.219c0-.071-.041-.148,0-.219.266-.012.526-.03.81-.059.16.207.307.414.455.615a.469.469,0,0,0,.337.207c.16.012.325.059.5.071a1.633,1.633,0,0,0,.881-.177.5.5,0,0,0,.237-.219.141.141,0,0,0-.03-.189.964.964,0,0,0-.13-.1,4.209,4.209,0,0,0-.414-.278.824.824,0,0,1-.414-.81c0-.219.012-.443.03-.662a4.841,4.841,0,0,0-.059-1.011c-.148-.84-.355-1.662-.556-2.483a2.849,2.849,0,0,0-.219-.574,1.341,1.341,0,0,0-.982-.792,3.285,3.285,0,0,0-1.248-.03,4.432,4.432,0,0,0-1.466.514,10.812,10.812,0,0,0-1.248.822.508.508,0,0,0-.248.455c0,.307-.012.615-.041.928a.237.237,0,0,0,.16.248l-.012-.03ZM50.4,66.267a2.984,2.984,0,0,1-1.307-.467c.071-.012.16-.041.237-.059h0a2.737,2.737,0,0,0,1.1.337.365.365,0,0,1-.03.189Zm.81,2.265c-.207-.248-.414-.514-.615-.763a.258.258,0,0,1-.071-.266,8.277,8.277,0,0,0,.148-1.869.475.475,0,0,1,.03-.118c.207-.012.4-.03.585-.03V68.6l-.059-.059-.012-.012Zm1.011-1.939s-.03-.1-.041-.148a.979.979,0,0,0,.7-.041c.012.041.03.089.041.148a.844.844,0,0,1-.721.041h.012ZM48.754,62.11a.7.7,0,0,1,.118-.118,9.016,9.016,0,0,1,1.354-.881,4.05,4.05,0,0,1,1.543-.455,3.921,3.921,0,0,1,.911.041.988.988,0,0,1,.763.574,3.717,3.717,0,0,1,.248.645c.177.751.337,1.484.5,2.235a4.673,4.673,0,0,1,.071,1.437,5.129,5.129,0,0,0,0,.6.91.91,0,0,0,.426.733c.13.089.266.177.384.266a1.548,1.548,0,0,1,.118.1,1.045,1.045,0,0,1-.485.16,2.551,2.551,0,0,1-.733-.041.435.435,0,0,1-.219-.13,3.25,3.25,0,0,1-.674-1.206,1.049,1.049,0,0,1-.03-.189.284.284,0,0,0-.16-.266c-.177-.089-.355-.177-.526-.248a3.308,3.308,0,0,0-1.425-.13,9.777,9.777,0,0,0-1.673.266c-.071.012-.148.03-.237.041v-.189a9.605,9.605,0,0,1,.3-1.869c.03-.13.041-.177-.012-.219.367,0,.721-.5,1.041-.692a3.328,3.328,0,0,1,1.892-.544,1.58,1.58,0,0,1,.367.059,1.872,1.872,0,0,1,.4.384,3.113,3.113,0,0,1,.473,1,7.679,7.679,0,0,1,.237,1.366.282.282,0,0,0,.041.177l.03-.089a4.854,4.854,0,0,0-.177-1.839,2.7,2.7,0,0,0-.307-.662,1.913,1.913,0,0,0-2-.881A3.428,3.428,0,0,0,50.067,62a5.08,5.08,0,0,0-1.041.81c-.071.059-.13.13-.248.237v-.97l-.012.03Z" transform="translate(-40.652 -49.428)" fill="#fff"/>
      <path id="Trazado_797373" data-name="Trazado 797373" d="M54.033,79.7h.16l-.03-.071a1.594,1.594,0,0,1-.059-.4,1.087,1.087,0,0,1,.059-.384l.03-.071H53.075v-.071h.544V78.64a.63.63,0,0,1-.071-.337,1.684,1.684,0,0,1,.059-.4v-.071h-.633l.7-.059-.7-.237-.071.3h-.544v.041a1.528,1.528,0,0,0-.071.426,1.06,1.06,0,0,0,.041.367v.041H52.7v.071H51.9v-.071h.414V78.64a.627.627,0,0,1-.059-.337,1.684,1.684,0,0,1,.059-.4v-.071H51.8l.7-.059-.692-.237-.071.3h-.662v.041a1.075,1.075,0,0,0-.071.426,1.111,1.111,0,0,0,.041.367v.041h.485v.071H50.349v.041a.94.94,0,0,0-.071.414v.189H49.06l.248.615h.325l.4.544h4.009l.792-.781H54.1l-.071-.1h.012Zm-3.305.148-.16-.148h.189Zm.5,0h-.307l.03-.148h.307Zm.118-.443H50.58a1.6,1.6,0,0,1-.03-.248.69.69,0,0,1,.03-.237h.763a1.279,1.279,0,0,0-.03.237A.593.593,0,0,0,51.342,79.409Zm-.041-.952a1.279,1.279,0,0,1-.03-.237.748.748,0,0,1,.03-.248h.763a1.31,1.31,0,0,0-.03.248.521.521,0,0,0,.03.237Zm.556,1.384H51.62l.03-.148h.237v.148Zm.674,0h-.278l.03-.148h.278Zm.089-.485V79.4h-.763s-.012-.13-.03-.219v-.13c.012-.071.03-.13.041-.13h.751a1.279,1.279,0,0,0-.03.237,1.25,1.25,0,0,0,.012.207h.012Zm.514-.443H53.9a1.279,1.279,0,0,0-.03.237.593.593,0,0,0,.03.248h-.763a.811.811,0,0,1-.03-.248A2.048,2.048,0,0,1,53.134,78.912Zm-.574-.467a1.279,1.279,0,0,1-.03-.237.524.524,0,0,1,.03-.248h.751a1.31,1.31,0,0,0-.03.248.521.521,0,0,0,.03.237Zm.6,1.384H52.9l.03-.148h.248l-.03.148h.012Zm.4,0,.03-.148h.278l.089.148Z" transform="translate(-40.893 -56.431)" fill="#fff"/>
      <path id="Trazado_797374" data-name="Trazado 797374" d="M53.861,89.994a1.454,1.454,0,0,1-.041-.355,1.315,1.315,0,0,1,.041-.337l.03-.148h-.367V88.77h-.455v.384h-.5V88.77h-.455v.384H51.6V88.77h-.455v.384H50.9l-.03.1c-.03.118-.041.248-.059.367l-.426.426h-.7l.443.721.615.384h2.921l.733-.467.16-.633h-.692v-.059ZM51.6,89.876h-.4v-.414h.4Zm.94,0h-.414v-.414h.4v.414h.012Zm.94,0h-.4v-.414h.4Z" transform="translate(-41.146 -61.021)" fill="#fff"/>
    </g>
    <g id="Grupo_1083644" data-name="Grupo 1083644" transform="translate(16.987 19.433)">
      <path id="Trazado_797375" data-name="Trazado 797375" d="M30.167,36.27s-.041-.1-.059-.16c-.237.071-.473.16-.7.248-.16-.384-.325-.781-.485-1.159-.071.03-.13.041-.189.071.189.443.384.869.556,1.307.3-.118.585-.219.881-.325v.012Z" transform="translate(-28.73 -33.805)" fill="#fff"/>
      <path id="Trazado_797376" data-name="Trazado 797376" d="M31.422,35.844c-.148-.455-.307-.9-.455-1.354-.071.012-.13.041-.207.059.16.443.325.9.473,1.336.059-.012.13-.041.189-.059v.012Z" transform="translate(-29.56 -33.514)" fill="#fff"/>
      <path id="Trazado_797377" data-name="Trazado 797377" d="M32.709,35.39a.473.473,0,0,0,.367-.266.462.462,0,0,0,.03-.266.369.369,0,0,0-.16-.219.359.359,0,0,0-.189-.041.806.806,0,0,0,.1-.1.354.354,0,0,0,.03-.237.3.3,0,0,0-.118-.177.505.505,0,0,0-.426-.041c-.219.059-.443.118-.662.189.148.455.3.911.443,1.354a5.986,5.986,0,0,1,.6-.16l-.012-.03ZM31.917,34.3c.118-.03.248-.071.367-.1a.61.61,0,0,1,.207-.03.187.187,0,0,1,.177.148.2.2,0,0,1-.059.219.712.712,0,0,1-.189.089c-.118.03-.248.059-.367.1-.041-.13-.089-.278-.13-.414V34.3Zm.574.455a.611.611,0,0,1,.207-.03.219.219,0,0,1,.207.177.716.716,0,0,1,0,.16.3.3,0,0,1-.237.16c-.148.041-.278.071-.426.118-.041-.16-.1-.325-.148-.485.13-.041.266-.071.4-.1Z" transform="translate(-29.936 -33.32)" fill="#fff"/>
      <path id="Trazado_797378" data-name="Trazado 797378" d="M35.557,34.717a.853.853,0,0,0-.03-.16c-.307.041-.6.1-.9.16-.03-.16-.071-.307-.1-.467.278-.059.556-.1.84-.16a.507.507,0,0,0-.03-.16c-.278.041-.556.1-.84.16-.03-.148-.071-.278-.1-.426l.928-.177c0-.059-.03-.118-.03-.177-.384.059-.763.13-1.147.219.118.455.237.928.337,1.384.355-.071.721-.148,1.088-.207l-.012.012Z" transform="translate(-30.945 -33.032)" fill="#fff"/>
      <path id="Trazado_797379" data-name="Trazado 797379" d="M70.028,33.506a.3.3,0,0,0-.189-.337.791.791,0,0,0-.3-.059c-.237,0-.485-.012-.721-.03-.012.455-.03.911-.041,1.384h.189c0-.189,0-.4.012-.585.148,0,.307,0,.455.012a.381.381,0,0,1,.177.03.179.179,0,0,1,.089.189v.384a1.626,1.626,0,0,1,.248.012v-.03a.147.147,0,0,1-.041-.089v-.307a.3.3,0,0,0-.03-.177.366.366,0,0,0-.118-.089.326.326,0,0,0,.16-.118.286.286,0,0,0,.071-.189h.03Zm-.307.189a.939.939,0,0,1-.237.041c-.16,0-.307-.012-.473-.012,0-.16,0-.307.012-.467.177,0,.337,0,.514.012a.235.235,0,0,1,.16.041.207.207,0,0,1,.1.207.219.219,0,0,1-.1.189l.012-.012Z" transform="translate(-45.098 -32.938)" fill="#fff"/>
      <path id="Trazado_797380" data-name="Trazado 797380" d="M72.023,33.281c-.207-.03-.414-.059-.615-.071-.059.455-.1.911-.148,1.366.189.012.384.041.574.059a.528.528,0,0,0,.556-.237,1.032,1.032,0,0,0,.16-.384.778.778,0,0,0-.071-.485.57.57,0,0,0-.455-.266v.012Zm.307.751a.567.567,0,0,1-.041.148.417.417,0,0,1-.118.189.432.432,0,0,1-.207.118H71.8a2.764,2.764,0,0,1-.337-.041c.041-.355.089-.7.13-1.041.118,0,.248.03.367.041a.415.415,0,0,1,.337.189.611.611,0,0,1,.041.414l-.012-.012Z" transform="translate(-46.112 -32.991)" fill="#fff"/>
      <path id="Trazado_797381" data-name="Trazado 797381" d="M74.083,33.787c.3.059.585.118.881.189a.794.794,0,0,1,.041-.16c-.367-.089-.733-.16-1.1-.237-.089.455-.177.9-.266,1.354.355.059.692.13,1.029.219a.794.794,0,0,1,.041-.16c-.278-.071-.574-.13-.851-.189.03-.148.059-.307.089-.455a6.354,6.354,0,0,1,.792.177.794.794,0,0,1,.041-.16c-.266-.059-.526-.118-.81-.177.03-.13.059-.278.089-.414l.012.012Z" transform="translate(-47.085 -33.142)" fill="#fff"/>
      <path id="Trazado_797382" data-name="Trazado 797382" d="M76.817,35.436c-.118-.426-.248-.851-.384-1.277-.071-.012-.16-.041-.237-.059-.118.443-.248.881-.367,1.336.059.012.118.03.177.041.1-.355.207-.721.307-1.07.148.426.278.851.4,1.277.071.012.13.041.207.059.148-.443.3-.869.455-1.307-.059-.012-.13-.041-.189-.059-.118.355-.237.7-.355,1.058Z" transform="translate(-47.98 -33.355)" fill="#fff"/>
      <path id="Trazado_797383" data-name="Trazado 797383" d="M63.5,33.29c-.13.237-.248.467-.367.721-.177-.189-.355-.4-.544-.585a1.813,1.813,0,0,0-.248.041c.237.237.485.467.7.721.03.177.059.367.089.544a.7.7,0,0,0,.189-.03c-.03-.177-.041-.367-.071-.544.148-.3.307-.6.485-.9a1.187,1.187,0,0,0-.248.03Z" transform="translate(-42.466 -33.012)" fill="#fff"/>
      <path id="Trazado_797384" data-name="Trazado 797384" d="M66.615,33.02a.658.658,0,0,0-.585.278.822.822,0,0,0-.13.485.688.688,0,0,0,.207.5.7.7,0,0,0,.544.177.648.648,0,0,0,.544-.248.745.745,0,0,0,.177-.514.692.692,0,0,0-.148-.467.68.68,0,0,0-.6-.219v.012Zm.426,1.1a.453.453,0,0,1-.384.189.58.58,0,0,1-.414-.13.645.645,0,0,1-.148-.384.613.613,0,0,1,.13-.443.512.512,0,0,1,.384-.16.522.522,0,0,1,.384.13.5.5,0,0,1,.148.384.726.726,0,0,1-.118.414h.012Z" transform="translate(-43.921 -32.908)" fill="#fff"/>
      <path id="Trazado_797385" data-name="Trazado 797385" d="M38.088,34.4s-.059-.03-.071-.071a.475.475,0,0,0-.03-.118.7.7,0,0,0-.03-.189.208.208,0,0,0-.071-.177.315.315,0,0,0-.148-.071.441.441,0,0,0,.148-.148.367.367,0,0,0,.03-.219.321.321,0,0,0-.266-.307.658.658,0,0,0-.307-.012c-.248.03-.5.059-.733.1.089.467.16.94.248,1.4a.966.966,0,0,0,.207-.03c-.03-.207-.059-.4-.089-.6.16-.012.307-.041.473-.059h.189a.21.21,0,0,1,.13.177c.012.071.03.16.041.237,0,.059,0,.089.012.1l.03.041c.089,0,.16-.012.248-.012v-.03h-.012Zm-.443-.751a.608.608,0,0,1-.237.071c-.16.012-.325.041-.485.059-.03-.16-.059-.325-.089-.485.177-.03.355-.041.526-.059h.177a.211.211,0,0,1,.148.189c0,.089,0,.16-.059.207l.012.012Z" transform="translate(-31.951 -32.938)" fill="#fff"/>
      <path id="Trazado_797386" data-name="Trazado 797386" d="M39.542,33.079c.03.414.071.84.1,1.248h.207c-.03-.414-.059-.84-.089-1.248.177,0,.367,0,.544-.012V32.89c-.443,0-.881.03-1.325.059a.65.65,0,0,0,.012.16c.177,0,.367-.03.544-.03Z" transform="translate(-32.919 -32.86)" fill="#fff"/>
      <path id="Trazado_797387" data-name="Trazado 797387" d="M41.377,34.277c.059-.148.1-.278.16-.426h.615c.059.148.1.3.148.426h.237c-.177-.485-.367-.97-.574-1.437h-.248c-.189.467-.384.94-.544,1.425h.207v.012Zm.455-1.206c.089.207.177.426.248.633h-.5C41.673,33.5,41.744,33.278,41.832,33.071Z" transform="translate(-33.814 -32.84)" fill="#fff"/>
      <path id="Trazado_797388" data-name="Trazado 797388" d="M45.02,34.14a.9.9,0,0,0,.13-.4.733.733,0,0,0-.13-.5.766.766,0,0,0-.514-.266c-.219-.012-.455-.03-.674-.041,0,.467-.012.952-.041,1.425.207,0,.414.03.633.041a.545.545,0,0,0,.585-.266Zm-1,.059c.012-.367.03-.733.041-1.1a2.977,2.977,0,0,1,.4.03.461.461,0,0,1,.384.189.664.664,0,0,1,.089.426.3.3,0,0,1-.03.148.613.613,0,0,1-.1.207.54.54,0,0,1-.219.13H44.4A2.877,2.877,0,0,1,44.021,34.2Z" transform="translate(-34.885 -32.881)" fill="#fff"/>
    </g>
    <path id="Trazado_797389" data-name="Trazado 797389" d="M36.054,11.384a.49.49,0,0,1-.041-.514,1.025,1.025,0,0,1,.089-.118c.03-.03.089-.041.118-.089a.348.348,0,0,1-.544-.1.408.408,0,0,1,.237-.526,2.63,2.63,0,0,0-.485.177.518.518,0,0,1-.485-.03.4.4,0,0,1-.089-.455,1.264,1.264,0,0,1,.3-.4c-.266.059-.5.325-.763.237s-.3-.455-.148-.692c.13-.237.384-.4.526-.615a6.665,6.665,0,0,1-1.248.443.524.524,0,0,1-.443-.041.212.212,0,0,1,0-.3l-.6.207a.719.719,0,0,1-.426.041c-.13-.047-.248-.219-.177-.337a1.172,1.172,0,0,1-.7.237.408.408,0,0,1-.337-.219c-.089-.16-.012-.219.118-.337a.64.64,0,0,0-.414.662.464.464,0,0,0,.5.278,1.318,1.318,0,0,0,.574-.237.438.438,0,0,0,.307.384,4.027,4.027,0,0,0-1.041,1.325,1.059,1.059,0,0,0-.13.455.494.494,0,0,0,.207.414.3.3,0,0,0,.414-.118.4.4,0,0,0,.148.455.452.452,0,0,0,.485.03.877.877,0,0,0,.071.574.441.441,0,0,0,.5.237c-.278.089.721,1.058.615.337-.041-.248-.237-.384-.207-.674a2.075,2.075,0,0,1,.337-.792c.16-.278.337-.556.5-.851a9.153,9.153,0,0,0-1.129,1.78c-.278-.4-.071-.952.16-1.384.219-.4.455-.781.7-1.147-.615.367-.822,1.159-1.277,1.7-.059.071-.177.16-.266.118a3.042,3.042,0,0,1,.733-2.087A7.712,7.712,0,0,0,31.667,10.6a.724.724,0,0,1-.414.307A1.2,1.2,0,0,1,31.5,9.846a4.962,4.962,0,0,0,.5-.763.479.479,0,0,0,.13,0,1.357,1.357,0,0,0,.721-.3c0,.13.189.177.325.16.266,0,.544,0,.81-.012a.586.586,0,0,0-.118.692.618.618,0,0,0,.662.278.483.483,0,0,0,.248.733.7.7,0,0,0,.7-.248.446.446,0,0,0-.059.1.456.456,0,0,0-.041.118.49.49,0,0,0-.03.248.36.36,0,0,0,.089.207.381.381,0,0,0,.16.13c.03,0,.059.012.1.012a.314.314,0,0,0,.219-.089c-.041.071-.089.148-.13.237a.826.826,0,0,0-.089.248.391.391,0,0,0,.355.414.5.5,0,0,0,.325-.059,1.289,1.289,0,0,0,.455-.615.494.494,0,0,1-.751.012l-.041.041Z" transform="translate(-12.475 -3.238)" fill="#fff"/>
    <path id="Trazado_797390" data-name="Trazado 797390" d="M73.5,5.373a.142.142,0,0,0,.059-.012.258.258,0,0,0,.177-.207.326.326,0,0,0-.059-.207.884.884,0,0,0-.189-.207.741.741,0,0,1-.177-.071.824.824,0,0,1-.237-.059.4.4,0,0,1,.177.177.2.2,0,0,1-.059.219.238.238,0,0,1-.219,0c-.177-.03-.337-.071-.514-.1a2.11,2.11,0,0,0,.674.4.6.6,0,0,0,.355.041l.012.03Z" transform="translate(-29.616 -1.869)" fill="#fff"/>
    <path id="Trazado_797391" data-name="Trazado 797391" d="M68.7,14.717a1.911,1.911,0,0,1,.089.278c-.012-.1-.03-.219-.041-.325,0,.012-.03.041-.041.059v-.012Z" transform="translate(-28.079 -5.981)" fill="#fff"/>
    <path id="Trazado_797392" data-name="Trazado 797392" d="M13.282,14.965c.367-.13.792.03,1.159-.1a1.566,1.566,0,0,0,.585-.526c.307-.414.615-.822.928-1.218a8.747,8.747,0,0,1-1.437,1.088.943.943,0,0,1-.426.148c-.148,0-.3-.16-.248-.3a.344.344,0,0,1,.118-.16c.148-.13.278-.266.426-.4a25.909,25.909,0,0,0-3.365,2.732c-.556.514-1.662,1.384-1.644,2.235.5-.148,1.088-.952,1.484-1.307.645-.6,1.295-1.206,1.939-1.809A1.533,1.533,0,0,1,13.3,15l-.012-.03Z" transform="translate(-3.835 -5.347)" fill="#fff"/>
    <path id="Trazado_797393" data-name="Trazado 797393" d="M20.268,11.1a1.79,1.79,0,0,1,.473.118,1.61,1.61,0,0,0,1.218-.207,4.432,4.432,0,0,0,.952-.84,6.094,6.094,0,0,1-1.118.585.806.806,0,0,1-.4.089.32.32,0,0,1-.307-.219.356.356,0,0,1,.059-.3,1.2,1.2,0,0,1,.556-.514c-.633.3-2.407,1.011-2.5,1.78.237-.012.455-.237.674-.367a.79.79,0,0,1,.4-.148l-.012.012Z" transform="translate(-7.852 -3.998)" fill="#fff"/>
    <path id="Trazado_797394" data-name="Trazado 797394" d="M16.233,19.408a1.583,1.583,0,0,1,.148-.219.517.517,0,0,1-.189.13c-.059.041-.13.071-.207.118a2.119,2.119,0,0,1-.645.189h-.325a.648.648,0,0,1-.337-.059.28.28,0,0,1-.118-.307.089.089,0,0,1,.03-.071,1.019,1.019,0,0,1,.248-.355,3.532,3.532,0,0,1-1.307.544.545.545,0,0,1-.219,0c-.13-.071-.071-.278,0-.414A7.384,7.384,0,0,1,14.7,17.38a8.629,8.629,0,0,0-1.526,1.295c-.189.207-.384.467-.3.733a.587.587,0,0,0,.585.325,1.5,1.5,0,0,0,.674-.248c.118-.059.219-.118.337-.189a1.364,1.364,0,0,0-.118.526.345.345,0,0,0,.219.337.769.769,0,0,0,.307,0,2.889,2.889,0,0,0,1.325-.721v-.012l.03-.012Z" transform="translate(-5.254 -7.088)" fill="#fff"/>
    <path id="Trazado_797395" data-name="Trazado 797395" d="M18.464,20.512v-.041a.527.527,0,0,0-.041.467.469.469,0,0,0,.455.207,1.031,1.031,0,0,0,.485-.219,3.052,3.052,0,0,0,1-1.206,8.338,8.338,0,0,1-1.526.851c-.13.059-.337.071-.367-.059Z" transform="translate(-7.515 -8.044)" fill="#fff"/>
    <path id="Trazado_797396" data-name="Trazado 797396" d="M19.471,18.679a7.331,7.331,0,0,0,1.058-.94c-.455-.13-1.088.544-1.384.822a.7.7,0,0,0-.266.485,1.462,1.462,0,0,0,.585-.367Z" transform="translate(-7.717 -7.228)" fill="#fff"/>
    <path id="Trazado_797397" data-name="Trazado 797397" d="M23.275,18.646c-.071-.526-1.088.485-1.206.6-.1.1-.219.248-.16.384.248-.059,1.4-.692,1.366-.982h0Z" transform="translate(-8.949 -7.544)" fill="#fff"/>
    <path id="Trazado_797398" data-name="Trazado 797398" d="M68.7,14.717a1.911,1.911,0,0,1,.089.278c-.012-.1-.03-.219-.041-.325,0,.012-.03.041-.041.059v-.012Z" transform="translate(-28.079 -5.981)" fill="#fff"/>
    <path id="Trazado_797399" data-name="Trazado 797399" d="M26.441,5.727a.879.879,0,0,0,.248.03,1.024,1.024,0,0,0,.514-.189c-.189-.219-.118-.426.071-.615A4.087,4.087,0,0,1,28.729,4a.143.143,0,0,1-.177-.13.4.4,0,0,1,.1-.219,2.857,2.857,0,0,1,1.514-.928.3.3,0,0,1,.1.059l.13.041a1,1,0,0,0,.266,0c.13-.012.384-.1.443-.248-.03-.012-.059-.03-.059-.059a.257.257,0,0,1,.059-.13c.1-.1.237-.207.337-.307.012-.012.041-.03.03-.059a1.835,1.835,0,0,0-.325.118c-.041.03-.5.207-.6.248-.414.16-.84.278-1.265.443a3.474,3.474,0,0,0-1.118.662.64.64,0,0,0-.177.266.2.2,0,0,0,.13.248,3.178,3.178,0,0,0-1.691,1.277c-.089.148-.16.367-.012.455h.012Z" transform="translate(-10.761 -0.81)" fill="#fff"/>
    <path id="Trazado_797400" data-name="Trazado 797400" d="M24.221,12.814a1.858,1.858,0,0,0,.455-.237.108.108,0,0,1,.13-.012c.03.03.03.071.041.118a.434.434,0,0,0,.426.367.9.9,0,0,0,.574-.189.422.422,0,0,1-.012.118.554.554,0,0,0,.414.207,1.708,1.708,0,0,0,.473-.089.839.839,0,0,0,.5-.3c-.1.1-.219.207-.355.177-.148-.012-.237-.207-.219-.355a.908.908,0,0,1,.219-.4,3.655,3.655,0,0,1-.84.367.832.832,0,0,1-.384.03.255.255,0,0,1-.118-.455.612.612,0,0,1,.266-.189c-.248.1-.485.189-.733.3a1.236,1.236,0,0,1-.556.13.444.444,0,0,1-.426-.337.414.414,0,0,1,.041-.219.77.77,0,0,0-.089.059.982.982,0,0,0-.307.337.438.438,0,0,0,.03.443.483.483,0,0,0,.485.118l-.012.012Z" transform="translate(-9.677 -4.828)" fill="#fff"/>
    <path id="Trazado_797401" data-name="Trazado 797401" d="M32.8,3.906a.567.567,0,0,1,.219-.3,1.091,1.091,0,0,0-.633.556c-.012.041-.03.089,0,.118a.113.113,0,0,0,.059.03,1.682,1.682,0,0,0,.645-.012.3.3,0,0,1-.219-.059.344.344,0,0,1-.089-.337H32.8Z" transform="translate(-13.232 -1.46)" fill="#fff"/>
    <path id="Trazado_797402" data-name="Trazado 797402" d="M89.5,14.416a.772.772,0,0,1-.426-.148A8.274,8.274,0,0,1,87.64,13.18c.307.414.615.822.928,1.218a1.317,1.317,0,0,0,.585.526c.367.13.792-.03,1.159.1a1.4,1.4,0,0,1,.5.355c.645.6,1.295,1.206,1.939,1.809.384.367.97,1.177,1.484,1.307.012-.851-1.088-1.721-1.644-2.235a25.909,25.909,0,0,0-3.365-2.732c.148.13.278.266.426.4a.366.366,0,0,1,.118.16c.041.148-.1.278-.248.3l-.012.03Z" transform="translate(-35.82 -5.372)" fill="#fff"/>
    <path id="Trazado_797403" data-name="Trazado 797403" d="M83.6,11.127a1.572,1.572,0,0,0,1.218.207,1.791,1.791,0,0,1,.473-.118.776.776,0,0,1,.4.148,2.1,2.1,0,0,0,.674.367c-.089-.751-1.88-1.484-2.5-1.78a1.232,1.232,0,0,1,.556.514.428.428,0,0,1,.059.3.336.336,0,0,1-.307.219,1.2,1.2,0,0,1-.4-.089A6.481,6.481,0,0,1,82.66,10.3a4.947,4.947,0,0,0,.952.84l-.012-.012Z" transform="translate(-33.784 -4.051)" fill="#fff"/>
    <path id="Trazado_797404" data-name="Trazado 797404" d="M80.147,12.277a.636.636,0,0,1,.1.189.3.3,0,0,1-.219.266.869.869,0,0,1-.384-.03,3.444,3.444,0,0,1-.84-.367.759.759,0,0,1,.219.4.3.3,0,0,1-.219.355.54.54,0,0,1-.355-.177.869.869,0,0,0,.5.3,1.765,1.765,0,0,0,.473.089.389.389,0,0,0,.384-.248c.041-.059.059-.03.13,0a.983.983,0,0,0,.455.118.434.434,0,0,0,.426-.367.13.13,0,0,1,.041-.118c.041-.03.089,0,.13.012a2.088,2.088,0,0,0,.455.237.5.5,0,0,0,.485-.118.413.413,0,0,0,.03-.443.941.941,0,0,0-.307-.337.386.386,0,0,0-.089-.059.364.364,0,0,1,.041.219.441.441,0,0,1-.426.337,1.241,1.241,0,0,1-.556-.13c-.278-.118-.556-.219-.851-.337a.818.818,0,0,1,.384.248l-.012-.03Z" transform="translate(-32.064 -4.877)" fill="#fff"/>
    <path id="Trazado_797405" data-name="Trazado 797405" d="M93.276,19.823a.564.564,0,0,0,.585-.325c.089-.266-.1-.526-.3-.733A7.629,7.629,0,0,0,92.04,17.47a7.55,7.55,0,0,1,1.384,1.585c.089.13.148.337,0,.414a.238.238,0,0,1-.219,0,3.562,3.562,0,0,1-1.295-.544,1.107,1.107,0,0,1,.189.237c.041.059.071.13.118.189.118.071.237.13.355.207a1.528,1.528,0,0,0,.674.248l.03.012Z" transform="translate(-37.565 -7.125)" fill="#fff"/>
    <path id="Trazado_797406" data-name="Trazado 797406" d="M83.693,15.756a.163.163,0,0,0-.071-.03c.089,0,.16.012.248.012a.317.317,0,0,0,.189-.041c.148-.089.089-.307,0-.455a4.112,4.112,0,0,0-.6-.721c.148.16.367.467.177.633a.338.338,0,0,1-.189.059,1.985,1.985,0,0,1-1.088-.266.346.346,0,0,1-.071.426.769.769,0,0,1-.674.012,6.005,6.005,0,0,1-1.555-.721,3.421,3.421,0,0,1,.792.692.426.426,0,0,1,.118.266c0,.237-.337.278-.574.248a5.964,5.964,0,0,1-1.662-.514,2.3,2.3,0,0,1,.81.733.323.323,0,0,1,.071.219c-.03.177-.278.207-.455.16a6.349,6.349,0,0,1-1.733-.574.574.574,0,0,1-.585.633.649.649,0,0,0,.574.041.608.608,0,0,1,.266-.1.581.581,0,0,1,.325.148,2.1,2.1,0,0,0,1.555.325.541.541,0,0,0,.355-.189c.148-.3-.3-.526-.426-.84a5.893,5.893,0,0,0,.982.307.905.905,0,0,0,.574-.012.35.35,0,0,0,.177-.485,1.638,1.638,0,0,0,.94.384c.337,0,.692-.355.574-.662a2.491,2.491,0,0,0,.763.266.063.063,0,0,0-.059.03c.177-.148,1.673,1.662,2.188,1.514-.237-.662-1.307-1.159-1.892-1.484l-.03-.012Z" transform="translate(-31.406 -5.919)" fill="#fff"/>
    <path id="Trazado_797407" data-name="Trazado 797407" d="M86.466,17.839a6.5,6.5,0,0,0,1.058.94,1.655,1.655,0,0,0,.585.367.718.718,0,0,0-.266-.485c-.3-.278-.928-.952-1.384-.822Z" transform="translate(-35.337 -7.269)" fill="#fff"/>
    <path id="Trazado_797408" data-name="Trazado 797408" d="M83.879,18.742c-.041.278,1.118.911,1.366.982.059-.13-.041-.278-.16-.384s-1.129-1.129-1.206-.6h0Z" transform="translate(-34.282 -7.581)" fill="#fff"/>
    <path id="Trazado_797409" data-name="Trazado 797409" d="M75.152,4.424a.074.074,0,0,0,.059-.03c.03-.03.012-.071,0-.118a1.035,1.035,0,0,0-.633-.556.545.545,0,0,1,.219.3.344.344,0,0,1-.089.337.276.276,0,0,1-.219.059,1.58,1.58,0,0,0,.645.012h.012Z" transform="translate(-30.445 -1.505)" fill="#fff"/>
    <path id="Trazado_797410" data-name="Trazado 797410" d="M24.221,12.814a1.858,1.858,0,0,0,.455-.237.108.108,0,0,1,.13-.012c.03.03.03.071.041.118a.434.434,0,0,0,.426.367.9.9,0,0,0,.574-.189.422.422,0,0,1-.012.118.554.554,0,0,0,.414.207,1.708,1.708,0,0,0,.473-.089.839.839,0,0,0,.5-.3c-.1.1-.219.207-.355.177-.148-.012-.237-.207-.219-.355a.908.908,0,0,1,.219-.4,3.655,3.655,0,0,1-.84.367.832.832,0,0,1-.384.03.255.255,0,0,1-.118-.455.612.612,0,0,1,.266-.189c-.248.1-.485.189-.733.3a1.236,1.236,0,0,1-.556.13.444.444,0,0,1-.426-.337.414.414,0,0,1,.041-.219.77.77,0,0,0-.089.059.982.982,0,0,0-.307.337.438.438,0,0,0,.03.443.483.483,0,0,0,.485.118l-.012.012Z" transform="translate(-9.677 -4.828)" fill="#fff"/>
    <path id="Trazado_797411" data-name="Trazado 797411" d="M32.8,3.906a.567.567,0,0,1,.219-.3,1.091,1.091,0,0,0-.633.556c-.012.041-.03.089,0,.118a.113.113,0,0,0,.059.03,1.682,1.682,0,0,0,.645-.012.3.3,0,0,1-.219-.059.344.344,0,0,1-.089-.337H32.8Z" transform="translate(-13.232 -1.46)" fill="#fff"/>
    <path id="Trazado_797412" data-name="Trazado 797412" d="M26.441,5.727a.879.879,0,0,0,.248.03,1.024,1.024,0,0,0,.514-.189c-.189-.219-.118-.426.071-.615A4.087,4.087,0,0,1,28.729,4a.143.143,0,0,1-.177-.13.4.4,0,0,1,.1-.219,2.857,2.857,0,0,1,1.514-.928.3.3,0,0,1,.1.059l.13.041a1,1,0,0,0,.266,0c.13-.012.384-.1.443-.248-.03-.012-.059-.03-.059-.059a.257.257,0,0,1,.059-.13c.1-.1.237-.207.337-.307.012-.012.041-.03.03-.059a1.835,1.835,0,0,0-.325.118c-.041.03-.5.207-.6.248-.414.16-.84.278-1.265.443a3.474,3.474,0,0,0-1.118.662.64.64,0,0,0-.177.266.2.2,0,0,0,.13.248,3.178,3.178,0,0,0-1.691,1.277c-.089.148-.16.367-.012.455h.012Z" transform="translate(-10.761 -0.81)" fill="#fff"/>
    <path id="Trazado_797413" data-name="Trazado 797413" d="M39.96,6.668a2.178,2.178,0,0,0,.177-.148A.842.842,0,0,0,39.96,6.668Z" transform="translate(-16.333 -2.65)" fill="#fff"/>
    <path id="Trazado_797414" data-name="Trazado 797414" d="M41.178,11.064a.611.611,0,0,0-.071.325.256.256,0,0,0,.207.237c-.148.219-.355.94.177.84h0c-.041-.219-.13-.325-.059-.544a1.62,1.62,0,0,1,.544-.7c-.148.071-.278.248-.443.207a.28.28,0,0,1-.177-.237.54.54,0,0,1,.089-.3,2.345,2.345,0,0,1,.526-.662,1.779,1.779,0,0,0-.792.822v.012Z" transform="translate(-16.8 -4.166)" fill="#fff"/>
    <path id="Trazado_797415" data-name="Trazado 797415" d="M61.743,8.924a1.389,1.389,0,0,0,.1-1.265.711.711,0,0,0,.4-.792.744.744,0,0,0-.177-.337c-.089-.089-.207-.089-.278-.189V6.31h0a.571.571,0,0,1,.16.041c.059,0,.13,0,.148-.059V6.222a.346.346,0,0,0-.03-.13,1.985,1.985,0,0,0-.4-.881,1.644,1.644,0,0,0,.248.248A.311.311,0,0,0,62,5.53a.2.2,0,0,0,.118,0,.237.237,0,0,0,.071-.13.9.9,0,0,0-.089-.278,1.227,1.227,0,0,0-.177-.337c-.03-.041-.189-.325-.248-.307a.577.577,0,0,1,.148.012.835.835,0,0,0,.455.148h.059l.041-.041a.6.6,0,0,0,.089-.325,1.468,1.468,0,0,0-.337-.781A1.042,1.042,0,0,0,62.8,3.7c.148,0,.337-.03.355-.177a.271.271,0,0,0-.059-.148,1.949,1.949,0,0,0-.307-.355v.13c0,.059-.041.1-.089.148a.2.2,0,0,1-.148.071.889.889,0,0,1-.177,0,1.467,1.467,0,0,1-.544-.13.745.745,0,0,1,.325.307c.041.1.148.237.148.355a.324.324,0,0,1-.118.219.3.3,0,0,1-.16.1h-.148c-.189-.059-.177-.13-.266-.248-.041-.041-.1-.089-.16-.041a1.187,1.187,0,0,0,.266.733c0,.012.03.03.041.059.071.089.177.177.189.3,0,.059-.012.118-.071.13-.03,0-.041,0-.059-.03a.565.565,0,0,1-.13-.189c-.041-.059-.118-.118-.189-.089a2.146,2.146,0,0,0,.355.982.279.279,0,0,1,.041.189c-.059.16-.219-.071-.266.13a.544.544,0,0,0,.207.467.892.892,0,0,1,.248.485.152.152,0,0,1-.248.166c-.041-.03-.059-.089-.089-.13a2.111,2.111,0,0,1-.207-.662c-.03-.219-.13-.443-.177-.662A5.7,5.7,0,0,1,61.3,4.5a2.733,2.733,0,0,1,.207-1.218,2.094,2.094,0,0,1,.94-.9,1.289,1.289,0,0,1,.219-.118,1.941,1.941,0,0,0-.455.089,1.757,1.757,0,0,0-1.147,1.218,1.282,1.282,0,0,0-.03.4v.012a6.235,6.235,0,0,0-.041.733A4.509,4.509,0,0,0,61.111,5.9c.106.4.3.763.4,1.159a1.5,1.5,0,0,1-.059,1.189c-.13.248-1.029.633-.97.881.089.355,1.07.012,1.236-.16l.03-.059Z" transform="translate(-24.718 -0.909)" fill="#fff"/>
    <path id="Trazado_797416" data-name="Trazado 797416" d="M34.666,2.972c-.118-.059-.13-.248-.03-.3a.71.71,0,0,0-.307.148.3.3,0,0,0-.118.325c.059.16.248.207.426.207A1.649,1.649,0,0,0,35.855,2.8c-.012.03-.041.041-.059.071a.409.409,0,0,0-.041.384c.1.177.367.16.556.089a2.8,2.8,0,0,0,.869-.485.792.792,0,0,0-.148.278.241.241,0,0,0,.1.266.263.263,0,0,0,.189.012,1.488,1.488,0,0,0,.928-.485c-.207.089-.514.189-.692.012-.118-.1-.03-.325-.13-.426-.237-.266-.9.384-1.336.118a1.021,1.021,0,0,1,.414-.455h0a9.043,9.043,0,0,1-1.437.763.475.475,0,0,1-.4.041V2.972Z" transform="translate(-13.978 -0.876)" fill="#fff"/>
    <path id="Trazado_797417" data-name="Trazado 797417" d="M41.73,3.159a.615.615,0,0,0,.13.03,1.574,1.574,0,0,0,1.011-.367.257.257,0,0,1,.059-.13.883.883,0,0,1,.4-.307c-.237.118-.473.219-.692.337-.16.071-.355.148-.5.059a.339.339,0,0,1-.041-.443,1.106,1.106,0,0,1,.384-.307,1.864,1.864,0,0,0-.585.4.722.722,0,0,0-.207.645.119.119,0,0,0,.059.1l-.012-.012Z" transform="translate(-17.033 -0.815)" fill="#fff"/>
    <path id="Trazado_797418" data-name="Trazado 797418" d="M44.4,2.7a.781.781,0,0,1,.189.6.425.425,0,0,1-.473.355c-.041,0-.071-.03-.1-.071a.209.209,0,0,1,.012-.118.852.852,0,0,1,.367-.384,1.742,1.742,0,0,1-.544.13.5.5,0,0,1-.325-.071.293.293,0,0,1-.089-.307,3.29,3.29,0,0,0-.307.355.29.29,0,0,0-.059.148c0,.148.207.177.355.177a.929.929,0,0,0,.662-.207c-.1.16-.207.325-.3.467a.412.412,0,0,0-.089.278.3.3,0,0,0,.355.207.809.809,0,0,0,.384-.219c.13-.1.248-.219.384-.307.089.148.071.337.189.467a.847.847,0,0,0,.189-.455,1.282,1.282,0,0,0-.03-.4,1.734,1.734,0,0,0-1.147-1.218,3.094,3.094,0,0,0-.455-.089,1.946,1.946,0,0,1,.792.615l.03.041Z" transform="translate(-17.604 -0.819)" fill="#fff"/>
    <path id="Trazado_797419" data-name="Trazado 797419" d="M37.4,5.025c.071.089-.1.266-.03.4.089.13.3.118.426.089a2.66,2.66,0,0,0,1.088-.485,4.184,4.184,0,0,1-1.041.367.716.716,0,0,1-.16,0,.138.138,0,0,1-.059-.118.977.977,0,0,1,0-.414L36.467,4.8a.536.536,0,0,0-.237.207c0,.03-.03.071,0,.1.012.041.071.041.118.041.189,0,.952-.237,1.058-.13Z" transform="translate(-14.804 -1.947)" fill="#fff"/>
    <path id="Trazado_797420" data-name="Trazado 797420" d="M39.827,6.8a1.291,1.291,0,0,1-.674.3.56.56,0,0,1-.219-.03.229.229,0,0,1-.059-.307.35.35,0,0,1,.071-.1,2.477,2.477,0,0,1-.645.337c-.207.071-.485.1-.6-.071a.389.389,0,0,1,.03-.414.873.873,0,0,0-.248.674.4.4,0,0,0,.089.307.478.478,0,0,0,.4.148,1.1,1.1,0,0,0,.751-.307.54.54,0,0,0,.526.189.632.632,0,0,0,.219-.071l.1-.041a.134.134,0,0,0,.1-.03,1.39,1.39,0,0,0-.355.3.324.324,0,0,0-.118.219.317.317,0,0,0,.16.248.716.716,0,0,0,.911-.148,1.4,1.4,0,0,1-.544.012c-.148-.03-.355-.089-.278-.278a.469.469,0,0,1,.089-.148,1.406,1.406,0,0,1,.574-.337,2.085,2.085,0,0,1-.384,0,.161.161,0,0,1-.148-.1.176.176,0,0,1,.03-.089,1.562,1.562,0,0,1,.207-.237l.012-.012Z" transform="translate(-15.319 -2.646)" fill="#fff"/>
    <path id="Trazado_797421" data-name="Trazado 797421" d="M35.318,2.194a6.547,6.547,0,0,0,1.218-.248.3.3,0,0,0,.16-.1,1.707,1.707,0,0,1-.237-.012.449.449,0,0,1-.307-.148c-.071-.089-.041-.266.059-.3a1.735,1.735,0,0,0-1,.574c-.059.059-.1.16-.041.219a.222.222,0,0,0,.148.03V2.2Z" transform="translate(-14.364 -0.553)" fill="#fff"/>
    <path id="Trazado_797422" data-name="Trazado 797422" d="M67.992,3.478a1.4,1.4,0,0,0,.189-.012.226.226,0,0,0,.1-.266.706.706,0,0,0-.148-.278A2.373,2.373,0,0,0,69,3.407c.189.071.455.089.556-.089a.379.379,0,0,0-.041-.384c-.012-.03-.03-.041-.059-.071a1.672,1.672,0,0,0,1.218.556c.16,0,.367-.041.426-.207a.318.318,0,0,0-.118-.325,1.227,1.227,0,0,0-.307-.148c.1.041.089.248-.03.3a.548.548,0,0,1-.4-.041,9.043,9.043,0,0,1-1.437-.763h0a1.056,1.056,0,0,1,.414.455c-.443.266-1.1-.384-1.336-.118-.089.1,0,.325-.13.426-.177.177-.485.071-.692-.012A1.444,1.444,0,0,0,68,3.466v.012Z" transform="translate(-27.413 -0.896)" fill="#fff"/>
    <path id="Trazado_797423" data-name="Trazado 797423" d="M64.849,2.843a.481.481,0,0,1-.5-.059c-.237-.118-.473-.219-.692-.337a1.37,1.37,0,0,1,.4.307.633.633,0,0,1,.059.13,1.482,1.482,0,0,0,1.011.367.194.194,0,0,0,.13-.03.446.446,0,0,0,.059-.1.716.716,0,0,0-.207-.645,2.321,2.321,0,0,0-.585-.4.851.851,0,0,1,.384.307.337.337,0,0,1-.041.443l-.012.012Z" transform="translate(-26.019 -0.835)" fill="#fff"/>
    <path id="Trazado_797424" data-name="Trazado 797424" d="M69.838,4.679a1.5,1.5,0,0,0-.367-.219.866.866,0,0,1,.266.337,3.068,3.068,0,0,1-.662-.059c-.118-.03-.384-.118-.426.03a.649.649,0,0,0,.012.148,2,2,0,0,1-.012.266.19.19,0,0,1-.059.118c-.041.03-.1.012-.16,0a4.359,4.359,0,0,1-1.041-.367,2.66,2.66,0,0,0,1.088.485c.13.03.337.041.426-.089s-.1-.307-.03-.4c.089-.1.869.13,1.058.13.041,0,.1,0,.118-.041a.287.287,0,0,0,0-.1.738.738,0,0,0-.207-.248v.012Z" transform="translate(-27.544 -1.808)" fill="#fff"/>
    <path id="Trazado_797425" data-name="Trazado 797425" d="M66.2,11.734A.265.265,0,0,0,66.4,11.5a.949.949,0,0,0-.071-.325,1.836,1.836,0,0,0-.792-.822,1.748,1.748,0,0,1,.526.662.718.718,0,0,1,.089.3.247.247,0,0,1-.177.237c-.16.041-.3-.13-.443-.207a1.812,1.812,0,0,1,.544.7.778.778,0,0,1-.059.544,1.178,1.178,0,0,0-.13-.118,1.338,1.338,0,0,1-.307-.177h-.1a.32.32,0,0,1,.148.237,1.545,1.545,0,0,0,.219.455c.03.041.071.1.13.1.118,0,.177-.13.148-.248a.425.425,0,0,0-.118-.248c.189.03.3-.041.325-.177h0a1.039,1.039,0,0,0-.148-.674Z" transform="translate(-26.763 -4.215)" fill="#fff"/>
    <path id="Trazado_797426" data-name="Trazado 797426" d="M66.48,7.325a2.086,2.086,0,0,1-.384,0,1.936,1.936,0,0,1,.337.148.58.58,0,0,1,.266.189.27.27,0,0,1,.041.307.342.342,0,0,1-.266.13,1.865,1.865,0,0,1-.544-.012.7.7,0,0,0,.911.148c.089-.059.177-.148.16-.248a.324.324,0,0,0-.118-.219,3.055,3.055,0,0,0-.473-.4,1.636,1.636,0,0,0,.544.248.506.506,0,0,0,.526-.189,1.124,1.124,0,0,0,.751.307.478.478,0,0,0,.4-.148.461.461,0,0,0,.089-.307.865.865,0,0,0-.248-.674.432.432,0,0,1,.03.414c-.118.177-.4.148-.6.071a3.935,3.935,0,0,1-.645-.337.241.241,0,0,1,.071.1.229.229,0,0,1-.059.307.389.389,0,0,1-.219.03,1.392,1.392,0,0,1-.674-.3,1.6,1.6,0,0,1,.207.237c.012.03.041.059.03.089,0,.059-.071.089-.148.1h.012Z" transform="translate(-26.947 -2.686)" fill="#fff"/>
    <path id="Trazado_797427" data-name="Trazado 797427" d="M68.037,6.768s-.118-.1-.177-.148C67.919,6.661,67.978,6.721,68.037,6.768Z" transform="translate(-27.736 -2.69)" fill="#fff"/>
    <path id="Trazado_797428" data-name="Trazado 797428" d="M72.955,2.637s-.059.059-.089.041a.75.75,0,0,0,.952.177,2.719,2.719,0,0,1,1.514.928.34.34,0,0,1,.1.219c0,.071-.089.177-.177.13a4.431,4.431,0,0,1,1.455.952c.189.189.266.4.071.615a1.024,1.024,0,0,0,.514.189.49.49,0,0,0,.248-.03c.148-.1.071-.325-.012-.455a3.178,3.178,0,0,0-1.691-1.277.216.216,0,0,0,.13-.248.558.558,0,0,0-.177-.266c-.952-.9-2.572-1.1-3.583-1.6a4.234,4.234,0,0,1,.662.514.145.145,0,0,1,.059.13l.012-.03Z" transform="translate(-29.514 -0.806)" fill="#fff"/>
    <path id="Trazado_797429" data-name="Trazado 797429" d="M48.576,8.251a.3.3,0,0,1-.3-.3.3.3,0,1,1,.3.3Zm0-.426s-.13.059-.13.13a.13.13,0,1,0,.13-.13Z" transform="translate(-19.733 -3.116)" fill="#fff"/>
  </g>
  <g id="Grupo_1083646" data-name="Grupo 1083646" transform="translate(74.81 19.966)">
    <path id="Trazado_797430" data-name="Trazado 797430" d="M133.687,38.357H126.52V34.23h19.418v4.127h-7.167V57.119H133.7V38.357h-.012Z" transform="translate(-126.52 -33.94)" fill="#fff"/>
    <path id="Trazado_797431" data-name="Trazado 797431" d="M163.85,34.22h5.067V57.109H163.85Z" transform="translate(-141.777 -33.936)" fill="#fff"/>
    <path id="Trazado_797432" data-name="Trazado 797432" d="M184.331,55.754a9.858,9.858,0,0,1-3.968-4.127,13.132,13.132,0,0,1-1.384-6.167,13.116,13.116,0,0,1,1.384-6.167,9.829,9.829,0,0,1,3.968-4.115,12.34,12.34,0,0,1,6.055-1.437,13.793,13.793,0,0,1,4.346.692,9.087,9.087,0,0,1,3.406,1.922l-1.632,3.6a11.056,11.056,0,0,0-2.968-1.662,8.969,8.969,0,0,0-3.069-.514,5.764,5.764,0,0,0-4.689,1.951,8.626,8.626,0,0,0-1.644,5.712,8.7,8.7,0,0,0,1.644,5.73,5.775,5.775,0,0,0,4.689,1.969,9.417,9.417,0,0,0,3.069-.514,10.674,10.674,0,0,0,2.968-1.662l1.632,3.6a9.134,9.134,0,0,1-3.406,1.922,13.82,13.82,0,0,1-4.346.692,12.108,12.108,0,0,1-6.055-1.455v.03Z" transform="translate(-147.96 -33.74)" fill="#fff"/>
  </g>
</svg>
