<svg xmlns="http://www.w3.org/2000/svg" width="90" height="90" viewBox="0 0 90 90">
  <g id="Grupo_1083609" data-name="Grupo 1083609" transform="translate(-203 -12824)">
    <rect id="Rectángulo_380801" data-name="Rectángulo 380801" width="90" height="90" transform="translate(203 12824)" fill="none"/>
    <g id="_x31_2_x2C__Documents_x2C__files_x2C__folder_x2C__shield_x2C__secure" transform="translate(206 12826)">
      <g id="XMLID_3085_" transform="translate(0 0)">
        <path id="XMLID_3156_" d="M352.8,328.692l6.553,2.094a.56.56,0,0,1,.3.494v7.68a16.193,16.193,0,0,1-9.924,14.927l-1.71.74a.559.559,0,0,1-.446,0l-1.52-.661a16.225,16.225,0,0,1-9.724-14.849V331.28a.562.562,0,0,1,.291-.492l10.945-3.595a.549.549,0,0,1,.267-.068.54.54,0,0,1,.267.065Zm1.5,8.835a.821.821,0,0,0-1.259-1.055l-7.378,6.3-2.8-2.684a.821.821,0,1,0-1.137,1.185l3.432,3.293a.824.824,0,0,0,.568.228.384.384,0,0,0,.046,0,.82.82,0,0,0,.585-.292Z" transform="translate(-279.983 -270.783)" fill="#94cd3e"/>
        <circle id="XMLID_3155_" cx="2.319" cy="2.319" r="2.319" transform="translate(0.926 76.95)" fill="#5e5e5e"/>
        <circle id="XMLID_3154_" cx="2.319" cy="2.319" r="2.319" transform="translate(78.023 13.087)" fill="#5e5e5e"/>
        <path id="XMLID_3153_" d="M207.631,21.111V78.095l-4.705-1.5a.542.542,0,0,0-.267-.065V37.247L191.766,26.353h-32.71V21.111Z" transform="translate(-134.817 -20.185)" fill="#a4b0bf"/>
        <path id="XMLID_3152_" d="M143.056,50.059H99.574v70.9h45.433a16.219,16.219,0,0,1-2.56-8.732v-7.836a.562.562,0,0,1,.291-.492l10.945-3.595a.549.549,0,0,1,.267-.068V60.953Z" transform="translate(-86.107 -43.891)" fill="#f2f2f2"/>
        <path id="XMLID_3151_" d="M350.58,60.953H339.686V50.059Z" transform="translate(-282.737 -43.891)" fill="#e0e0e0"/>
        <path id="XMLID_3149_" d="M377.5,377.315a.82.82,0,0,1,.1,1.157l-7.941,6.975a.82.82,0,0,1-.585.292.377.377,0,0,1-.046,0,.825.825,0,0,1-.568-.228l-3.432-3.293a.821.821,0,0,1,1.137-1.185l2.8,2.684,7.378-6.3A.822.822,0,0,1,377.5,377.315Z" transform="translate(-303.282 -311.728)"/>
        <path id="XMLID_3148_" d="M140.829,117.7H95.389a.925.925,0,0,1-.926-.926v-70.9a.925.925,0,0,1,.926-.926H138.87a.926.926,0,1,1,0,1.851H96.314v69.046h44.507a.926.926,0,1,1,.007,1.851Z" transform="translate(-81.922 -39.706)"/>
        <path id="XMLID_3147_" d="M395.657,146.385a.925.925,0,0,1-.926-.926V106.03a.926.926,0,1,1,1.851,0v39.43A.926.926,0,0,1,395.657,146.385Z" transform="translate(-327.814 -88.968)"/>
        <path id="XMLID_3144_" d="M346.4,57.693H335.5a.925.925,0,0,1-.926-.926V45.874a.925.925,0,0,1,1.58-.654l10.893,10.894a.926.926,0,0,1-.654,1.58Zm-9.968-1.851h7.733l-7.733-7.734Z" transform="translate(-278.553 -39.706)"/>
        <path id="XMLID_3143_" d="M142.257,77.465h-16.2a.926.926,0,0,1,0-1.851h16.2a.926.926,0,1,1,0,1.851Z" transform="translate(-107.035 -64.818)"/>
        <path id="XMLID_3142_" d="M246.884,77.465h-4.791a.926.926,0,1,1,0-1.851h4.791a.926.926,0,0,1,0,1.851Z" transform="translate(-202.06 -64.818)"/>
        <path id="XMLID_3141_" d="M169.429,148.18H126.055a.926.926,0,1,1,0-1.851h43.375a.926.926,0,0,1,0,1.851Z" transform="translate(-107.035 -122.728)"/>
        <path id="XMLID_3107_" d="M169.429,178.508H126.055a.926.926,0,1,1,0-1.851h43.375a.926.926,0,0,1,0,1.851Z" transform="translate(-107.035 -147.564)"/>
        <path id="XMLID_3106_" d="M169.429,208.837H126.055a.926.926,0,1,1,0-1.851h43.375a.926.926,0,0,1,0,1.851Z" transform="translate(-107.035 -172.4)"/>
        <path id="XMLID_3105_" d="M219.495,270.168h-32.3a.926.926,0,0,1,0-1.851h32.3a.926.926,0,1,1,0,1.851Z" transform="translate(-157.1 -222.625)"/>
        <path id="XMLID_3104_" d="M133.379,270.168h-7.325a.926.926,0,1,1,0-1.851h7.325a.926.926,0,1,1,0,1.851Z" transform="translate(-107.035 -222.625)"/>
        <path id="XMLID_3103_" d="M256.879,239.5H232.843a.926.926,0,0,1,0-1.851h24.036a.926.926,0,1,1,0,1.851Z" transform="translate(-194.484 -197.512)"/>
        <path id="XMLID_3100_" d="M454.2,89.648a3.245,3.245,0,1,1,3.245-3.245A3.249,3.249,0,0,1,454.2,89.648Zm0-4.639a1.394,1.394,0,1,0,1.394,1.394A1.4,1.4,0,0,0,454.2,85.009Z" transform="translate(-373.854 -70.996)"/>
        <path id="XMLID_3097_" d="M28.455,442.3a3.245,3.245,0,1,1,3.245-3.245A3.249,3.249,0,0,1,28.455,442.3Zm0-4.639a1.394,1.394,0,1,0,1.394,1.394A1.4,1.4,0,0,0,28.455,437.665Z" transform="translate(-25.21 -359.79)"/>
        <path id="XMLID_3096_" d="M451.393,475.158h-4.515a.926.926,0,0,1,0-1.851h4.515a.926.926,0,0,1,0,1.851Z" transform="translate(-369.761 -390.493)"/>
        <path id="XMLID_3095_" d="M459.339,467.2a.925.925,0,0,1-.926-.926v-4.517a.926.926,0,0,1,1.851,0v4.517A.925.925,0,0,1,459.339,467.2Z" transform="translate(-379.964 -380.281)"/>
        <path id="XMLID_3094_" d="M48.5,196.8a.926.926,0,0,1-.654-1.58l3.192-3.192a.926.926,0,0,1,1.31,1.308l-3.194,3.194A.922.922,0,0,1,48.5,196.8Z" transform="translate(-43.525 -159.928)"/>
        <path id="XMLID_3093_" d="M51.694,196.8a.923.923,0,0,1-.654-.271l-3.193-3.193a.926.926,0,1,1,1.309-1.309l3.193,3.193a.926.926,0,0,1-.654,1.58Z" transform="translate(-43.525 -159.928)"/>
        <path id="XMLID_3092_" d="M58.188,30.322H53.674a.926.926,0,1,1,0-1.851h4.515a.926.926,0,1,1,0,1.851Z" transform="translate(-47.761 -26.213)"/>
        <path id="XMLID_3091_" d="M66.134,22.368a.925.925,0,0,1-.926-.926V16.926a.926.926,0,0,1,1.851,0v4.517A.925.925,0,0,1,66.134,22.368Z" transform="translate(-57.965 -16)"/>
        <path id="XMLID_3090_" d="M203.446,74.887a.925.925,0,0,1-.926-.926V17.851H155.8v4.317a.926.926,0,0,1-1.851,0V16.926A.925.925,0,0,1,154.87,16h48.576a.925.925,0,0,1,.926.926V73.961A.925.925,0,0,1,203.446,74.887Z" transform="translate(-130.632 -16)"/>
        <path id="XMLID_3089_" d="M140.7,239.5H126.055a.926.926,0,1,1,0-1.851H140.7a.926.926,0,1,1,0,1.851Z" transform="translate(-107.035 -197.512)"/>
        <path id="XMLID_3086_" d="M343.6,351.412a1.474,1.474,0,0,1-.6-.128l-1.511-.657a17.1,17.1,0,0,1-7.574-6.468h0a17.132,17.132,0,0,1-2.706-9.229v-7.837a1.49,1.49,0,0,1,.766-1.3.909.909,0,0,1,.161-.07l10.883-3.574a1.518,1.518,0,0,1,.643-.136,1.45,1.45,0,0,1,.584.128l11.2,3.577a.941.941,0,0,1,.152.064,1.481,1.481,0,0,1,.788,1.312v7.68A17.084,17.084,0,0,1,345.9,350.554l-1.7.736A1.5,1.5,0,0,1,343.6,351.412Zm-8.127-8.25a15.255,15.255,0,0,0,6.755,5.769l1.374.6,1.563-.677a15.239,15.239,0,0,0,9.366-14.078v-7.4l-10.889-3.479-10.583,3.476v7.562a15.282,15.282,0,0,0,2.414,8.233Z" transform="translate(-275.798 -266.596)"/>
      </g>
    </g>
  </g>
</svg>
