<svg xmlns="http://www.w3.org/2000/svg" width="90" height="90" viewBox="0 0 90 90">
  <g id="Grupo_1083611" data-name="Grupo 1083611" transform="translate(-1042 -12824)">
    <rect id="Rectángulo_380805" data-name="Rectángulo 380805" width="90" height="90" transform="translate(1042 12824)" fill="none"/>
    <g id="_x37__x2C__Lock_x2C__password_x2C__protection_x2C__file_x2C__documents" transform="translate(1044 12826)">
      <g id="XMLID_7944_" transform="translate(0 0)">
        <path id="XMLID_7991_" d="M380.754,259.354H360.612a1.849,1.849,0,0,0-1.851,1.849v16.583a1.85,1.85,0,0,0,1.851,1.851h20.143a1.852,1.852,0,0,0,1.851-1.851V261.2A1.85,1.85,0,0,0,380.754,259.354Z" transform="translate(-296.69 -215.769)" fill="#f17722"/>
        <path id="XMLID_7990_" d="M454.348,24.246a2.556,2.556,0,1,1-2.557,2.557A2.556,2.556,0,0,1,454.348,24.246Z" transform="translate(-372.874 -23.237)" fill="#a4b0bf"/>
        <path id="XMLID_7989_" d="M415.527,293.89a2.006,2.006,0,1,1-2,2.006A2.008,2.008,0,0,1,415.527,293.89Z" transform="translate(-341.535 -244.051)" fill="#4c4c4c"/>
        <path id="XMLID_7988_" d="M141.538,40.679V28.671H93.608V106.82h59.937V90.727h-10.07a1.85,1.85,0,0,1-1.851-1.851V72.294a1.849,1.849,0,0,1,1.851-1.849h2.815v-5.83a7.276,7.276,0,0,1,7.255-7.257V40.679Z" transform="translate(-79.554 -26.861)" fill="#f2f2f2"/>
        <path id="XMLID_7987_" d="M370.289,40.679H358.281V28.671Z" transform="translate(-296.297 -26.861)" fill="#e0e0e0"/>
        <path id="XMLID_7986_" d="M134.161,160.116h7.257v7.257h-7.257Z" transform="translate(-112.763 -134.502)" fill="#f5bb57"/>
        <path id="XMLID_7985_" d="M134.161,75.42h7.257v7.257h-7.257Z" transform="translate(-112.763 -65.144)" fill="#94cd3e"/>
        <path id="XMLID_7984_" d="M29.444,459.525a2.556,2.556,0,1,1-2.557,2.557,2.556,2.556,0,0,1,2.557-2.557Z" transform="translate(-24.915 -379.691)" fill="#a4b0bf"/>
        <path id="XMLID_7983_" d="M148.982,103.266H89.045a1.009,1.009,0,0,1-1.009-1.009V24.108A1.009,1.009,0,0,1,89.045,23.1h47.93a1.009,1.009,0,0,1,0,2.018H90.054v76.131h57.919V86.164a1.009,1.009,0,0,1,2.018,0v16.092A1.009,1.009,0,0,1,148.982,103.266Z" transform="translate(-74.991 -22.298)"/>
        <path id="XMLID_7982_" d="M420.025,107.391a1.009,1.009,0,0,1-1.009-1.009V90.415a1.009,1.009,0,0,1,2.018,0v15.967A1.009,1.009,0,0,1,420.025,107.391Z" transform="translate(-346.034 -76.597)"/>
        <path id="XMLID_7979_" d="M365.725,37.125H353.717a1.009,1.009,0,0,1-1.009-1.009V24.108a1.009,1.009,0,0,1,1.723-.713L366.438,35.4a1.009,1.009,0,0,1-.714,1.722Zm-11-2.018h8.563l-8.562-8.562Z" transform="translate(-291.733 -22.298)"/>
        <path id="XMLID_7976_" d="M410.963,294.348a3.015,3.015,0,1,1,3.015-3.015A3.017,3.017,0,0,1,410.963,294.348Zm0-4.012a1,1,0,1,0,1,1A1,1,0,0,0,410.963,290.336Z" transform="translate(-336.972 -239.488)"/>
        <path id="XMLID_7975_" d="M420.025,316.251a1.009,1.009,0,0,1-1.009-1.009v-3.76a1.009,1.009,0,0,1,2.018,0v3.76A1.009,1.009,0,0,1,420.025,316.251Z" transform="translate(-346.034 -257.631)"/>
        <path id="XMLID_7974_" d="M394.475,196.617a1.009,1.009,0,0,1-1.009-1.009v-5.83a6.247,6.247,0,1,0-12.494,0v5.83a1.009,1.009,0,1,1-2.018,0v-5.83a8.265,8.265,0,1,1,16.53,0v5.83A1.009,1.009,0,0,1,394.475,196.617Z" transform="translate(-313.227 -152.024)"/>
        <path id="XMLID_7971_" d="M376.19,276.083H356.048a2.863,2.863,0,0,1-2.86-2.86V256.641a2.862,2.862,0,0,1,2.86-2.858H376.19a2.862,2.862,0,0,1,2.86,2.858v16.583a2.863,2.863,0,0,1-2.86,2.86ZM356.048,255.8a.842.842,0,0,0-.842.84v16.583a.843.843,0,0,0,.842.842H376.19a.843.843,0,0,0,.841-.842V256.64a.842.842,0,0,0-.841-.84Z" transform="translate(-292.127 -211.207)"/>
        <path id="XMLID_7970_" d="M205.24,111.941H187.38a1.009,1.009,0,0,1,0-2.018h17.86a1.009,1.009,0,0,1,0,2.018Z" transform="translate(-155.518 -93.399)"/>
        <path id="XMLID_7969_" d="M205.24,71.866H187.38a1.009,1.009,0,0,1,0-2.018h17.86a1.009,1.009,0,0,1,0,2.018Z" transform="translate(-155.518 -60.581)"/>
        <path id="XMLID_7968_" d="M198.581,91.9h-11.2a1.009,1.009,0,0,1,0-2.018h11.2a1.009,1.009,0,0,1,0,2.018Z" transform="translate(-155.519 -76.99)"/>
        <path id="XMLID_7967_" d="M276.277,91.9h-2.151a1.009,1.009,0,0,1,0-2.018h2.151a1.009,1.009,0,0,1,0,2.018Z" transform="translate(-226.556 -76.99)"/>
        <path id="XMLID_7964_" d="M136.855,79.123H129.6a1.009,1.009,0,0,1-1.009-1.009V70.857a1.009,1.009,0,0,1,1.009-1.009h7.257a1.009,1.009,0,0,1,1.009,1.009v7.257A1.009,1.009,0,0,1,136.855,79.123Zm-6.248-2.018h5.239V71.866h-5.239Z" transform="translate(-108.2 -60.581)"/>
        <path id="XMLID_7963_" d="M205.24,196.636H187.38a1.009,1.009,0,0,1,0-2.018h17.86a1.009,1.009,0,0,1,0,2.018Z" transform="translate(-155.518 -162.756)"/>
        <path id="XMLID_7962_" d="M205.24,156.562H187.38a1.009,1.009,0,1,1,0-2.018h17.86a1.009,1.009,0,0,1,0,2.018Z" transform="translate(-155.518 -129.939)"/>
        <path id="XMLID_7961_" d="M198.581,176.6h-11.2a1.009,1.009,0,0,1,0-2.018h11.2a1.009,1.009,0,0,1,0,2.018Z" transform="translate(-155.519 -146.348)"/>
        <path id="XMLID_7960_" d="M276.277,176.6h-2.151a1.009,1.009,0,0,1,0-2.018h2.151a1.009,1.009,0,0,1,0,2.018Z" transform="translate(-226.556 -146.348)"/>
        <path id="XMLID_7957_" d="M136.855,163.819H129.6a1.009,1.009,0,0,1-1.009-1.009v-7.257a1.009,1.009,0,0,1,1.009-1.009h7.257a1.009,1.009,0,0,1,1.009,1.009v7.257A1.009,1.009,0,0,1,136.855,163.819Zm-6.248-2.018h5.239v-5.239h-5.239Z" transform="translate(-108.2 -129.939)"/>
        <path id="XMLID_7954_" d="M449.785,25.8a3.565,3.565,0,1,1,3.564-3.564A3.569,3.569,0,0,1,449.785,25.8Zm0-5.112a1.547,1.547,0,1,0,1.546,1.548A1.55,1.55,0,0,0,449.785,20.692Z" transform="translate(-368.311 -18.674)"/>
        <path id="XMLID_7951_" d="M24.882,461.082a3.565,3.565,0,1,1,3.564-3.564A3.569,3.569,0,0,1,24.882,461.082Zm0-5.112a1.547,1.547,0,1,0,1.546,1.548A1.549,1.549,0,0,0,24.882,455.97Z" transform="translate(-20.353 -375.127)"/>
        <path id="XMLID_7950_" d="M452.576,149.251H447.6a1.009,1.009,0,0,1,0-2.018h4.979a1.009,1.009,0,0,1,0,2.018Z" transform="translate(-368.613 -123.952)"/>
        <path id="XMLID_7949_" d="M461.348,140.49a1.009,1.009,0,0,1-1.009-1.009V134.5a1.009,1.009,0,0,1,2.018,0v4.979A1.009,1.009,0,0,1,461.348,140.49Z" transform="translate(-379.874 -112.7)"/>
        <path id="XMLID_7948_" d="M17.009,150.364a1.009,1.009,0,0,1-.713-1.723l3.519-3.52a1.009,1.009,0,1,1,1.427,1.427l-3.519,3.519A1.006,1.006,0,0,1,17.009,150.364Z" transform="translate(-16 -121.981)"/>
        <path id="XMLID_7947_" d="M20.53,150.364a1.006,1.006,0,0,1-.713-.3l-3.519-3.52a1.009,1.009,0,1,1,1.427-1.427l3.519,3.519a1.009,1.009,0,0,1-.713,1.723Z" transform="translate(-16.001 -121.981)"/>
        <path id="XMLID_7946_" d="M451.327,463.36h-4.979a1.009,1.009,0,0,1,0-2.018h4.979a1.009,1.009,0,0,1,0,2.018Z" transform="translate(-367.59 -381.179)"/>
        <path id="XMLID_7945_" d="M460.1,454.6a1.009,1.009,0,0,1-1.009-1.009V448.61a1.009,1.009,0,0,1,2.018,0v4.979A1.009,1.009,0,0,1,460.1,454.6Z" transform="translate(-378.852 -369.927)"/>
      </g>
    </g>
  </g>
</svg>
