<svg xmlns="http://www.w3.org/2000/svg" width="90" height="90" viewBox="0 0 90 90">
  <g id="Grupo_1083610" data-name="Grupo 1083610" transform="translate(-623 -12824)">
    <rect id="Rectángulo_380802" data-name="Rectángulo 380802" width="90" height="90" transform="translate(623 12824)" fill="none"/>
    <g id="_x34_0_x2C__Add_x2C__plus_x2C__security_x2C__shield_x2C__protect" transform="translate(625 12826)">
      <g id="XMLID_9760_" transform="translate(0 0)">
        <path id="XMLID_9816_" d="M158.379,98.647c-6.55,5.745-13.973,9.882-22.986,11.11,0,17.937,2.045,39.336,22.986,45.181,20.941-5.845,22.986-27.244,22.986-45.181C172.354,108.529,164.929,104.392,158.379,98.647Z" transform="translate(-113.914 -83.68)" fill="#4c4c4c"/>
        <path id="XMLID_9815_" d="M202.232,180.687a13.289,13.289,0,1,1-13.289,13.289A13.288,13.288,0,0,1,202.232,180.687Z" transform="translate(-157.766 -150.864)" fill="#94cd3e"/>
        <path id="XMLID_9814_" d="M462.08,26.61a2.488,2.488,0,1,1-2.489,2.487A2.488,2.488,0,0,1,462.08,26.61Z" transform="translate(-379.403 -24.689)" fill="#5e5e5e"/>
        <g id="Grupo_1083608" data-name="Grupo 1083608" transform="translate(3.273 1.921)">
          <path id="XMLID_9813_" d="M454.328,236.343h-7.843l3.924-3.918Z" transform="translate(-371.943 -195.154)" fill="#4acffa"/>
          <path id="XMLID_9812_" d="M266.255,442.158l-3.919,3.922V438.24Z" transform="translate(-221.141 -363.698)" fill="#4acffa"/>
          <path id="XMLID_9811_" d="M42.7,254.069l-3.923,3.923-3.922-3.923Z" transform="translate(-34.855 -212.878)" fill="#4acffa"/>
          <path id="XMLID_9810_" d="M244.592,26.61v7.839l-3.922-3.924Z" transform="translate(-203.399 -26.61)" fill="#4acffa"/>
        </g>
        <path id="XMLID_9807_" d="M153.937,151.479a.989.989,0,0,1-.264-.036,29.05,29.05,0,0,1-12.853-7.251,31.417,31.417,0,0,1-7.148-11.405c-3.263-8.679-3.7-18.757-3.7-27.47a.982.982,0,0,1,.85-.973c8.023-1.093,15.373-4.65,22.471-10.875a.982.982,0,0,1,1.3,0c7.1,6.225,14.448,9.782,22.471,10.875a.982.982,0,0,1,.85.973c0,8.714-.44,18.791-3.7,27.47a31.419,31.419,0,0,1-7.148,11.405,29.049,29.049,0,0,1-12.854,7.251.993.993,0,0,1-.264.036Zm-22-45.315c.03,8.337.528,17.823,3.576,25.931,3.426,9.111,9.455,14.8,18.426,17.38,8.972-2.581,15-8.269,18.426-17.38,3.048-8.109,3.546-17.594,3.576-25.931-7.841-1.237-15.055-4.733-22-10.659-6.947,5.927-14.161,9.422-22,10.659Z" transform="translate(-109.472 -79.239)"/>
        <path id="XMLID_9804_" d="M197.789,203.8a14.271,14.271,0,1,1,14.271-14.271A14.287,14.287,0,0,1,197.789,203.8Zm0-26.578A12.306,12.306,0,1,0,210.1,189.533,12.321,12.321,0,0,0,197.789,177.227Z" transform="translate(-153.324 -146.421)"/>
        <path id="XMLID_9803_" d="M227.424,234.326a.982.982,0,0,1-.68-.273l-5.159-4.945a.982.982,0,1,1,1.359-1.418l4.4,4.218,7.066-8.44a.982.982,0,0,1,1.507,1.261l-7.741,9.246a.982.982,0,0,1-.7.35Z" transform="translate(-184.249 -185.609)"/>
        <path id="XMLID_9800_" d="M457.638,28.127a3.471,3.471,0,1,1,3.47-3.471A3.476,3.476,0,0,1,457.638,28.127Zm0-4.976a1.506,1.506,0,1,0,1.5,1.5A1.507,1.507,0,0,0,457.638,23.151Z" transform="translate(-374.961 -20.247)"/>
        <path id="XMLID_9799_" d="M22.609,434.249H17.764a.982.982,0,0,1,0-1.964h4.845a.982.982,0,1,1,0,1.964Z" transform="translate(-16.782 -356.9)"/>
        <path id="XMLID_9798_" d="M31.14,425.708a.982.982,0,0,1-.982-.982v-4.847a.982.982,0,1,1,1.964,0v4.847A.982.982,0,0,1,31.14,425.708Z" transform="translate(-27.736 -345.936)"/>
        <path id="XMLID_9780_" d="M44.517,21.391a.982.982,0,0,1-.694-1.677l3.428-3.426a.982.982,0,1,1,1.389,1.389L45.211,21.1A.98.98,0,0,1,44.517,21.391Z" transform="translate(-38.69 -16)"/>
        <path id="XMLID_9779_" d="M47.945,21.391a.98.98,0,0,1-.695-.288l-3.428-3.426a.982.982,0,1,1,1.389-1.39l3.429,3.427a.982.982,0,0,1-.695,1.677Z" transform="translate(-38.69 -16)"/>
        <path id="XMLID_9778_" d="M456.565,473.739H451.72a.982.982,0,1,1,0-1.964h4.845a.982.982,0,0,1,0,1.964Z" transform="translate(-372.153 -389.239)"/>
        <path id="XMLID_9777_" d="M465.1,465.2a.982.982,0,0,1-.982-.982V459.37a.982.982,0,1,1,1.964,0v4.847A.982.982,0,0,1,465.1,465.2Z" transform="translate(-383.107 -378.276)"/>
        <path id="XMLID_9776_" d="M107.7,364.4a38.259,38.259,0,0,1-34.087-20.884.982.982,0,1,1,1.75-.892A36.135,36.135,0,0,0,107.7,362.433a.982.982,0,0,1,0,1.965Z" transform="translate(-63.236 -283.035)"/>
        <path id="XMLID_9773_" d="M257.893,442.619a.982.982,0,0,1-.982-.982V433.8a.982.982,0,0,1,1.677-.695l3.919,3.918a.982.982,0,0,1,0,1.389l-3.92,3.921A.981.981,0,0,1,257.893,442.619Zm.983-6.451v3.1l1.548-1.549Z" transform="translate(-213.426 -357.334)"/>
        <path id="XMLID_9772_" d="M351.314,283.81a.982.982,0,0,1-.447-1.858,36.132,36.132,0,0,0,19.817-32.335.982.982,0,0,1,1.964,0,38.255,38.255,0,0,1-20.89,34.085A.978.978,0,0,1,351.314,283.81Z" transform="translate(-289.928 -206.507)"/>
        <path id="XMLID_9769_" d="M449.886,232.883h-7.843a.982.982,0,0,1-.694-1.677l3.923-3.918a.982.982,0,0,1,1.388,0l3.92,3.918a.982.982,0,0,1-.694,1.677Zm-5.469-1.965h3.1l-1.548-1.547Z" transform="translate(-364.228 -188.791)"/>
        <path id="XMLID_9768_" d="M291.1,65.127a.983.983,0,0,1-.876-.536,36.134,36.134,0,0,0-32.333-19.817.982.982,0,1,1,0-1.964A38.263,38.263,0,0,1,291.977,63.7a.982.982,0,0,1-.874,1.428Z" transform="translate(-213.426 -37.954)"/>
        <path id="XMLID_9765_" d="M240.15,30.988a.982.982,0,0,1-.7-.288l-3.921-3.924a.982.982,0,0,1,0-1.39l3.921-3.916a.982.982,0,0,1,1.676.7v7.839a.982.982,0,0,1-.982.982Zm-2.532-4.905,1.55,1.55v-3.1Z" transform="translate(-195.684 -20.246)"/>
        <path id="XMLID_9764_" d="M52.068,100.437a.982.982,0,0,1-.982-.982A38.249,38.249,0,0,1,71.974,65.373a.982.982,0,0,1,.892,1.751A36.122,36.122,0,0,0,53.05,99.454a.982.982,0,0,1-.982.982Z" transform="translate(-44.874 -56.344)"/>
        <path id="XMLID_9761_" d="M34.335,254.532a.983.983,0,0,1-.695-.288l-3.921-3.923a.982.982,0,0,1,.695-1.677h7.845a.982.982,0,0,1,.695,1.677l-3.923,3.923A.981.981,0,0,1,34.335,254.532Zm-1.551-3.923,1.551,1.552,1.552-1.552Z" transform="translate(-27.141 -206.514)"/>
      </g>
    </g>
  </g>
</svg>
