<svg xmlns="http://www.w3.org/2000/svg" width="32.156" height="32.156" viewBox="0 0 32.156 32.156">
  <g id="Grupo_1064850" data-name="Grupo 1064850" transform="translate(-301.078 -878.668)">
    <circle id="Elipse_8618" data-name="Elipse 8618" cx="16.078" cy="16.078" r="16.078" transform="translate(301.078 878.668)" fill="#8f52f5"/>
    <path id="Trazado_781961" data-name="Trazado 781961" d="M169.6,199.745c1.67-1.673,3.27-3.283,4.88-4.882a1.088,1.088,0,0,1,1.823.213,1.006,1.006,0,0,1-.186,1.211q-2.857,2.883-5.74,5.741A1.038,1.038,0,0,1,168.82,202q-1.386-1.349-2.736-2.735a1.085,1.085,0,1,1,1.529-1.536c.664.644,1.3,1.317,1.987,2.018" transform="translate(146.064 696.612)" fill="#fff"/>
  </g>
</svg>
