<svg xmlns="http://www.w3.org/2000/svg" xmlns:xlink="http://www.w3.org/1999/xlink" width="112" height="112" viewBox="0 0 112 112">
  <defs>
    <filter id="Elipse_8619" x="0" y="0" width="112" height="112" filterUnits="userSpaceOnUse">
      <feOffset dx="3" dy="3" input="SourceAlpha"/>
      <feGaussianBlur stdDeviation="3" result="blur"/>
      <feFlood flood-opacity="0.161"/>
      <feComposite operator="in" in2="blur"/>
      <feComposite in="SourceGraphic"/>
    </filter>
  </defs>
  <g id="Grupo_1083653" data-name="Grupo 1083653" transform="translate(-275 -1953)">
    <g transform="matrix(1, 0, 0, 1, 275, 1953)" filter="url(#Elipse_8619)">
      <g id="Elipse_8619-2" data-name="Elipse 8619" transform="translate(6 6)" fill="#ffb206" stroke="#fff" stroke-width="2">
        <circle cx="47" cy="47" r="47" stroke="none"/>
        <circle cx="47" cy="47" r="46" fill="none"/>
      </g>
    </g>
    <path id="_013-performance_report" data-name="013-performance report" d="M72.708,17.359a.7.7,0,0,1,.7-.7h6.278a.7.7,0,1,1,0,1.408H73.412A.7.7,0,0,1,72.708,17.359Zm.7,3.662h10.2a.7.7,0,1,0,0-1.408h-10.2a.7.7,0,1,0,0,1.408Zm-10.2-4.366h5.915a.7.7,0,0,1,.472.182l.419-.419a.7.7,0,1,1,1,1L69.83,18.6v4.678a.7.7,0,0,1-.7.7H63.211a.7.7,0,0,1-.7-.7V17.359A.7.7,0,0,1,63.211,16.655Zm.7,5.915h4.507V20L66.667,21.76a.7.7,0,0,1-1,0l-1.116-1.116a.7.7,0,1,1,1-1l.618.618,2.2-2.2H63.915V22.57Zm9.5,1.408h10.2a.7.7,0,1,0,0-1.408h-10.2a.7.7,0,1,0,0,1.408Zm0,5.614h6.278a.7.7,0,1,0,0-1.408H73.412a.7.7,0,1,0,0,1.408Zm0,2.957h10.2a.7.7,0,1,0,0-1.408h-10.2a.7.7,0,1,0,0,1.408Zm0,2.958h10.2a.7.7,0,1,0,0-1.408h-10.2a.7.7,0,1,0,0,1.408Zm-2.4-7.56a.7.7,0,0,1,0,1L69.83,30.125V34.8a.7.7,0,0,1-.7.7H63.211a.7.7,0,0,1-.7-.7V28.888a.7.7,0,0,1,.7-.7h5.915a.7.7,0,0,1,.472.182l.419-.419a.7.7,0,0,1,1,0Zm-2.59,3.586-1.755,1.755a.7.7,0,0,1-1,0l-1.116-1.116a.7.7,0,1,1,1-1l.618.618,2.2-2.2H63.915V34.1h4.507V31.534ZM66.084,44.175v4.011a.7.7,0,0,1-.7.7H62.845a.7.7,0,0,1-.7-.7V44.175a.7.7,0,0,1,.7-.7H65.38A.7.7,0,0,1,66.084,44.175Zm-1.408.7H63.549v2.6h1.127Zm6.362-2.573v5.88a.7.7,0,0,1-.7.7H67.8a.7.7,0,0,1-.7-.7v-5.88a.7.7,0,0,1,.7-.7h2.535A.7.7,0,0,1,71.038,42.306Zm-1.408.7H68.5v4.471h1.127Zm2.418,5.175V40.13a.7.7,0,0,1,.7-.7h2.535a.7.7,0,0,1,.7.7v8.056a.7.7,0,0,1-.7.7H72.752A.7.7,0,0,1,72.048,48.186Zm1.408-.7h1.127V40.834H73.456ZM96.45,42.454A7.356,7.356,0,0,1,91.2,49.492v3.575A1.637,1.637,0,0,1,89.563,54.7H57.9a1.637,1.637,0,0,1-1.636-1.635V10.624A1.637,1.637,0,0,1,57.9,8.989h8.144V8.5a.7.7,0,0,1,.7-.7h3.819V7.165a3.166,3.166,0,0,1,6.331,0v.626h3.819a.7.7,0,0,1,.7.7v.493h8.144A1.637,1.637,0,0,1,91.2,10.624V35.415a7.356,7.356,0,0,1,5.251,7.038ZM81.42,11.783h6.214a.7.7,0,0,1,.7.7V35.15a7.389,7.389,0,0,1,.768-.04c.231,0,.459.012.684.033V10.624a.23.23,0,0,0-.227-.227H81.42ZM71.973,7.792h3.514V7.165a1.757,1.757,0,0,0-3.514,0v.626ZM67.45,13.579H80.011V9.2H67.45Zm-1.408.7V13.191h-5.51V50.5h26.4V49.468a7.345,7.345,0,0,1,0-14.029V13.191H81.42v1.092a.7.7,0,0,1-.7.7H66.745a.7.7,0,0,1-.7-.7ZM89.79,49.764c-.226.021-.454.033-.684.033a7.389,7.389,0,0,1-.768-.04V51.2a.7.7,0,0,1-.7.7H59.827a.7.7,0,0,1-.7-.7V12.487a.7.7,0,0,1,.7-.7h6.214V10.4H57.9a.23.23,0,0,0-.227.227V53.066a.23.23,0,0,0,.227.227H89.563a.23.23,0,0,0,.227-.227Zm5.251-7.311a5.935,5.935,0,1,0-5.935,5.935A5.942,5.942,0,0,0,95.041,42.454Zm-3.408-2.671-3.848,3.848-1.207-1.207a.7.7,0,0,0-1,1l1.7,1.7a.7.7,0,0,0,1,0l4.346-4.346a.7.7,0,1,0-1-1Z" transform="translate(251.738 1977)"/>
  </g>
</svg>
