<svg xmlns="http://www.w3.org/2000/svg" xmlns:xlink="http://www.w3.org/1999/xlink" width="112" height="112" viewBox="0 0 112 112">
  <defs>
    <filter id="Elipse_8622" x="0" y="0" width="112" height="112" filterUnits="userSpaceOnUse">
      <feOffset dx="3" dy="3" input="SourceAlpha"/>
      <feGaussianBlur stdDeviation="3" result="blur"/>
      <feFlood flood-opacity="0.161"/>
      <feComposite operator="in" in2="blur"/>
      <feComposite in="SourceGraphic"/>
    </filter>
  </defs>
  <g id="Grupo_1083656" data-name="Grupo 1083656" transform="translate(-1220 -1953)">
    <g transform="matrix(1, 0, 0, 1, 1220, 1953)" filter="url(#Elipse_8622)">
      <g id="Elipse_8622-2" data-name="Elipse 8622" transform="translate(6 6)" fill="#8f52f5" stroke="#fff" stroke-width="2">
        <circle cx="47" cy="47" r="47" stroke="none"/>
        <circle cx="47" cy="47" r="46" fill="none"/>
      </g>
    </g>
    <path id="_019-risk_management" data-name="019-risk management" d="M32.834,68.282A8.135,8.135,0,1,0,24.7,76.417,8.145,8.145,0,0,0,32.834,68.282ZM24.7,75.008a6.727,6.727,0,1,1,6.727-6.727A6.735,6.735,0,0,1,24.7,75.008Zm29.723,8.8L43.03,64.082l2.007-1.158a.7.7,0,0,0,.258-.962l-4.824-8.356a.7.7,0,0,0-.962-.258l-4.33,2.5a16.118,16.118,0,0,0-4.951-2.863v-5a.7.7,0,0,0-.7-.7H19.875a.7.7,0,0,0-.7.7v5a16.112,16.112,0,0,0-4.951,2.863l-4.331-2.5a.7.7,0,0,0-.962.258L4.1,61.961a.7.7,0,0,0,.258.962l4.328,2.5a16.384,16.384,0,0,0,0,5.72l-4.328,2.5A.7.7,0,0,0,4.1,74.6l4.824,8.356a.7.7,0,0,0,.962.258l4.331-2.5a16.114,16.114,0,0,0,4.951,2.863v5a.7.7,0,0,0,.7.7h9.649a.7.7,0,0,0,.7-.7V86.99h22.36a2.118,2.118,0,0,0,1.834-3.177Zm-25.6,4.057h-8.24V83.075a.7.7,0,0,0-.486-.669,14.743,14.743,0,0,1-5.319-3.076.7.7,0,0,0-.823-.086l-4.156,2.4-4.12-7.136,4.152-2.4a.7.7,0,0,0,.337-.755,14.966,14.966,0,0,1,0-6.148.7.7,0,0,0-.337-.755l-4.153-2.4,4.12-7.136,4.156,2.4a.7.7,0,0,0,.823-.086,14.744,14.744,0,0,1,5.319-3.076.7.7,0,0,0,.486-.669V48.693h8.24v4.794a.7.7,0,0,0,.486.669,14.745,14.745,0,0,1,5.319,3.076.7.7,0,0,0,.823.086l4.156-2.4,4.12,7.136-1.466.847a2.12,2.12,0,0,0-3.308.464L27.143,83.813a2.118,2.118,0,0,0,1.676,3.171v.886ZM53.2,85.227a.676.676,0,0,1-.615.355H28.978a.71.71,0,0,1-.615-1.065l11.8-20.447a.71.71,0,0,1,1.23,0L53.2,84.517A.677.677,0,0,1,53.2,85.227ZM40.779,66.741a2.149,2.149,0,0,0-2.147,2.147v9.076a2.147,2.147,0,0,0,4.293,0V68.888A2.149,2.149,0,0,0,40.779,66.741Zm.738,11.222a.738.738,0,0,1-1.477,0V68.888a.738.738,0,0,1,1.477,0ZM40.779,80.6a2.147,2.147,0,1,0,2.147,2.147A2.149,2.149,0,0,0,40.779,80.6Zm0,2.885a.738.738,0,1,1,.738-.738A.739.739,0,0,1,40.779,83.483Z" transform="translate(1243.991 1937.715)" fill="#fff"/>
  </g>
</svg>
