<svg xmlns="http://www.w3.org/2000/svg" xmlns:xlink="http://www.w3.org/1999/xlink" width="112" height="112" viewBox="0 0 112 112">
  <defs>
    <filter id="Elipse_8621" x="0" y="0" width="112" height="112" filterUnits="userSpaceOnUse">
      <feOffset dx="3" dy="3" input="SourceAlpha"/>
      <feGaussianBlur stdDeviation="3" result="blur"/>
      <feFlood flood-opacity="0.161"/>
      <feComposite operator="in" in2="blur"/>
      <feComposite in="SourceGraphic"/>
    </filter>
  </defs>
  <g id="Grupo_1083654" data-name="Grupo 1083654" transform="translate(-590 -1953)">
    <g transform="matrix(1, 0, 0, 1, 590, 1953)" filter="url(#Elipse_8621)">
      <g id="Elipse_8621-2" data-name="Elipse 8621" transform="translate(6 6)" fill="#8f52f5" stroke="#fff" stroke-width="2">
        <circle cx="47" cy="47" r="47" stroke="none"/>
        <circle cx="47" cy="47" r="46" fill="none"/>
      </g>
    </g>
    <path id="_023-performance" data-name="023-performance" d="M9.233,78.27H4.7a.7.7,0,0,0-.7.7V89.98a.7.7,0,0,0,.7.7H9.233a.7.7,0,0,0,.7-.7V78.975A.7.7,0,0,0,9.233,78.27Zm-.7,11.006H5.408v-9.6h3.12v9.6Zm9.551-19.607H13.551a.7.7,0,0,0-.7.7V89.98a.7.7,0,0,0,.7.7h4.529a.7.7,0,0,0,.7-.7V70.373A.7.7,0,0,0,18.079,69.669Zm-.7,19.607h-3.12v-18.2h3.12ZM26.926,74.86H22.4a.7.7,0,0,0-.7.7V89.981a.7.7,0,0,0,.7.7h4.529a.7.7,0,0,0,.7-.7V75.564A.7.7,0,0,0,26.926,74.86Zm-.7,14.416H23.1V76.269h3.12ZM6.968,68.915A2.008,2.008,0,0,0,8.8,66.078l6.152-5.961a2,2,0,0,0,2.129-.255l5.6,3.285a2.011,2.011,0,1,0,3.646-.781L32.99,53a2.01,2.01,0,1,0-1.148-.815L25.179,61.55a1.99,1.99,0,0,0-1.785.382l-5.6-3.285a2.011,2.011,0,1,0-3.823.46L7.81,65.077a2.011,2.011,0,1,0-.842,3.837Zm26.539-18.46a.6.6,0,1,1-.6.6A.6.6,0,0,1,33.508,50.455ZM24.661,62.889a.6.6,0,1,1-.6.6A.6.6,0,0,1,24.661,62.889ZM15.815,57.7a.6.6,0,1,1-.6.6A.6.6,0,0,1,15.815,57.7ZM6.968,66.3a.6.6,0,1,1-.6.6A.6.6,0,0,1,6.968,66.3ZM54.35,81.943l-2.041-1.179a8.84,8.84,0,0,0,0-2.613l2.041-1.179a.7.7,0,0,0,.258-.962l-2.5-4.333a.7.7,0,0,0-.962-.258L49.1,72.6a8.684,8.684,0,0,0-2.262-1.308V68.935a.7.7,0,0,0-.7-.7h-5a.7.7,0,0,0-.7.7v2.356A8.684,8.684,0,0,0,38.166,72.6l-1.69-.976V63.13a.7.7,0,0,0-.7-.7H31.244a.7.7,0,0,0-.7.7v26.85a.7.7,0,0,0,.7.7h4.529a.7.7,0,0,0,.7-.7V87.292l1.69-.976a8.684,8.684,0,0,0,2.262,1.308V89.98a.7.7,0,0,0,.7.7h5a.7.7,0,0,0,.7-.7V87.624A8.684,8.684,0,0,0,49.1,86.316L51.145,87.5a.7.7,0,0,0,.962-.258l2.5-4.333a.7.7,0,0,0-.258-.962ZM35.068,89.276h-3.12V63.834h3.12v8.007l-2.407,4.17a.7.7,0,0,0,.258.962l2.041,1.179a8.84,8.84,0,0,0,0,2.613l-2.041,1.179a.7.7,0,0,0-.258.962l2.407,4.17Zm16.171-3.353-1.862-1.075a.7.7,0,0,0-.823.086,7.31,7.31,0,0,1-2.637,1.525.7.7,0,0,0-.486.669v2.147h-3.6V87.129a.7.7,0,0,0-.486-.669,7.309,7.309,0,0,1-2.637-1.525.7.7,0,0,0-.823-.086L36.03,85.924l-1.8-3.113,1.86-1.074a.7.7,0,0,0,.337-.755,7.427,7.427,0,0,1,0-3.048.7.7,0,0,0-.337-.755L34.232,76.1l1.8-3.113,1.862,1.075a.7.7,0,0,0,.823-.086,7.309,7.309,0,0,1,2.637-1.525.7.7,0,0,0,.486-.669V69.639h3.6v2.147a.7.7,0,0,0,.486.669,7.311,7.311,0,0,1,2.637,1.525.7.7,0,0,0,.823.086l1.862-1.075,1.8,3.113-1.86,1.074a.7.7,0,0,0-.337.755,7.423,7.423,0,0,1,0,3.048.7.7,0,0,0,.337.755l1.86,1.074ZM43.634,74.9a4.558,4.558,0,1,0,4.558,4.558A4.563,4.563,0,0,0,43.634,74.9Zm0,7.707a3.149,3.149,0,1,1,3.149-3.149A3.153,3.153,0,0,1,43.634,82.607Z" transform="translate(614 1935.955)" fill="#fff"/>
  </g>
</svg>
